<svg width="116" height="68" viewBox="0 0 116 68" fill="none" xmlns="http://www.w3.org/2000/svg">
<g filter="url(#filter0_d_1_222)">
<rect x="7" y="6" width="100" height="52" rx="11" fill="url(#paint0_linear_1_222)"/>
</g>
<path d="M17.56 47V41.28H22.352C22.944 41.28 23.4027 41.4293 23.728 41.728C24.0587 42.0267 24.224 42.48 24.224 43.088C24.224 43.6053 24.104 44.0107 23.864 44.304C23.624 44.5973 23.2827 44.7813 22.84 44.856L24.16 47H22.704L21.48 44.896H18.84V47H17.56ZM22.2 42.32H18.84V43.848L22.2 43.856C22.4347 43.856 22.6133 43.7973 22.736 43.68C22.864 43.5627 22.928 43.3653 22.928 43.088C22.928 42.8053 22.864 42.608 22.736 42.496C22.6133 42.3787 22.4347 42.32 22.2 42.32ZM25.185 47V41.28H31.457V42.32H26.465V43.584H30.993V44.624H26.465V45.96H31.457V47H25.185ZM34.3494 47L31.7734 41.28H33.1654L35.2854 46H35.3894L37.5094 41.28H38.9014L36.3254 47H34.3494ZM39.4584 47V41.28H40.7384V47H39.4584ZM41.8569 47V41.28H48.1289V42.32H43.1369V43.584H47.6649V44.624H43.1369V45.96H48.1289V47H41.8569ZM49.4853 47L48.8453 41.28H50.1253L50.5973 45.456L52.1893 44.232V41.28H53.4693V44.24L55.0453 45.456L55.5253 41.28H56.8053L56.1653 47H55.0933L52.8293 45.168L50.5573 47H49.4853ZM60.376 47.04V46L64.976 46.008C65.2107 46.008 65.3893 45.9547 65.512 45.848C65.64 45.736 65.704 45.5573 65.704 45.312C65.704 45.0667 65.64 44.8907 65.512 44.784C65.3893 44.672 65.2107 44.616 64.976 44.616H62.112C61.52 44.616 61.0587 44.4747 60.728 44.192C60.4027 43.904 60.24 43.4827 60.24 42.928C60.24 42.3733 60.4027 41.9547 60.728 41.672C61.0587 41.384 61.52 41.24 62.112 41.24H66.608V42.28L62.248 42.272C62.0187 42.272 61.84 42.3253 61.712 42.432C61.584 42.5333 61.52 42.6987 61.52 42.928C61.52 43.1573 61.584 43.3253 61.712 43.432C61.84 43.5333 62.0187 43.584 62.248 43.584H65.112C65.704 43.584 66.1627 43.7307 66.488 44.024C66.8187 44.312 66.984 44.7413 66.984 45.312C66.984 45.8773 66.8187 46.3067 66.488 46.6C66.1627 46.8933 65.704 47.04 65.112 47.04H60.376ZM70.7306 47.04C69.6746 47.04 68.8666 46.7973 68.3066 46.312C67.7466 45.8213 67.4666 45.096 67.4666 44.136C67.4666 43.1813 67.7466 42.4587 68.3066 41.968C68.8666 41.4773 69.6746 41.2347 70.7306 41.24L73.6106 41.256V42.28H70.8186C70.1252 42.28 69.6106 42.4267 69.2746 42.72C68.9386 43.0133 68.7706 43.4853 68.7706 44.136C68.7706 44.7867 68.9386 45.2613 69.2746 45.56C69.6106 45.8533 70.1252 46 70.8186 46H73.6906V47.04H70.7306ZM77.2214 47.04C76.2028 47.04 75.4134 46.7973 74.8534 46.312C74.2934 45.8213 74.0134 45.096 74.0134 44.136C74.0134 43.1813 74.2934 42.4613 74.8534 41.976C75.4134 41.4853 76.2214 41.24 77.2774 41.24H78.7174C79.7734 41.24 80.5814 41.4853 81.1414 41.976C81.7014 42.4613 81.9814 43.1813 81.9814 44.136C81.9814 45.096 81.7014 45.8213 81.1414 46.312C80.5814 46.7973 79.7868 47.04 78.7574 47.04H77.2214ZM77.3654 42.28C76.7734 42.28 76.3121 42.3867 75.9814 42.6C75.6508 42.8133 75.4428 43.152 75.3574 43.616H80.6374C80.5521 43.152 80.3441 42.8133 80.0134 42.6C79.6828 42.3867 79.2214 42.28 78.6294 42.28H77.3654ZM77.3894 46H78.6294C79.2268 46 79.6881 45.8933 80.0134 45.68C80.3441 45.4667 80.5521 45.1253 80.6374 44.656H75.3574C75.4428 45.1253 75.6508 45.4667 75.9814 45.68C76.3121 45.8933 76.7814 46 77.3894 46ZM82.7788 47V41.28H87.5708C88.1628 41.28 88.6214 41.4293 88.9468 41.728C89.2774 42.0267 89.4428 42.48 89.4428 43.088C89.4428 43.6053 89.3228 44.0107 89.0828 44.304C88.8428 44.5973 88.5014 44.7813 88.0588 44.856L89.3788 47H87.9228L86.6988 44.896H84.0588V47H82.7788ZM87.4188 42.32H84.0588V43.848L87.4188 43.856C87.6534 43.856 87.8321 43.7973 87.9548 43.68C88.0828 43.5627 88.1468 43.3653 88.1468 43.088C88.1468 42.8053 88.0828 42.608 87.9548 42.496C87.8321 42.3787 87.6534 42.32 87.4188 42.32ZM90.4038 47V41.28H96.6758V42.32H91.6838V43.584H96.2118V44.624H91.6838V45.96H96.6758V47H90.4038Z" fill="white"/>
<path d="M29.02 37V31.276C29.02 29.476 29.524 28.081 30.532 27.091C31.54 26.101 33.007 25.606 34.933 25.606H43.816C45.526 25.606 46.381 24.877 46.381 23.419C46.381 21.961 45.526 21.232 43.816 21.232H29.452V17.722H44.653C46.525 17.722 47.974 18.226 49 19.234C50.044 20.242 50.566 21.637 50.566 23.419C50.566 25.201 50.044 26.596 49 27.604C47.974 28.612 46.525 29.116 44.653 29.116H35.527C34.753 29.116 34.168 29.314 33.772 29.71C33.394 30.088 33.205 30.628 33.205 31.33V33.517H50.053V37H29.02ZM53.0067 37V33.139H57.3267V37H53.0067ZM60.8968 37V33.49H75.2338C76.9438 33.49 77.7988 32.761 77.7988 31.303C77.7988 29.845 76.9438 29.116 75.2338 29.116H60.8968V17.722H81.2008V21.205H65.0818V25.606H76.0708C77.9428 25.606 79.3918 26.11 80.4178 27.118C81.4618 28.126 81.9838 29.521 81.9838 31.303C81.9838 33.085 81.4618 34.48 80.4178 35.488C79.3918 36.496 77.9428 37 76.0708 37H60.8968Z" fill="white"/>
<defs>
<filter id="filter0_d_1_222" x="0" y="0" width="116" height="68" filterUnits="userSpaceOnUse" color-interpolation-filters="sRGB">
<feFlood flood-opacity="0" result="BackgroundImageFix"/>
<feColorMatrix in="SourceAlpha" type="matrix" values="0 0 0 0 0 0 0 0 0 0 0 0 0 0 0 0 0 0 127 0" result="hardAlpha"/>
<feOffset dx="1" dy="2"/>
<feGaussianBlur stdDeviation="4"/>
<feComposite in2="hardAlpha" operator="out"/>
<feColorMatrix type="matrix" values="0 0 0 0 1 0 0 0 0 0.78 0 0 0 0 0 0 0 0 0.13 0"/>
<feBlend mode="normal" in2="BackgroundImageFix" result="effect1_dropShadow_1_222"/>
<feBlend mode="normal" in="SourceGraphic" in2="effect1_dropShadow_1_222" result="shape"/>
</filter>
<linearGradient id="paint0_linear_1_222" x1="151" y1="76.5031" x2="30.422" y2="-32.6359" gradientUnits="userSpaceOnUse">
<stop stop-color="#D9D9D9"/>
<stop offset="0.0001" stop-color="#583500"/>
<stop offset="1" stop-color="#C7A52D"/>
</linearGradient>
</defs>
</svg>
