<svg width="118" height="70" viewBox="0 0 118 70" fill="none" xmlns="http://www.w3.org/2000/svg">
<g filter="url(#filter0_d_1_215)">
<path d="M108.035 33.4999C108.035 59.5 84.1142 59.5 56.4999 59.5C28.8857 59.5 7 60.9999 7 33.4999C7 6 28.8857 6 56.4999 6C84.1142 6 108.035 6 108.035 33.4999Z" fill="url(#paint0_linear_1_215)"/>
</g>
<path d="M25.872 48.04C25.2907 48.04 24.832 47.9653 24.496 47.816C24.16 47.6613 23.92 47.4293 23.776 47.12C23.632 46.8107 23.56 46.4213 23.56 45.952V42.28H24.84V45.952C24.84 46.3573 24.9333 46.6347 25.12 46.784C25.312 46.928 25.6347 47 26.088 47H27.632C28.0853 47 28.4053 46.928 28.592 46.784C28.784 46.6347 28.88 46.3573 28.88 45.952V42.28H30.16V45.952C30.16 46.4213 30.088 46.8107 29.944 47.12C29.8 47.4293 29.56 47.6613 29.224 47.816C28.888 47.9653 28.4293 48.04 27.848 48.04H25.872ZM31.0948 48.04V47L35.6948 47.008C35.9294 47.008 36.1081 46.9547 36.2308 46.848C36.3588 46.736 36.4228 46.5573 36.4228 46.312C36.4228 46.0667 36.3588 45.8907 36.2308 45.784C36.1081 45.672 35.9294 45.616 35.6948 45.616H32.8307C32.2388 45.616 31.7774 45.4747 31.4468 45.192C31.1214 44.904 30.9588 44.4827 30.9588 43.928C30.9588 43.3733 31.1214 42.9547 31.4468 42.672C31.7774 42.384 32.2388 42.24 32.8307 42.24H37.3268V43.28L32.9668 43.272C32.7374 43.272 32.5588 43.3253 32.4308 43.432C32.3028 43.5333 32.2388 43.6987 32.2388 43.928C32.2388 44.1573 32.3028 44.3253 32.4308 44.432C32.5588 44.5333 32.7374 44.584 32.9668 44.584H35.8308C36.4228 44.584 36.8814 44.7307 37.2068 45.024C37.5374 45.312 37.7028 45.7413 37.7028 46.312C37.7028 46.8773 37.5374 47.3067 37.2068 47.6C36.8814 47.8933 36.4228 48.04 35.8308 48.04H31.0948ZM38.5053 48V42.28H44.7773V43.32H39.7853V44.584H44.3133V45.624H39.7853V46.96H44.7773V48H38.5053ZM45.6538 48V42.28H50.4458C51.0378 42.28 51.4964 42.4293 51.8218 42.728C52.1524 43.0267 52.3178 43.48 52.3178 44.088C52.3178 44.6053 52.1978 45.0107 51.9578 45.304C51.7178 45.5973 51.3764 45.7813 50.9338 45.856L52.2538 48H50.7978L49.5738 45.896H46.9338V48H45.6538ZM50.2938 43.32H46.9338V44.848L50.2938 44.856C50.5284 44.856 50.7071 44.7973 50.8298 44.68C50.9578 44.5627 51.0218 44.3653 51.0218 44.088C51.0218 43.8053 50.9578 43.608 50.8298 43.496C50.7071 43.3787 50.5284 43.32 50.2938 43.32ZM55.8916 48.04V47L60.4916 47.008C60.7263 47.008 60.905 46.9547 61.0276 46.848C61.1556 46.736 61.2196 46.5573 61.2196 46.312C61.2196 46.0667 61.1556 45.8907 61.0276 45.784C60.905 45.672 60.7263 45.616 60.4916 45.616H57.6276C57.0356 45.616 56.5743 45.4747 56.2436 45.192C55.9183 44.904 55.7556 44.4827 55.7556 43.928C55.7556 43.3733 55.9183 42.9547 56.2436 42.672C56.5743 42.384 57.0356 42.24 57.6276 42.24H62.1236V43.28L57.7636 43.272C57.5343 43.272 57.3556 43.3253 57.2276 43.432C57.0996 43.5333 57.0356 43.6987 57.0356 43.928C57.0356 44.1573 57.0996 44.3253 57.2276 44.432C57.3556 44.5333 57.5343 44.584 57.7636 44.584H60.6276C61.2196 44.584 61.6783 44.7307 62.0036 45.024C62.3343 45.312 62.4996 45.7413 62.4996 46.312C62.4996 46.8773 62.3343 47.3067 62.0036 47.6C61.6783 47.8933 61.2196 48.04 60.6276 48.04H55.8916ZM66.2462 48.04C65.1902 48.04 64.3822 47.7973 63.8222 47.312C63.2622 46.8213 62.9822 46.096 62.9822 45.136C62.9822 44.1813 63.2622 43.4587 63.8222 42.968C64.3822 42.4773 65.1902 42.2347 66.2462 42.24L69.1262 42.256V43.28H66.3342C65.6409 43.28 65.1262 43.4267 64.7902 43.72C64.4542 44.0133 64.2862 44.4853 64.2862 45.136C64.2862 45.7867 64.4542 46.2613 64.7902 46.56C65.1262 46.8533 65.6409 47 66.3342 47H69.2062V48.04H66.2462ZM72.7371 48.04C71.7184 48.04 70.9291 47.7973 70.3691 47.312C69.8091 46.8213 69.5291 46.096 69.5291 45.136C69.5291 44.1813 69.8091 43.4613 70.3691 42.976C70.9291 42.4853 71.7371 42.24 72.7931 42.24H74.2331C75.2891 42.24 76.0971 42.4853 76.6571 42.976C77.2171 43.4613 77.4971 44.1813 77.4971 45.136C77.4971 46.096 77.2171 46.8213 76.6571 47.312C76.0971 47.7973 75.3024 48.04 74.2731 48.04H72.7371ZM72.8811 43.28C72.2891 43.28 71.8277 43.3867 71.4971 43.6C71.1664 43.8133 70.9584 44.152 70.8731 44.616H76.1531C76.0677 44.152 75.8597 43.8133 75.5291 43.6C75.1984 43.3867 74.7371 43.28 74.1451 43.28H72.8811ZM72.9051 47H74.1451C74.7424 47 75.2037 46.8933 75.5291 46.68C75.8597 46.4667 76.0677 46.1253 76.1531 45.656H70.8731C70.9584 46.1253 71.1664 46.4667 71.4971 46.68C71.8277 46.8933 72.2971 47 72.9051 47ZM78.2944 48V42.28H83.0864C83.6784 42.28 84.137 42.4293 84.4624 42.728C84.793 43.0267 84.9584 43.48 84.9584 44.088C84.9584 44.6053 84.8384 45.0107 84.5984 45.304C84.3584 45.5973 84.017 45.7813 83.5744 45.856L84.8944 48H83.4384L82.2144 45.896H79.5744V48H78.2944ZM82.9344 43.32H79.5744V44.848L82.9344 44.856C83.169 44.856 83.3477 44.7973 83.4704 44.68C83.5984 44.5627 83.6624 44.3653 83.6624 44.088C83.6624 43.8053 83.5984 43.608 83.4704 43.496C83.3477 43.3787 83.169 43.32 82.9344 43.32ZM85.9194 48V42.28H92.1914V43.32H87.1994V44.584H91.7274V45.624H87.1994V46.96H92.1914V48H85.9194Z" fill="white"/>
<path d="M39.3315 38.027C36.5235 38.027 34.3455 37.181 32.7975 35.489C31.2495 33.779 30.4755 31.394 30.4755 28.334C30.4755 25.004 31.4385 22.565 33.3645 21.017C35.3085 19.469 38.0175 18.695 41.4915 18.695H52.3725V22.205H41.7885C39.8265 22.205 38.2695 22.538 37.1175 23.204C35.9835 23.852 35.2815 24.995 35.0115 26.633H47.6205C49.6185 26.633 51.1935 27.137 52.3455 28.145C53.4975 29.135 54.0735 30.512 54.0735 32.276C54.0735 34.094 53.4975 35.507 52.3455 36.515C51.1935 37.523 49.6185 38.027 47.6205 38.027H39.3315ZM39.6285 34.517H46.7835C47.7735 34.517 48.5385 34.337 49.0785 33.977C49.6185 33.599 49.8885 33.041 49.8885 32.303C49.8885 31.583 49.6185 31.043 49.0785 30.683C48.5385 30.323 47.7735 30.143 46.7835 30.143H35.0115C35.4255 33.059 36.9645 34.517 39.6285 34.517ZM66.9886 38.135C63.5146 38.135 60.8056 37.316 58.8616 35.678C56.9356 34.022 55.9726 31.574 55.9726 28.334C55.9726 25.112 56.9356 22.682 58.8616 21.044C60.8056 19.388 63.5146 18.56 66.9886 18.56H70.4986C73.9906 18.56 76.6996 19.388 78.6256 21.044C80.5516 22.682 81.5146 25.112 81.5146 28.334C81.5146 31.574 80.5516 34.022 78.6256 35.678C76.6996 37.316 73.9906 38.135 70.4986 38.135H66.9886ZM60.3736 28.334C60.3736 30.296 60.8506 31.79 61.8046 32.816L72.3886 22.259C71.7406 22.133 71.0116 22.07 70.2016 22.07H67.2856C65.0176 22.07 63.2986 22.565 62.1286 23.555C60.9586 24.545 60.3736 26.138 60.3736 28.334ZM67.2856 34.625H70.2016C72.4696 34.625 74.1886 34.13 75.3586 33.14C76.5286 32.132 77.1136 30.53 77.1136 28.334C77.1136 26.372 76.6276 24.878 75.6556 23.852L65.0446 34.436C65.7106 34.562 66.4576 34.625 67.2856 34.625Z" fill="white"/>
<defs>
<filter id="filter0_d_1_215" x="0" y="0" width="117.035" height="69.5145" filterUnits="userSpaceOnUse" color-interpolation-filters="sRGB">
<feFlood flood-opacity="0" result="BackgroundImageFix"/>
<feColorMatrix in="SourceAlpha" type="matrix" values="0 0 0 0 0 0 0 0 0 0 0 0 0 0 0 0 0 0 127 0" result="hardAlpha"/>
<feOffset dx="1" dy="2"/>
<feGaussianBlur stdDeviation="4"/>
<feComposite in2="hardAlpha" operator="out"/>
<feColorMatrix type="matrix" values="0 0 0 0 0.02 0 0 0 0 1 0 0 0 0 0 0 0 0 0.13 0"/>
<feBlend mode="normal" in2="BackgroundImageFix" result="effect1_dropShadow_1_215"/>
<feBlend mode="normal" in="SourceGraphic" in2="effect1_dropShadow_1_215" result="shape"/>
</filter>
<linearGradient id="paint0_linear_1_215" x1="152.49" y1="78.5565" x2="28.6478" y2="-31.4919" gradientUnits="userSpaceOnUse">
<stop stop-color="#D9D9D9"/>
<stop offset="0.0001" stop-color="#005804"/>
<stop offset="1" stop-color="#5EC72D"/>
</linearGradient>
</defs>
</svg>
