<svg width="10" height="10" viewBox="0 0 10 10" fill="none" xmlns="http://www.w3.org/2000/svg">
<g clip-path="url(#clip0_1_85)">
<path d="M9.86686 3.04872L5.32129 7.59417C5.23608 7.67942 5.12044 7.72729 4.99989 7.72729C4.87932 7.72729 4.76371 7.67939 4.67847 7.59414L0.133136 3.04869C-0.0443788 2.87117 -0.0443788 2.58339 0.133136 2.40587C0.310621 2.22839 0.598439 2.22836 0.775955 2.40587L4.99989 6.6299L9.22405 2.40587C9.3128 2.31711 9.42914 2.27275 9.54547 2.27275C9.6618 2.27275 9.77814 2.31711 9.86689 2.4059C10.0444 2.58342 10.0444 2.8712 9.86686 3.04872Z" fill="white"/>
</g>
<defs>
<clipPath id="clip0_1_85">
<rect width="10" height="10" fill="white" transform="matrix(1 0 0 -1 0 10)"/>
</clipPath>
</defs>
</svg>
