<svg width="124" height="35" viewBox="0 0 124 35" fill="none" xmlns="http://www.w3.org/2000/svg">
<g clip-path="url(#clip0_190_95)">
<path d="M26.2421 7.50999C24.2367 6.571 22.0926 5.88858 19.8509 5.5C19.5756 5.99814 19.2539 6.66815 19.0322 7.20115C16.6492 6.84249 14.2882 6.84249 11.949 7.20115C11.7273 6.66815 11.3984 5.99814 11.1206 5.5C8.87649 5.88858 6.72985 6.57351 4.72453 7.51497C0.679783 13.632 -0.41668 19.5972 0.131553 25.4776C2.81424 27.4826 5.41409 28.7005 7.97006 29.4975C8.60114 28.6283 9.16398 27.7043 9.64886 26.7304C8.7254 26.3792 7.84092 25.9459 7.00519 25.4427C7.22691 25.2784 7.44378 25.1065 7.65331 24.9296C12.7506 27.3157 18.289 27.3157 23.3255 24.9296C23.5375 25.1065 23.7543 25.2784 23.9736 25.4427C23.1354 25.9483 22.2485 26.3817 21.325 26.7329C21.8099 27.7043 22.3703 28.6308 23.0038 29.5C25.5623 28.703 28.1645 27.4851 30.8472 25.4776C31.4905 18.6607 29.7483 12.7503 26.2421 7.50999ZM10.3433 21.8612C8.81313 21.8612 7.55827 20.4315 7.55827 18.6906C7.55827 16.9496 8.78633 15.5175 10.3433 15.5175C11.9003 15.5175 13.1551 16.9471 13.1283 18.6906C13.1308 20.4315 11.9003 21.8612 10.3433 21.8612ZM20.6355 21.8612C19.1053 21.8612 17.8504 20.4315 17.8504 18.6906C17.8504 16.9496 19.0785 15.5175 20.6355 15.5175C22.1924 15.5175 23.4473 16.9471 23.4205 18.6906C23.4205 20.4315 22.1924 21.8612 20.6355 21.8612Z" fill="white"/>
<path d="M41.6289 11.6226H48.2806C49.8841 11.6226 51.2388 11.8791 52.3501 12.3897C53.4585 12.9002 54.2895 13.6126 54.8403 14.5242C55.3907 15.4357 55.6684 16.4793 55.6684 17.6549C55.6684 18.8056 55.3809 19.8492 54.8059 20.7832C54.2309 21.7197 53.3561 22.4594 52.1794 23.0049C51.0027 23.5503 49.5452 23.8243 47.8033 23.8243H41.6289V11.6226ZM47.7349 20.7234C48.8144 20.7234 49.6455 20.447 50.2251 19.8965C50.8052 19.3436 51.0952 18.5914 51.0952 17.6375C51.0952 16.7533 50.8366 16.0484 50.3202 15.5204C49.8039 14.9924 49.0216 14.7259 47.9761 14.7259H45.8953V20.7234H47.7349Z" fill="white"/>
<path d="M65.6269 23.8094C64.7058 23.5654 63.8748 23.2117 63.1367 22.7459V19.8518C63.6947 20.2926 64.4425 20.6563 65.3806 20.9427C66.3187 21.2266 67.2253 21.3686 68.1022 21.3686C68.5116 21.3686 68.8212 21.3138 69.0305 21.2042C69.2403 21.0946 69.3452 20.9626 69.3452 20.8107C69.3452 20.6363 69.2892 20.4919 69.1745 20.3748C69.0598 20.2577 68.8382 20.1606 68.5095 20.0784L66.4626 19.6077C65.2906 19.3287 64.4595 18.9427 63.9652 18.447C63.4705 17.9539 63.2242 17.3063 63.2242 16.5043C63.2242 15.8293 63.4387 15.2441 63.8727 14.7434C64.3037 14.2428 64.9177 13.8567 65.7144 13.5852C66.5115 13.3113 67.4419 13.1743 68.5116 13.1743C69.4667 13.1743 70.3415 13.2789 71.1385 13.4881C71.9352 13.6974 72.593 13.9638 73.117 14.2901V17.0274C72.5807 16.7011 71.9666 16.4446 71.2651 16.2503C70.5657 16.0585 69.8472 15.9638 69.1061 15.9638C68.0364 15.9638 67.503 16.1506 67.503 16.5217C67.503 16.6961 67.5859 16.8256 67.7515 16.9128C67.9171 17 68.2216 17.0896 68.6628 17.1843L70.3682 17.4981C71.4821 17.6949 72.3127 18.0411 72.8584 18.5342C73.4045 19.0274 73.6771 19.7571 73.6771 20.7235C73.6771 21.782 73.2266 22.6214 72.3225 23.2441C71.4184 23.8667 70.1368 24.178 68.4751 24.178C67.498 24.1756 66.548 24.0535 65.6269 23.8094Z" fill="white"/>
<path d="M77.7031 23.4431C76.7264 22.9549 75.9879 22.2925 75.4957 21.4556C75.0036 20.6187 74.7551 19.6773 74.7551 18.6312C74.7551 17.5851 75.0108 16.6486 75.5225 15.8242C76.0342 14.9998 76.7846 14.3522 77.774 13.8815C78.763 13.4108 79.9449 13.1766 81.3216 13.1766C83.027 13.1766 84.4428 13.5428 85.5686 14.275V17.4656C85.1716 17.1866 84.7083 16.9599 84.1796 16.7856C83.6509 16.6113 83.0856 16.5241 82.4813 16.5241C81.4239 16.5241 80.598 16.7208 80.0009 17.1169C79.4039 17.5129 79.1045 18.0284 79.1045 18.6685C79.1045 19.2962 79.3941 19.8093 79.9742 20.2128C80.5543 20.6138 81.3947 20.8155 82.4983 20.8155C83.0661 20.8155 83.6266 20.7308 84.1796 20.5639C84.7303 20.3946 85.2055 20.1879 85.6026 19.9437V23.0297C84.3528 23.7968 82.903 24.1804 81.2532 24.1804C79.8646 24.1754 78.6802 23.9313 77.7031 23.4431Z" fill="white"/>
<path d="M89.8226 23.4432C88.8382 22.9551 88.0879 22.2876 87.5711 21.4383C87.0547 20.5889 86.7939 19.6425 86.7939 18.5964C86.7939 17.5504 87.0521 16.6163 87.5711 15.7969C88.09 14.9775 88.8357 14.3349 89.8154 13.8691C90.7921 13.4034 91.9595 13.1718 93.3116 13.1718C94.6641 13.1718 95.8311 13.4034 96.8082 13.8691C97.7854 14.3349 98.5311 14.9725 99.0428 15.7869C99.5545 16.6014 99.8101 17.5354 99.8101 18.5939C99.8101 19.64 99.5545 20.5865 99.0428 21.4358C98.5311 22.2851 97.7828 22.9526 96.7985 23.4407C95.8141 23.9289 94.6518 24.173 93.3095 24.173C91.9667 24.173 90.8044 23.9314 89.8226 23.4432ZM95.0051 20.3498C95.4196 19.9264 95.6289 19.366 95.6289 18.6687C95.6289 17.9713 95.4217 17.4158 95.0051 17.0049C94.5911 16.5914 94.0254 16.3847 93.3095 16.3847C92.5808 16.3847 92.0104 16.5914 91.5938 17.0049C91.1798 17.4184 90.9726 17.9713 90.9726 18.6687C90.9726 19.366 91.1798 19.9264 91.5938 20.3498C92.0083 20.7733 92.5808 20.9875 93.3095 20.9875C94.0254 20.985 94.5911 20.7733 95.0051 20.3498Z" fill="white"/>
<path d="M110.059 13.8193V17.5852C109.625 17.2938 109.064 17.1493 108.37 17.1493C107.461 17.1493 106.759 17.4308 106.272 17.9936C105.782 18.5566 105.538 19.4332 105.538 20.6188V23.8268H101.36V13.6275H105.454V16.8704C105.68 15.6848 106.048 14.8106 106.555 14.2452C107.059 13.6823 107.712 13.4009 108.506 13.4009C109.108 13.4009 109.625 13.5404 110.059 13.8193Z" fill="white"/>
<path d="M123.942 11.2739V23.8269H119.763V21.5429C119.41 22.4022 118.874 23.0573 118.153 23.5056C117.431 23.9514 116.54 24.1756 115.482 24.1756C114.537 24.1756 113.714 23.9414 113.009 23.4707C112.305 23 111.762 22.3549 111.379 21.5355C110.999 20.716 110.806 19.7895 110.806 18.7534C110.795 17.6849 110.997 16.726 111.413 15.8767C111.828 15.0274 112.415 14.3649 113.17 13.8891C113.926 13.4134 114.788 13.1743 115.755 13.1743C117.746 13.1743 119.081 14.0585 119.763 15.8244V11.2739H123.942ZM119.14 20.2802C119.566 19.8568 119.778 19.3063 119.778 18.6339C119.778 17.9838 119.571 17.4533 119.157 17.0473C118.742 16.6413 118.175 16.4371 117.461 16.4371C116.757 16.4371 116.194 16.6438 115.772 17.0572C115.351 17.4707 115.141 18.0062 115.141 18.6687C115.141 19.3312 115.351 19.8717 115.772 20.2901C116.194 20.7085 116.749 20.9178 117.444 20.9178C118.148 20.9153 118.713 20.7036 119.14 20.2802Z" fill="white"/>
<path d="M59.1896 14.7135C60.34 14.7135 61.2729 13.857 61.2729 12.8006C61.2729 11.7442 60.34 10.8878 59.1896 10.8878C58.0388 10.8878 57.1062 11.7442 57.1062 12.8006C57.1062 13.857 58.0388 14.7135 59.1896 14.7135Z" fill="white"/>
<path d="M57.1045 16.031C58.381 16.5939 59.965 16.6188 61.2708 16.031V23.8816H57.1045V16.031Z" fill="white"/>
</g>
<defs>
<clipPath id="clip0_190_95">
<rect width="124" height="34" fill="white" transform="translate(0 0.5)"/>
</clipPath>
</defs>
</svg>
