<svg width="44" height="35" viewBox="0 0 44 35" fill="none" xmlns="http://www.w3.org/2000/svg">
<path d="M37.2479 3.31841C34.4434 2.01389 31.4361 1.05278 28.2918 0.502309C28.2346 0.491685 28.1774 0.518235 28.1479 0.571336C27.7611 1.26871 27.3327 2.1785 27.0327 2.89358C23.6507 2.38029 20.2862 2.38029 16.9736 2.89358C16.6735 2.1626 16.2296 1.26871 15.8411 0.571336C15.8116 0.520007 15.7544 0.493457 15.6971 0.502309C12.5545 1.05102 9.54719 2.01213 6.74105 3.31841C6.71675 3.32903 6.69593 3.34675 6.68211 3.36974C0.977885 12.0092 -0.584742 20.4363 0.18183 28.759C0.185299 28.7997 0.207845 28.8386 0.239063 28.8634C4.00255 31.6653 7.64813 33.3663 11.226 34.4938C11.2833 34.5115 11.3439 34.4903 11.3804 34.4425C12.2267 33.2708 12.9812 32.0353 13.628 30.736C13.6662 30.66 13.6298 30.5697 13.5518 30.5396C12.3551 30.0794 11.2156 29.5183 10.1195 28.8811C10.0328 28.8298 10.0259 28.7041 10.1056 28.6439C10.3363 28.4687 10.567 28.2863 10.7873 28.1022C10.8271 28.0686 10.8826 28.0615 10.9295 28.0828C18.1304 31.4158 25.9262 31.4158 33.0421 28.0828C33.0889 28.0598 33.1445 28.0669 33.186 28.1005C33.4063 28.2846 33.637 28.4687 33.8694 28.6439C33.9492 28.7041 33.944 28.8298 33.8573 28.8811C32.7612 29.5307 31.6217 30.0794 30.4233 30.5378C30.3452 30.5679 30.3105 30.66 30.3487 30.736C31.0095 32.0335 31.7639 33.2689 32.5946 34.4407C32.6293 34.4903 32.6918 34.5115 32.749 34.4938C36.3442 33.3663 39.9898 31.6653 43.7533 28.8634C43.7863 28.8386 43.8071 28.8014 43.8106 28.7607C44.728 19.1388 42.2739 10.7808 37.3051 3.3715C37.2929 3.34675 37.2722 3.32903 37.2479 3.31841ZM14.7034 23.6914C12.5354 23.6914 10.7491 21.6736 10.7491 19.1955C10.7491 16.7175 12.5008 14.6997 14.7034 14.6997C16.9233 14.6997 18.6923 16.7352 18.6576 19.1955C18.6576 21.6736 16.9059 23.6914 14.7034 23.6914ZM29.3237 23.6914C27.1558 23.6914 25.3695 21.6736 25.3695 19.1955C25.3695 16.7175 27.1211 14.6997 29.3237 14.6997C31.5437 14.6997 33.3126 16.7352 33.278 19.1955C33.278 21.6736 31.5437 23.6914 29.3237 23.6914Z" fill="white"/>
</svg>
