<svg width="80" height="80" viewBox="0 0 80 80" fill="none" xmlns="http://www.w3.org/2000/svg">
<g filter="url(#filter0_d_1_413)">
<circle cx="40" cy="32" r="25" fill="#CE3727"/>
</g>
<path d="M46.4984 28.9113C46.6828 28.7134 46.7831 28.4518 46.7783 28.1815C46.7736 27.9111 46.6641 27.6532 46.4729 27.462C46.2817 27.2708 46.0238 27.1613 45.7534 27.1565C45.4831 27.1518 45.2214 27.2521 45.0236 27.4364L37.413 35.047L33.9764 31.6104C33.7786 31.4261 33.517 31.3258 33.2466 31.3305C32.9763 31.3353 32.7184 31.4448 32.5272 31.636C32.336 31.8272 32.2265 32.0851 32.2217 32.3555C32.2169 32.6258 32.3173 32.8874 32.5016 33.0853L36.6756 37.2593C36.8713 37.4547 37.1365 37.5644 37.413 37.5644C37.6895 37.5644 37.9548 37.4547 38.1504 37.2593L46.4984 28.9113Z" fill="#F3F3F3"/>
<path fill-rule="evenodd" clip-rule="evenodd" d="M42.4719 16.9736C41.6101 16.3411 40.569 16 39.5 16C38.431 16 37.3899 16.3411 36.5281 16.9736L34.615 18.3788C34.2335 18.6584 33.7901 18.8417 33.3225 18.9131L30.9767 19.2735C29.9201 19.4354 28.9428 19.9303 28.1869 20.686C27.4309 21.4417 26.9358 22.4188 26.7735 23.4753L26.4131 25.8225C26.3417 26.2901 26.1584 26.7335 25.8788 27.115L24.4736 29.0281C23.8411 29.8899 23.5 30.931 23.5 32C23.5 33.069 23.8411 34.1101 24.4736 34.9719L25.8788 36.885C26.1571 37.2662 26.3421 37.71 26.4131 38.1775L26.7735 40.5233C26.9354 41.5799 27.4303 42.5572 28.186 43.3131C28.9417 44.069 29.9188 44.5642 30.9753 44.7265L33.3225 45.0869C33.79 45.1579 34.2338 45.3415 34.615 45.6212L36.5281 47.0264C37.3899 47.6589 38.431 48 39.5 48C40.569 48 41.6101 47.6589 42.4719 47.0264L44.385 45.6212C44.7665 45.3416 45.2099 45.1583 45.6775 45.0869L48.0233 44.7265C49.0799 44.5645 50.0572 44.0697 50.8131 43.314C51.569 42.5583 52.0642 41.5812 52.2265 40.5247L52.5869 38.1775C52.6583 37.7099 52.8416 37.2665 53.1212 36.885L54.5264 34.9719C55.1589 34.1101 55.5 33.069 55.5 32C55.5 30.931 55.1589 29.8899 54.5264 29.0281L53.1212 27.115C52.8416 26.7335 52.6583 26.2901 52.5869 25.8225L52.2265 23.4767C52.0645 22.4201 51.5697 21.4428 50.814 20.6869C50.0583 19.9309 49.0812 19.4358 48.0247 19.2735L45.6775 18.9131C45.2099 18.8417 44.7665 18.6584 44.385 18.3788L42.4719 16.9736ZM37.7636 18.6557C38.2672 18.2863 38.8755 18.0871 39.5 18.0871C40.1245 18.0871 40.7328 18.2863 41.2364 18.6557L43.1509 20.0609C43.8033 20.5398 44.5618 20.8538 45.3617 20.9764L47.7075 21.3354C48.325 21.4304 48.8961 21.7198 49.3378 22.1618C49.7794 22.6037 50.0686 23.1749 50.1632 23.7925L50.5249 26.1383C50.6469 26.9386 50.9605 27.6976 51.439 28.3505L52.8443 30.2636C53.2137 30.7672 53.4129 31.3755 53.4129 32C53.4129 32.6245 53.2137 33.2328 52.8443 33.7364L51.439 35.6509C50.9602 36.3033 50.6462 37.0618 50.5236 37.8617L50.1646 40.2075C50.0696 40.825 49.7802 41.3961 49.3382 41.8378C48.8963 42.2794 48.3251 42.5686 47.7075 42.6632L45.3617 43.0249C44.5614 43.1469 43.8024 43.4605 43.1495 43.939L41.2364 45.3443C40.7328 45.7137 40.1245 45.9129 39.5 45.9129C38.8755 45.9129 38.2672 45.7137 37.7636 45.3443L35.8491 43.939C35.1967 43.4602 34.4382 43.1462 33.6383 43.0236L31.2925 42.6646C30.6747 42.5699 30.1033 42.2805 29.6614 41.8386C29.2195 41.3967 28.9301 40.8253 28.8354 40.2075L28.4764 37.8617C28.3541 37.0613 28.04 36.3023 27.5609 35.6495L26.1557 33.7364C25.7863 33.2328 25.5871 32.6245 25.5871 32C25.5871 31.3755 25.7863 30.7672 26.1557 30.2636L27.5609 28.3491C28.0398 27.6967 28.3538 26.9382 28.4764 26.1383L28.8354 23.7925C28.9301 23.1747 29.2195 22.6033 29.6614 22.1614C30.1033 21.7195 30.6747 21.4301 31.2925 21.3354L33.6383 20.9764C34.4387 20.8541 35.1977 20.54 35.8505 20.0609L37.7636 18.6557Z" fill="#F3F3F3"/>
<defs>
<filter id="filter0_d_1_413" x="0" y="0" width="80" height="80" filterUnits="userSpaceOnUse" color-interpolation-filters="sRGB">
<feFlood flood-opacity="0" result="BackgroundImageFix"/>
<feColorMatrix in="SourceAlpha" type="matrix" values="0 0 0 0 0 0 0 0 0 0 0 0 0 0 0 0 0 0 127 0" result="hardAlpha"/>
<feOffset dy="8"/>
<feGaussianBlur stdDeviation="7.5"/>
<feComposite in2="hardAlpha" operator="out"/>
<feColorMatrix type="matrix" values="0 0 0 0 0.807843 0 0 0 0 0.215686 0 0 0 0 0.152941 0 0 0 0.2 0"/>
<feBlend mode="normal" in2="BackgroundImageFix" result="effect1_dropShadow_1_413"/>
<feBlend mode="normal" in="SourceGraphic" in2="effect1_dropShadow_1_413" result="shape"/>
</filter>
</defs>
</svg>
