<svg width="80" height="80" viewBox="0 0 80 80" fill="none" xmlns="http://www.w3.org/2000/svg">
<g filter="url(#filter0_d_1_158)">
<circle cx="40" cy="32" r="25" fill="#CE3727"/>
</g>
<path d="M55.6752 42.911L49.1081 36.3437L53.7932 33.6373C54.1593 33.4258 54.3724 33.0239 54.3419 32.6022C54.3116 32.1804 54.043 31.8132 53.6502 31.6567L32.7578 23.3228C32.3481 23.1592 31.8806 23.2556 31.5687 23.5673C31.2568 23.8793 31.1604 24.3469 31.3239 24.7564L39.6566 45.6512C39.8132 46.0439 40.1804 46.3126 40.6022 46.343C41.024 46.3737 41.4259 46.1604 41.6373 45.7942L44.3432 41.1091L50.9101 47.6766C51.117 47.8837 51.3978 47.9999 51.6904 47.9999C51.9831 47.9999 52.2638 47.8837 52.4707 47.6766L55.6752 44.4717C56.1062 44.0407 56.1062 43.342 55.6752 42.911ZM51.6904 45.3358L44.8872 38.5319C44.6788 38.3235 44.3976 38.2086 44.1069 38.2086C44.0591 38.2086 44.0109 38.2117 43.963 38.218C43.6227 38.2627 43.3227 38.4631 43.1512 38.7603L40.8641 42.7206L34.3253 26.3246L50.7197 32.8642L46.7591 35.1518C46.462 35.3232 46.2616 35.6232 46.2169 35.9636C46.1721 36.3036 46.288 36.6451 46.5307 36.8878L53.3342 43.6917L51.6904 45.3358Z" fill="white"/>
<path d="M27.8457 18.2836C27.4146 17.8529 26.7161 17.8529 26.2848 18.2836C25.8538 18.7147 25.8538 19.4133 26.2848 19.8445L28.7369 22.2966C28.9523 22.5119 29.2349 22.6198 29.5173 22.6198C29.7997 22.6198 30.082 22.5119 30.2977 22.2966C30.7286 21.8656 30.7286 21.1668 30.2977 20.7358L27.8457 18.2836Z" fill="white"/>
<path d="M28.6766 25.9128C28.6766 25.3033 28.1824 24.8093 27.5729 24.8093H24.1051C23.4958 24.8093 23.0015 25.3032 23.0015 25.9128C23.0015 26.5221 23.4957 27.0163 24.1051 27.0163H27.5729C28.1824 27.0162 28.6766 26.5221 28.6766 25.9128Z" fill="white"/>
<path d="M28.2292 29.3189L25.7769 31.7712C25.3458 32.202 25.3458 32.9008 25.7769 33.3318C25.9923 33.5472 26.2746 33.655 26.5572 33.655C26.8396 33.655 27.1219 33.5472 27.3373 33.3318L29.7898 30.8796C30.2208 30.4487 30.2208 29.7498 29.7898 29.3189C29.359 28.888 28.6603 28.888 28.2292 29.3189Z" fill="white"/>
<path d="M33.9135 20.6753C34.5229 20.6753 35.0171 20.1811 35.0171 19.5717V16.1036C35.0171 15.4942 34.523 15 33.9135 15C33.3041 15 32.8101 15.4941 32.8101 16.1036V19.5718C32.8101 20.1811 33.304 20.6753 33.9135 20.6753Z" fill="white"/>
<path d="M38.0992 22.1117C38.3819 22.1117 38.6642 22.0041 38.8797 21.7885L41.3317 19.3364C41.7628 18.9054 41.7628 18.2067 41.3317 17.7758C40.9008 17.3448 40.2018 17.3448 39.7711 17.7758L37.319 20.2279C36.888 20.6588 36.888 21.3577 37.319 21.7885C37.5344 22.0041 37.8169 22.1117 38.0992 22.1117Z" fill="white"/>
<defs>
<filter id="filter0_d_1_158" x="0" y="0" width="80" height="80" filterUnits="userSpaceOnUse" color-interpolation-filters="sRGB">
<feFlood flood-opacity="0" result="BackgroundImageFix"/>
<feColorMatrix in="SourceAlpha" type="matrix" values="0 0 0 0 0 0 0 0 0 0 0 0 0 0 0 0 0 0 127 0" result="hardAlpha"/>
<feOffset dy="8"/>
<feGaussianBlur stdDeviation="7.5"/>
<feComposite in2="hardAlpha" operator="out"/>
<feColorMatrix type="matrix" values="0 0 0 0 0.807843 0 0 0 0 0.215686 0 0 0 0 0.152941 0 0 0 0.2 0"/>
<feBlend mode="normal" in2="BackgroundImageFix" result="effect1_dropShadow_1_158"/>
<feBlend mode="normal" in="SourceGraphic" in2="effect1_dropShadow_1_158" result="shape"/>
</filter>
</defs>
</svg>
