<svg width="80" height="80" viewBox="0 0 80 80" fill="none" xmlns="http://www.w3.org/2000/svg">
<g filter="url(#filter0_d_1_151)">
<circle cx="40" cy="32" r="25" fill="#CE3727"/>
</g>
<path d="M52.8456 21.9404C51.7145 20.5616 50.37 19.3826 48.8484 18.4308C47.4153 17.5338 45.8576 16.864 44.2192 16.4371C44.0018 16.3783 43.7764 16.5076 43.7201 16.723L42.8265 20.3423C42.7741 20.546 42.9029 20.7536 43.1082 20.8123C45.5033 21.4586 47.6649 22.8452 49.2268 24.7489C50.048 25.7516 50.688 26.8679 51.1267 28.0665C51.5816 29.3082 51.811 30.6126 51.811 31.9482C51.811 35.0349 50.5753 37.9334 48.3332 40.1151C46.091 42.2969 43.1082 43.4994 39.9403 43.4994C36.7683 43.4994 33.7895 42.2969 31.5474 40.1151C29.3053 37.9334 28.0735 35.0349 28.0735 31.9482C28.0735 29.6686 28.7538 27.4633 30.0419 25.5714C30.7786 24.4903 31.6883 23.5464 32.7269 22.7708C32.7269 22.7708 33.9586 24.3415 33.9586 24.3454C34.1961 24.6744 34.7637 24.6627 34.977 24.3023C34.977 24.3023 39.9443 15.8573 39.9524 15.8378C40.1899 15.4382 39.8276 14.9329 39.3607 15.0074C39.3607 15.0074 29.4865 16.6055 29.4744 16.6055C29.0558 16.6721 28.8384 17.1813 29.0799 17.5181L30.0822 19.0693C28.5647 20.1699 27.2443 21.5252 26.1857 23.0802C24.3944 25.7124 23.4444 28.7755 23.4444 31.9443C23.4444 34.1105 23.8791 36.2138 24.7406 38.1958C25.5698 40.1073 26.7613 41.8269 28.2748 43.2997C29.7884 44.7724 31.5555 45.9318 33.5199 46.7387C35.5567 47.577 37.7183 48 39.9444 48C42.1704 48 44.332 47.577 46.3689 46.7387C48.3333 45.9318 50.1003 44.7724 51.614 43.2997C53.1275 41.8269 54.319 40.1073 55.1482 38.1958C56.0096 36.2138 56.4444 34.1105 56.4444 31.9443C56.4444 30.0955 56.1224 28.2781 55.4903 26.5507C54.8784 24.882 53.9888 23.3309 52.8456 21.9404Z" fill="white"/>
<defs>
<filter id="filter0_d_1_151" x="0" y="0" width="80" height="80" filterUnits="userSpaceOnUse" color-interpolation-filters="sRGB">
<feFlood flood-opacity="0" result="BackgroundImageFix"/>
<feColorMatrix in="SourceAlpha" type="matrix" values="0 0 0 0 0 0 0 0 0 0 0 0 0 0 0 0 0 0 127 0" result="hardAlpha"/>
<feOffset dy="8"/>
<feGaussianBlur stdDeviation="7.5"/>
<feComposite in2="hardAlpha" operator="out"/>
<feColorMatrix type="matrix" values="0 0 0 0 0.807843 0 0 0 0 0.215686 0 0 0 0 0.152941 0 0 0 0.2 0"/>
<feBlend mode="normal" in2="BackgroundImageFix" result="effect1_dropShadow_1_151"/>
<feBlend mode="normal" in="SourceGraphic" in2="effect1_dropShadow_1_151" result="shape"/>
</filter>
</defs>
</svg>
