<svg width="80" height="80" viewBox="0 0 80 80" fill="none" xmlns="http://www.w3.org/2000/svg">
<g filter="url(#filter0_d_1_171)">
<circle cx="40" cy="32" r="25" fill="#CE3727"/>
</g>
<path d="M39.4946 21.6863C39.5013 21.6863 39.5081 21.6863 39.5081 21.6863C42.2311 21.6593 41.8334 18.0196 41.8334 18.0196C41.7256 15.5864 39.6968 15.6066 39.4946 15.6134C39.2924 15.6066 37.2636 15.5864 37.149 18.0129C37.149 18.0129 36.7513 21.6526 39.4811 21.6796C39.4811 21.6863 39.4879 21.6863 39.4946 21.6863Z" fill="white"/>
<path d="M39.4946 26.2089L41.2538 23.7825C41.2538 23.7825 42.494 24.2812 43.505 25.0294C43.7679 25.2249 43.8892 25.3395 44.1251 25.5754C44.6845 26.1348 44.4486 29.3768 44.1251 30.5631C43.8016 31.7494 42.8512 33.4547 42.8512 33.4547C42.6625 33.886 42.5412 34.3511 42.494 34.8162L41.2807 46.7126C41.2403 47.0901 40.9235 47.3799 40.5461 47.3799H39.4946H38.4431C38.0657 47.3799 37.7421 47.0901 37.7084 46.7126L36.4952 34.8162C36.448 34.3444 36.3267 33.886 36.138 33.4547C36.138 33.4547 35.1876 31.7561 34.8641 30.5631C34.5405 29.3768 34.3046 26.1348 34.8641 25.5754C35.1 25.3395 35.2213 25.2249 35.4842 25.0294C36.4952 24.288 37.7354 23.7825 37.7354 23.7825L39.4946 26.2089Z" fill="white"/>
<path d="M25.812 31.7696C26.1153 32.875 26.9241 34.3646 27.0455 34.5938C27.1937 34.9375 27.2881 35.2947 27.3218 35.6655L28.4609 46.8272C28.5283 47.4945 29.0877 48 29.7618 48H31.7299C32.4039 48 32.9634 47.4945 33.0308 46.8272L34.1698 35.6655C34.2103 35.288 34.3046 34.9173 34.4597 34.5735C34.5945 34.2635 34.4529 33.9063 34.1496 33.7715C33.8396 33.6367 33.4823 33.7782 33.3475 34.0815C33.1453 34.5466 33.0105 35.0386 32.9634 35.5441L31.8243 46.7059C31.8175 46.7463 31.7838 46.78 31.7434 46.78H29.7752C29.7348 46.78 29.6944 46.7463 29.6944 46.7059L28.5418 35.5374C28.4879 35.0319 28.3598 34.5398 28.1576 34.0748C28.1509 34.0545 28.1441 34.0411 28.1306 34.0208C28.1239 34.0074 27.2746 32.4773 26.9915 31.4461C26.6815 30.2935 26.5939 27.7862 26.85 27.3413C27.0522 27.1391 27.1398 27.0582 27.3488 26.9032C27.8812 26.5123 28.4946 26.1955 28.8923 26.0068L30.2538 27.8805C30.3684 28.0356 30.5504 28.1299 30.7458 28.1299C30.9413 28.1299 31.1233 28.0356 31.2379 27.8805L32.8892 25.6091C33.0847 25.3395 33.024 24.9553 32.7544 24.7531C32.4848 24.5576 32.1006 24.6183 31.8984 24.8879L30.7391 26.4786L29.5933 24.8946C29.4315 24.6655 29.1282 24.5846 28.8721 24.6857C28.8249 24.7059 27.6251 25.1912 26.6276 25.9259C26.3445 26.1348 26.2097 26.2629 25.9738 26.4988C25.111 27.3615 25.5896 30.9473 25.812 31.7696Z" fill="white"/>
<path d="M30.6919 23.8903C30.7054 23.8903 30.7189 23.8903 30.7323 23.8903C30.7391 23.8903 30.7526 23.8903 30.7593 23.8903C30.7728 23.8903 30.7863 23.8903 30.8065 23.8903C31.5883 23.8701 32.2489 23.587 32.7207 23.0545C33.725 21.9222 33.5834 20.0349 33.5565 19.799C33.4554 17.7163 32.0062 16.9816 30.7997 16.9816C30.7795 16.9816 30.7593 16.9816 30.7458 16.9816C30.7323 16.9816 30.7121 16.9816 30.6919 16.9816C29.4854 16.9816 28.043 17.723 27.9352 19.799C27.9149 20.0349 27.7667 21.9222 28.7709 23.0545C29.2495 23.587 29.91 23.8768 30.6919 23.8903ZM29.1551 19.9069C29.1551 19.8934 29.1551 19.8799 29.1551 19.8664C29.2225 18.4105 30.1459 18.1949 30.6919 18.1949H30.7189C30.7323 18.1949 30.7526 18.1949 30.766 18.1949H30.793C31.339 18.1949 32.2624 18.4105 32.3298 19.8664C32.3298 19.8799 32.3298 19.8934 32.3298 19.9001C32.3769 20.3315 32.3635 21.5919 31.7906 22.239C31.5412 22.5221 31.1974 22.6636 30.7458 22.6636C30.7391 22.6636 30.7391 22.6636 30.7323 22.6636C30.2807 22.6569 29.937 22.5221 29.6876 22.239C29.1214 21.5987 29.1147 20.3382 29.1551 19.9069Z" fill="white"/>
<path d="M44.8463 33.7647C44.5363 33.8995 44.3947 34.2635 44.5363 34.5668C44.6913 34.9173 44.7857 35.2812 44.8261 35.6587L45.9652 46.8205C46.0326 47.4877 46.592 47.9933 47.266 47.9933H49.2342C49.9082 47.9933 50.4676 47.4877 50.535 46.8205L51.6741 35.6587C51.7146 35.288 51.8022 34.9308 51.9505 34.587C52.0718 34.3646 52.8874 32.875 53.1839 31.7629C53.4064 30.9406 53.8917 27.3548 53.0289 26.492C52.793 26.2561 52.6582 26.1281 52.3751 25.9191C51.3776 25.1844 50.1846 24.6991 50.1306 24.6789C49.8678 24.5711 49.5712 24.6587 49.4094 24.8879L48.2501 26.4785L47.0841 24.8946C46.8886 24.6183 46.5044 24.5643 46.2281 24.7598C45.9584 24.9553 45.8978 25.3395 46.0933 25.6158L47.7446 27.8872C47.8592 28.0423 48.0412 28.1366 48.2366 28.1366C48.4321 28.1366 48.6141 28.0423 48.7287 27.8872L50.0902 26.0135C50.4879 26.2022 51.1012 26.519 51.6337 26.9099C51.8359 27.0582 51.9235 27.1458 52.1325 27.348C52.3886 27.7929 52.301 30.3002 51.9909 31.4528C51.7078 32.4841 50.8586 34.0141 50.8518 34.0276C50.8451 34.041 50.8316 34.0613 50.8249 34.0815C50.6227 34.5466 50.4879 35.0386 50.4407 35.5441L49.3016 46.7059C49.2948 46.7463 49.2611 46.78 49.2207 46.78H47.2526C47.2121 46.78 47.1717 46.7463 47.1717 46.7059L46.0326 35.5441C45.9787 35.0386 45.8506 34.5466 45.6484 34.0815C45.5136 33.7647 45.1564 33.6299 44.8463 33.7647Z" fill="white"/>
<path d="M48.1827 23.8903C48.1962 23.8903 48.2097 23.8903 48.2299 23.8903C48.2366 23.8903 48.2501 23.8903 48.2569 23.8903C48.2703 23.8903 48.2838 23.8903 48.2973 23.8903C49.0792 23.8768 49.7397 23.587 50.2183 23.0545C51.2225 21.9222 51.081 20.0349 51.054 19.799C50.9529 17.7163 49.5105 16.9816 48.2973 16.9816C48.2771 16.9816 48.2569 16.9816 48.2434 16.9816C48.2299 16.9816 48.2097 16.9816 48.1895 16.9816C46.983 16.9816 45.5406 17.723 45.4327 19.799C45.4125 20.0349 45.2642 21.9222 46.2685 23.0545C46.7403 23.587 47.4009 23.8701 48.1827 23.8903ZM46.646 19.9069C46.646 19.8934 46.646 19.8799 46.646 19.8664C46.7134 18.4105 47.6368 18.1949 48.1827 18.1949H48.2097C48.2232 18.1949 48.2434 18.1949 48.2569 18.1949H48.2838C48.8298 18.1949 49.7532 18.4105 49.8206 19.8664C49.8206 19.8799 49.8206 19.8934 49.8206 19.9001C49.8678 20.3315 49.8543 21.5919 49.2814 22.239C49.032 22.5221 48.6882 22.6569 48.2366 22.6636C48.2299 22.6636 48.2299 22.6636 48.2232 22.6636C47.7716 22.6569 47.4278 22.5221 47.1784 22.239C46.6123 21.5987 46.6055 20.3382 46.646 19.9069Z" fill="white"/>
<path d="M34.4327 25.144C33.5228 26.0539 34.035 29.8487 34.2777 30.7249C34.6012 31.9044 35.464 33.4951 35.592 33.7243C35.7538 34.095 35.8549 34.4792 35.8953 34.8768L37.1086 46.7733C37.176 47.4675 37.7556 47.9865 38.4566 47.9865H40.5528C41.2471 47.9865 41.8267 47.4608 41.9009 46.7733L43.1141 34.8768C43.1545 34.4792 43.2556 34.0882 43.4174 33.7243C43.5455 33.4884 44.4082 31.9044 44.7317 30.7249C44.9676 29.8487 45.4866 26.0539 44.5767 25.144C44.3273 24.8946 44.1858 24.7598 43.8892 24.5374C42.831 23.7555 41.5571 23.2433 41.5032 23.2163C41.2403 23.1085 40.9437 23.1961 40.782 23.4252L39.4946 25.171L38.2274 23.4252C38.0657 23.1961 37.7624 23.1152 37.5062 23.2163C37.4523 23.2365 36.1852 23.7555 35.1202 24.5374C34.8236 24.7598 34.6754 24.8946 34.4327 25.144ZM35.3089 25.9933C35.5314 25.7708 35.6257 25.6832 35.8482 25.5214C36.4278 25.0901 37.1018 24.7463 37.5332 24.5441L39.0026 26.5662C39.1172 26.7212 39.2991 26.8156 39.4946 26.8156C39.6901 26.8156 39.8721 26.7212 39.9866 26.5662L41.456 24.5441C41.8806 24.7463 42.5547 25.0901 43.141 25.5214C43.3635 25.6832 43.4578 25.7708 43.6803 25.9933C43.9634 26.4516 43.8757 29.1544 43.532 30.4013C43.2287 31.5067 42.3255 33.1379 42.312 33.1513C42.3053 33.1648 42.2918 33.185 42.285 33.2053C42.0694 33.6973 41.9278 34.2163 41.8739 34.7555L40.6607 46.652C40.6539 46.7194 40.6 46.7665 40.5326 46.7665H38.4364C38.369 46.7665 38.3151 46.7194 38.3083 46.652L37.0951 34.7555C37.0412 34.223 36.9064 33.6973 36.6839 33.2053C36.6772 33.185 36.6705 33.1716 36.657 33.1513C36.6502 33.1379 35.7403 31.5 35.437 30.3946C35.1135 29.1544 35.0259 26.4516 35.3089 25.9933Z" fill="white"/>
<path d="M39.4339 22.2929C39.4474 22.2929 39.4676 22.2929 39.4811 22.2929C39.4879 22.2929 39.5081 22.2929 39.5148 22.2929C39.5283 22.2929 39.5418 22.2929 39.5553 22.2929C40.391 22.2794 41.0651 21.9828 41.5706 21.4099C42.6355 20.2169 42.4738 18.2083 42.4535 17.9657C42.3457 15.7751 40.8292 15 39.5553 15C39.535 15 39.5148 15 39.4946 15C39.4811 15 39.4609 15 39.4339 15C38.1668 15 36.6435 15.7751 36.5356 17.9657C36.5154 18.2083 36.3537 20.2102 37.4186 21.4032C37.9241 21.9761 38.6049 22.2727 39.4339 22.2929ZM37.7556 18.0803C37.7556 18.0668 37.7556 18.0533 37.7556 18.0398C37.8298 16.3952 38.9554 16.22 39.4339 16.22H39.4676C39.4811 16.22 39.5013 16.22 39.5148 16.22H39.5485C40.0271 16.22 41.1527 16.3952 41.2268 18.0398C41.2268 18.0533 41.2268 18.0668 41.2268 18.0735C41.274 18.5386 41.2673 19.9001 40.6472 20.5944C40.3708 20.9044 39.9934 21.0594 39.5013 21.0594C39.4946 21.0594 39.4879 21.0594 39.4811 21.0594C38.9891 21.0527 38.6116 20.9044 38.3353 20.5944C37.7152 19.9069 37.7084 18.5453 37.7556 18.0803Z" fill="white"/>
<defs>
<filter id="filter0_d_1_171" x="0" y="0" width="80" height="80" filterUnits="userSpaceOnUse" color-interpolation-filters="sRGB">
<feFlood flood-opacity="0" result="BackgroundImageFix"/>
<feColorMatrix in="SourceAlpha" type="matrix" values="0 0 0 0 0 0 0 0 0 0 0 0 0 0 0 0 0 0 127 0" result="hardAlpha"/>
<feOffset dy="8"/>
<feGaussianBlur stdDeviation="7.5"/>
<feComposite in2="hardAlpha" operator="out"/>
<feColorMatrix type="matrix" values="0 0 0 0 0.807843 0 0 0 0 0.215686 0 0 0 0 0.152941 0 0 0 0.2 0"/>
<feBlend mode="normal" in2="BackgroundImageFix" result="effect1_dropShadow_1_171"/>
<feBlend mode="normal" in="SourceGraphic" in2="effect1_dropShadow_1_171" result="shape"/>
</filter>
</defs>
</svg>
