<svg width="80" height="80" viewBox="0 0 80 80" fill="none" xmlns="http://www.w3.org/2000/svg">
<g filter="url(#filter0_d_1_400)">
<circle cx="40" cy="32" r="25" fill="#CE3727"/>
</g>
<path d="M36.7669 29.4891C35.7112 29.4901 34.6788 29.178 33.8005 28.5922C32.9223 28.0064 32.2374 27.1733 31.8327 26.1982C31.428 25.2232 31.3216 24.15 31.5269 23.1144C31.7323 22.0789 32.2401 21.1275 32.9863 20.3806C33.7324 19.6337 34.6833 19.1249 35.7187 18.9186C36.754 18.7123 37.8273 18.8176 38.8028 19.2214C39.7783 19.6252 40.612 20.3092 41.1987 21.1869C41.7853 22.0647 42.0984 23.0967 42.0984 24.1524C42.0971 25.5665 41.5351 26.9223 40.5357 27.9227C39.5362 28.9231 38.1809 29.4864 36.7669 29.4891ZM36.7669 20.8833C36.1189 20.8823 35.4851 21.0736 34.9459 21.433C34.4066 21.7924 33.9862 22.3037 33.7377 22.9022C33.4893 23.5007 33.424 24.1594 33.5502 24.795C33.6763 25.4307 33.9883 26.0145 34.4465 26.4728C34.9047 26.931 35.4886 27.2429 36.1242 27.3691C36.7598 27.4953 37.4186 27.43 38.0171 27.1815C38.6156 26.9331 39.1269 26.5126 39.4863 25.9734C39.8457 25.4342 40.037 24.8004 40.0359 24.1524C40.0346 23.2858 39.6897 22.4551 39.0769 21.8423C38.4642 21.2295 37.6335 20.8847 36.7669 20.8833Z" fill="#F3F3F3"/>
<path d="M36.7669 44.1792C33.736 44.1882 30.7786 43.2469 28.3106 41.4877C28.1908 41.4024 28.0907 41.2925 28.0169 41.1653C27.9431 41.0381 27.8973 40.8966 27.8827 40.7503C27.8827 40.6059 27.8827 40.4719 27.8827 40.3275C27.8541 39.1411 28.0631 37.961 28.4974 36.8565C28.9317 35.7521 29.5825 34.7457 30.4115 33.8965C31.2405 33.0473 32.2309 32.3725 33.3246 31.9117C34.4182 31.451 35.593 31.2136 36.7798 31.2136C37.9665 31.2136 39.1413 31.451 40.2349 31.9117C41.3286 32.3725 42.3191 33.0473 43.1481 33.8965C43.9771 34.7457 44.6279 35.7521 45.0621 36.8565C45.4964 37.961 45.7054 39.1411 45.6769 40.3275C45.6846 40.4666 45.6846 40.6061 45.6769 40.7452C45.6629 40.8924 45.6175 41.0349 45.5437 41.163C45.4698 41.2911 45.3693 41.4018 45.2489 41.4877C44.8983 41.7352 44.5322 41.9724 44.1661 42.1889C44.049 42.2696 43.9165 42.3252 43.7769 42.3523C43.6373 42.3793 43.4936 42.3772 43.3548 42.346C43.2161 42.3148 43.0852 42.2553 42.9706 42.1712C42.856 42.087 42.76 41.9801 42.6886 41.857C42.6173 41.734 42.5722 41.5976 42.5562 41.4563C42.5401 41.315 42.5535 41.1719 42.5954 41.036C42.6373 40.9001 42.7068 40.7743 42.7997 40.6666C42.8925 40.5589 43.0066 40.4715 43.1348 40.41C43.305 40.3069 43.4752 40.2038 43.6505 40.0955C43.6016 38.3167 42.8606 36.6271 41.5852 35.3863C40.3097 34.1454 38.6005 33.4511 36.821 33.4511C35.0415 33.4511 33.3323 34.1454 32.0569 35.3863C30.7814 36.6271 30.0404 38.3167 29.9916 40.0955C32.0232 41.4208 34.3979 42.1234 36.8236 42.1167C37.4569 42.1171 38.0895 42.0706 38.7159 41.9775C38.9894 41.9358 39.2683 42.0045 39.4912 42.1684C39.7141 42.3323 39.8627 42.578 39.9045 42.8515C39.9462 43.125 39.8775 43.4039 39.7136 43.6268C39.5497 43.8497 39.304 43.9983 39.0305 44.04C38.2808 44.146 37.5239 44.1926 36.7669 44.1792Z" fill="#F3F3F3"/>
<path d="M48.6727 30.7472C48.3991 30.7472 48.1368 30.6386 47.9435 30.4452C47.7501 30.2518 47.6414 29.9895 47.6414 29.716V22.8582C47.6414 22.5846 47.7501 22.3223 47.9435 22.129C48.1368 21.9356 48.3991 21.8269 48.6727 21.8269C48.9462 21.8269 49.2085 21.9356 49.4019 22.129C49.5953 22.3223 49.7039 22.5846 49.7039 22.8582V29.716C49.7039 29.9895 49.5953 30.2518 49.4019 30.4452C49.2085 30.6386 48.9462 30.7472 48.6727 30.7472Z" fill="#F3F3F3"/>
<path d="M52.1016 27.3182H45.2438C44.9702 27.3182 44.7079 27.2096 44.5145 27.0162C44.3211 26.8228 44.2125 26.5605 44.2125 26.287C44.2125 26.0135 44.3211 25.7512 44.5145 25.5578C44.7079 25.3644 44.9702 25.2557 45.2438 25.2557H52.1016C52.3751 25.2557 52.6374 25.3644 52.8308 25.5578C53.0242 25.7512 53.1328 26.0135 53.1328 26.287C53.1328 26.5605 53.0242 26.8228 52.8308 27.0162C52.6374 27.2096 52.3751 27.3182 52.1016 27.3182Z" fill="#F3F3F3"/>
<defs>
<filter id="filter0_d_1_400" x="0" y="0" width="80" height="80" filterUnits="userSpaceOnUse" color-interpolation-filters="sRGB">
<feFlood flood-opacity="0" result="BackgroundImageFix"/>
<feColorMatrix in="SourceAlpha" type="matrix" values="0 0 0 0 0 0 0 0 0 0 0 0 0 0 0 0 0 0 127 0" result="hardAlpha"/>
<feOffset dy="8"/>
<feGaussianBlur stdDeviation="7.5"/>
<feComposite in2="hardAlpha" operator="out"/>
<feColorMatrix type="matrix" values="0 0 0 0 0.807843 0 0 0 0 0.215686 0 0 0 0 0.152941 0 0 0 0.2 0"/>
<feBlend mode="normal" in2="BackgroundImageFix" result="effect1_dropShadow_1_400"/>
<feBlend mode="normal" in="SourceGraphic" in2="effect1_dropShadow_1_400" result="shape"/>
</filter>
</defs>
</svg>
