<svg width="110" height="111" viewBox="0 0 110 111" fill="none" xmlns="http://www.w3.org/2000/svg">
<path d="M5.10739 50.0731C4.44792 50.2761 3.74567 50.3047 3.07137 50.156C2.39707 50.0073 1.77455 49.6866 1.26651 49.2263C0.758466 48.7659 0.382854 48.182 0.177503 47.5335C-0.0278482 46.885 -0.0556844 46.1948 0.0968002 45.5324C2.3847 36.178 11.0843 13.3018 42.7775 3.68008C56.5058 -0.487711 69.6714 -0.558861 81.8925 3.46703C91.9463 6.76532 98.6206 11.9267 101.813 14.4214C102.624 15.0521 103.147 15.9736 103.267 16.9833C103.387 17.993 103.094 19.0081 102.452 19.8053C102.444 19.8151 102.436 19.825 102.428 19.8348C101.769 20.6344 100.817 21.1476 99.7763 21.2636C98.7359 21.3797 97.6908 21.0894 96.8662 20.4552C91.0819 15.9762 73.5289 2.36902 45.0801 11.0058C17.3017 19.439 9.75597 39.1649 7.7988 47.2354C7.65018 47.9021 7.32194 48.5172 6.84845 49.0164C6.37496 49.5156 5.77363 49.8806 5.1074 50.0731L5.10739 50.0731Z" fill="url(#paint0_linear_190_86)"/>
<path d="M91.4901 103.057C91.1753 103.157 90.8488 103.217 90.5185 103.236C65.7589 104.547 50.0058 84.3312 49.359 83.4884L49.2391 83.2939C48.8443 82.6921 39.3125 68.4394 43.5087 57.1201C45.4362 51.9452 49.6989 48.313 56.2145 46.3349C62.2742 44.4952 67.2329 45.0393 71.4535 48.0013C74.9143 50.4146 77.1322 54.0134 79.2819 57.4886C83.7529 64.7045 86.4929 68.3757 94.9911 66.2576C98.7225 65.3269 100.465 62.4598 101.261 60.2264C103.404 54.149 101.504 45.8637 96.4796 39.5954C89.9876 31.4632 71.8198 17.956 49.404 24.7612C39.8317 27.6673 31.9978 33.394 26.7516 41.2795C22.4055 47.8237 19.879 55.9516 19.8236 63.5313C19.7364 77.6444 31.5056 96.2116 31.6172 96.3798C31.8882 96.8058 32.0711 97.28 32.1556 97.7755C32.2401 98.271 32.2245 98.778 32.1096 99.2675C31.9947 99.757 31.7829 100.22 31.4861 100.629C31.1894 101.038 30.8136 101.385 30.3801 101.652C30.3681 101.659 30.3561 101.666 30.3439 101.674C29.4559 102.218 28.3856 102.397 27.3643 102.172C26.343 101.948 25.4525 101.337 24.8853 100.473C24.354 99.624 11.7871 79.8268 11.8883 63.5156C12.0292 45.8356 22.9613 24.7353 47.0931 17.4091C58.2474 14.0228 69.9694 14.5919 81.0005 19.0368C89.5504 22.503 97.4633 28.241 102.695 34.793C109.377 43.1561 111.731 54.1033 108.689 62.6475C106.661 68.3435 102.463 72.2738 96.8833 73.679C82.3414 77.3144 76.6448 68.1614 72.4901 61.4845C68.2238 54.6395 65.8639 51.4302 58.4903 53.6687C54.4415 54.8979 51.9472 56.8675 50.8981 59.6973C49.4706 63.5658 50.8235 68.5241 52.2098 72.0002C52.2242 72.0365 52.2386 72.0728 52.253 72.109C54.0303 76.5271 56.8039 80.4917 60.3652 83.7044C66.07 88.8819 76.6608 96.2631 90.1591 95.5514C91.191 95.4884 92.2062 95.8308 92.9812 96.5034C93.7562 97.176 94.2276 98.1236 94.2917 99.1377C94.2925 99.15 94.2932 99.1622 94.2938 99.1745C94.3255 100.034 94.0681 100.881 93.5613 101.582C93.0545 102.284 92.3266 102.802 91.4901 103.057L91.4901 103.057Z" fill="url(#paint1_linear_190_86)"/>
<path d="M61.4659 110.324C60.9498 110.481 60.4066 110.534 59.8693 110.479C59.332 110.424 58.8116 110.262 58.3397 110.003C46.1278 103.204 37.555 94.0578 31.3817 81.2391L31.3568 81.16C27.4662 72.6133 25.1241 59.5553 30.2903 48.5188C34.1044 40.3753 41.2636 34.6513 51.533 31.5336C63.6794 27.8461 74.9891 30.561 84.2713 39.3472C88.4927 43.4023 91.9256 48.1806 94.4013 53.4472C94.7959 54.3947 94.7952 55.4569 94.3992 56.4039C94.0032 57.3509 93.2437 58.1066 92.2852 58.5077C91.3266 58.9087 90.2459 58.9227 89.2769 58.5468C88.3079 58.1709 87.5284 57.4351 87.107 56.4987C85.0109 52.1032 82.1166 48.1202 78.5663 44.7452C71.4116 38.0554 63.0944 36.0773 53.8171 38.8938C45.8 41.3277 40.2794 45.6305 37.4534 51.6844C33.378 60.3979 35.4763 71.2785 38.521 77.9748C43.9643 89.312 51.5146 97.3538 62.2626 103.328C62.7066 103.574 63.0969 103.904 63.4113 104.298C63.7257 104.692 63.9579 105.144 64.0948 105.626C64.2317 106.109 64.2706 106.613 64.2091 107.11C64.1477 107.608 63.9872 108.088 63.7368 108.525C63.7269 108.542 63.7168 108.559 63.7066 108.576C63.206 109.412 62.4074 110.035 61.4659 110.324Z" fill="url(#paint2_linear_190_86)"/>
<path d="M62.7516 72.0034C65.5414 72.0034 67.803 69.7808 67.803 67.039C67.803 64.2972 65.5414 62.0746 62.7516 62.0746C59.9618 62.0746 57.7002 64.2972 57.7002 67.039C57.7002 69.7808 59.9618 72.0034 62.7516 72.0034Z" fill="url(#paint3_linear_190_86)"/>
<defs>
<linearGradient id="paint0_linear_190_86" x1="-29.8914" y1="9.38199" x2="34.2472" y2="112.861" gradientUnits="userSpaceOnUse">
<stop offset="0.0176011" stop-color="#EF3421"/>
<stop offset="0.369792" stop-color="#EF3421"/>
<stop offset="0.692708" stop-color="#F58B34"/>
<stop offset="0.9999" stop-color="#0078C2"/>
<stop offset="1" stop-color="#0078C2"/>
</linearGradient>
<linearGradient id="paint1_linear_190_86" x1="-10.3265" y1="3.59681" x2="92.4039" y2="106.878" gradientUnits="userSpaceOnUse">
<stop offset="0.369792" stop-color="#EF3421"/>
<stop offset="0.692708" stop-color="#F58B34"/>
<stop offset="0.9999" stop-color="#0078C2"/>
<stop offset="1" stop-color="#0078C2"/>
</linearGradient>
<linearGradient id="paint2_linear_190_86" x1="29" y1="38" x2="99.7208" y2="91.0232" gradientUnits="userSpaceOnUse">
<stop stop-color="#EF3421"/>
<stop offset="0.692708" stop-color="#F58B34"/>
<stop offset="0.9999" stop-color="#0078C2"/>
<stop offset="1" stop-color="#0078C2"/>
</linearGradient>
<linearGradient id="paint3_linear_190_86" x1="22.3759" y1="29.5372" x2="82.1739" y2="87.9617" gradientUnits="userSpaceOnUse">
<stop offset="0.369792" stop-color="#EF3421"/>
<stop offset="0.692708" stop-color="#F58B34"/>
<stop offset="0.9999" stop-color="#0078C2"/>
<stop offset="1" stop-color="#0078C2"/>
</linearGradient>
</defs>
</svg>
