<svg width="579" height="430" viewBox="0 0 579 430" fill="none" xmlns="http://www.w3.org/2000/svg">
<g clip-path="url(#clip0_1_92)">
<path d="M468.577 273.607C469.095 273.657 469.614 273.54 470.066 273.274C470.518 273.007 470.879 272.603 471.102 272.116C471.324 271.629 471.397 271.084 471.311 270.552C471.224 270.021 470.982 269.531 470.617 269.147C470.565 268.881 470.527 268.69 470.475 268.424C470.501 268.368 470.526 268.312 470.552 268.256C471.132 267.002 472.057 265.954 473.21 265.243C474.363 264.532 475.693 264.189 477.033 264.259C478.373 264.329 479.663 264.808 480.742 265.635C481.82 266.462 482.639 267.601 483.094 268.909C484.916 274.129 487.298 279.384 487.698 284.829C487.874 287.236 487.645 289.656 487.023 291.982C492.331 281.322 495.365 269.603 495.92 257.621C496.056 254.614 496.03 251.602 495.841 248.598C495.685 246.135 495.424 243.685 495.059 241.247C493.065 228.019 488.071 215.47 480.488 204.631C476.689 202.239 473.689 198.698 471.893 194.485C471.241 192.971 470.805 191.367 470.597 189.722C471.034 189.803 471.479 189.862 471.917 189.913C472.054 189.927 472.198 189.942 472.334 189.956L472.386 189.961C472.868 190.007 473.353 189.907 473.782 189.674C474.21 189.441 474.565 189.084 474.803 188.647C475.041 188.21 475.152 187.711 475.122 187.21C475.093 186.71 474.924 186.228 474.637 185.824C474.458 185.573 474.279 185.322 474.1 185.071C473.828 184.684 473.549 184.303 473.278 183.916C473.246 183.879 473.216 183.84 473.189 183.799C472.876 183.358 472.564 182.923 472.251 182.482C472.9 181.538 473.751 180.761 474.737 180.214C478.15 178.358 482.672 179.975 484.932 183.206C487.199 186.436 487.457 190.828 486.446 194.679C485.475 197.95 483.974 201.026 482.007 203.776C482.176 204.024 482.353 204.264 482.523 204.512C485.62 209.06 488.279 213.911 490.462 218.997C490.127 213.401 491.079 207.803 493.239 202.663C495.409 197.881 499.25 193.95 502.659 189.889C506.755 185.012 514.587 187.604 514.98 194.057C514.984 194.119 514.987 194.182 514.991 194.244C514.5 194.501 514.018 194.775 513.546 195.067C512.953 195.437 512.481 195.985 512.194 196.638C511.906 197.291 511.815 198.019 511.933 198.727C512.052 199.434 512.373 200.088 512.856 200.603C513.339 201.117 513.961 201.469 514.64 201.611L514.71 201.626C514.459 203.404 514.078 205.16 513.571 206.878C512.109 211.672 509.706 216.102 506.514 219.89C503.322 223.677 499.41 226.74 495.022 228.887C494.734 229.023 494.454 229.159 494.166 229.288C496.265 236.505 497.45 243.975 497.69 251.509C497.818 255.953 497.598 260.4 497.034 264.808L497.063 264.652C498.207 259.776 500.939 255.458 504.8 252.428C510.53 247.996 518.405 246.643 524.529 243.153C525.18 242.763 525.926 242.574 526.678 242.608C527.43 242.643 528.157 242.899 528.773 243.348C529.389 243.796 529.868 244.418 530.155 245.139C530.441 245.86 530.522 246.652 530.389 247.419C530.378 247.474 530.368 247.529 530.357 247.583C529.452 247.915 528.569 248.305 527.711 248.75C527.22 249.007 526.739 249.281 526.267 249.573C525.673 249.944 525.202 250.491 524.914 251.144C524.626 251.797 524.535 252.525 524.654 253.233C524.772 253.94 525.094 254.594 525.577 255.109C526.06 255.624 526.681 255.975 527.361 256.117L527.43 256.132C527.48 256.142 527.523 256.152 527.573 256.161C525.888 259.841 523.605 263.192 520.822 266.068C517.389 269.546 513.306 272.261 508.823 274.047C504.341 275.832 499.554 276.65 494.756 276.45L494.749 276.449C493.183 282.25 491.04 287.866 488.355 293.207L468.245 292.237C468.183 292.002 468.129 291.76 468.075 291.525C469.931 291.736 471.804 291.711 473.655 291.45C472.248 289.481 470.842 287.497 469.435 285.528C469.403 285.491 469.374 285.452 469.346 285.411C468.633 284.404 467.912 283.403 467.199 282.396L467.199 282.395C467.292 279.416 467.755 276.463 468.576 273.607L468.577 273.607Z" fill="#F2F2F2"/>
<path d="M63.3894 93.4149C62.8758 93.4977 62.35 93.4148 61.8833 93.1776C61.4166 92.9404 61.0316 92.5602 60.7804 92.0886C60.5292 91.617 60.4239 91.0768 60.4789 90.5412C60.5338 90.0056 60.7464 89.5004 61.0877 89.0941C61.1238 88.8252 61.1496 88.6321 61.1857 88.3632C61.157 88.3088 61.1281 88.2545 61.0992 88.2002C60.4455 86.9859 59.4601 85.9989 58.2668 85.363C57.0736 84.7272 55.7256 84.4709 54.3922 84.6264C53.0588 84.7819 51.7995 85.3422 50.7724 86.2369C49.7453 87.1317 48.9963 88.321 48.6194 89.6554C47.1124 94.9817 45.0485 100.38 44.974 105.84C44.942 108.253 45.3144 110.654 46.0745 112.936C40.1406 102.636 36.4133 91.1339 35.1455 79.21C34.8304 76.2175 34.6769 73.2091 34.6859 70.1989C34.6954 67.7309 34.8096 65.2686 35.0283 62.8122C36.2301 49.482 40.4662 36.6373 47.3887 25.333C51.0374 22.7026 53.8204 18.9766 55.3625 14.6568C55.9224 13.1034 56.2623 11.4742 56.3717 9.81984C55.9404 9.92862 55.4996 10.0159 55.0651 10.0949C54.9296 10.1177 54.787 10.1413 54.6514 10.1641L54.6003 10.1723C54.1217 10.2489 53.632 10.1805 53.1901 9.97534C52.7482 9.77021 52.3729 9.43709 52.1095 9.01609C51.846 8.59509 51.7056 8.10414 51.7052 7.60237C51.7047 7.10061 51.8443 6.60941 52.107 6.18791C52.2706 5.92568 52.4344 5.66356 52.5983 5.40155C52.8462 4.99753 53.1021 4.60016 53.35 4.1962C53.3794 4.15716 53.4066 4.1164 53.4315 4.07413C53.7171 3.61324 54.0033 3.15982 54.2888 2.69892C53.5848 1.79809 52.6895 1.07794 51.6727 0.594623C48.1552 -1.03959 43.7389 0.864583 41.6755 4.23343C39.605 7.60303 39.6096 12.0024 40.8481 15.7813C42.0123 18.9843 43.6941 21.9587 45.8215 24.5769C45.6671 24.835 45.5047 25.0865 45.3504 25.3446C42.5307 30.0821 40.1658 35.0946 38.2897 40.3102C38.2906 34.704 37.0071 29.1777 34.5448 24.1858C32.0938 19.5512 28.0256 15.8738 24.3804 12.0391C20.002 7.43318 12.3394 10.5224 12.3318 16.9875C12.3318 17.0501 12.3319 17.1127 12.3321 17.1752C12.8373 17.3998 13.3343 17.6427 13.823 17.9038C14.4373 18.2357 14.9406 18.7522 15.2668 19.3857C15.593 20.0191 15.7269 20.7398 15.6511 21.4534C15.5753 22.1671 15.2932 22.8404 14.8417 23.385C14.3903 23.9297 13.7907 24.3204 13.1213 24.5058L13.0528 24.5248C13.4089 26.2834 13.8936 28.0114 14.5026 29.6939C16.248 34.3857 18.9099 38.6533 22.3215 42.2291C25.7331 45.8048 29.8208 48.6118 34.3283 50.4738C34.6237 50.5909 34.9119 50.7089 35.2065 50.8186C33.5418 58.1566 32.805 65.6878 33.0146 73.2227C33.1519 77.6666 33.6358 82.0916 34.4616 86.4547L34.4237 86.301C32.9914 81.5073 30.0065 77.3728 25.9731 74.5955C19.9897 70.5391 12.0489 69.692 5.72886 66.6017C5.05513 66.2538 4.29942 66.1127 3.55085 66.1951C2.80228 66.2776 2.09208 66.5802 1.50401 67.0671C0.915945 67.5541 0.474536 68.2052 0.231851 68.9436C-0.0108347 69.682 -0.044678 70.477 0.134316 71.2346C0.147999 71.2884 0.161824 71.3422 0.175782 71.396C1.09824 71.6693 2.00337 72.0018 2.88593 72.3916C3.39114 72.6163 3.8881 72.8592 4.37678 73.1202C4.99113 73.4522 5.49439 73.9687 5.8206 74.6021C6.14681 75.2355 6.28077 75.9563 6.20492 76.6699C6.12908 77.3836 5.84697 78.0568 5.39556 78.6015C4.94415 79.1461 4.34448 79.5368 3.67514 79.7223L3.60654 79.7413C3.55713 79.7544 3.51485 79.7667 3.46551 79.7798C5.36677 83.344 7.8459 86.5424 10.7943 89.235C14.4288 92.487 18.666 94.9355 23.2461 96.4304C27.8262 97.9252 32.6527 98.4349 37.4296 97.9283L37.4368 97.9274C39.3452 103.616 41.8189 109.084 44.8181 114.244L64.8315 111.988C64.8791 111.749 64.9186 111.504 64.959 111.266C63.1192 111.596 61.2474 111.691 59.3853 111.549C60.6721 109.493 61.9571 107.423 63.2438 105.368C63.2733 105.329 63.3005 105.288 63.3254 105.246C63.9772 104.195 64.6369 103.15 65.2886 102.099L65.2889 102.098C65.0181 99.131 64.3799 96.213 63.39 93.4153L63.3894 93.4149Z" fill="#F2F2F2"/>
<path d="M339.891 85.7296C340.881 86.012 341.8 86.516 342.582 87.2062C343.365 87.8964 343.991 88.7559 344.418 89.7242C344.846 90.6925 345.062 91.7461 345.054 92.8107C345.046 93.8753 344.812 94.925 344.37 95.8859L355.109 108.259L349.445 116.855L334.515 99.162C333.007 98.2851 331.861 96.8652 331.295 95.1714C330.729 93.4775 330.783 91.6275 331.445 89.9718C332.108 88.316 333.334 86.9697 334.89 86.1878C336.447 85.406 338.226 85.2429 339.891 85.7296Z" fill="#A0616A"/>
<path d="M440.434 116.111C439.466 114.478 438.196 113.059 436.698 111.936C435.199 110.813 433.501 110.007 431.702 109.565C429.902 109.123 428.036 109.054 426.21 109.361C424.385 109.668 422.636 110.345 421.063 111.354L385.743 134.022L347.643 100.463L338.164 109.608L380.253 166.195L434.957 136.644C433.681 137.334 441.977 118.713 440.434 116.111Z" fill="#CCCCCC"/>
<path d="M370.464 191.483C370.467 209.559 367.034 227.459 360.36 244.16C353.686 260.86 343.902 276.035 331.567 288.817C319.232 301.598 304.588 311.737 288.471 318.652C272.354 325.568 255.08 329.126 237.636 329.122C164.279 329.122 104.809 267.498 104.809 191.483C104.796 176.697 107.084 162.005 111.583 147.974C120.417 120.57 137.341 96.7371 159.961 79.8453C182.582 62.9535 209.754 53.8576 237.636 53.8439C261.683 53.8352 285.28 60.5933 305.91 73.3967C326.539 86.2001 343.426 104.568 354.768 126.54C357.58 131.961 360.033 137.574 362.11 143.34C362.398 144.143 362.678 144.946 362.951 145.756V145.764C364.169 149.327 365.242 152.957 366.169 156.653C369.029 168.025 370.473 179.731 370.464 191.483Z" fill="#2D2D2D"/>
<path d="M223.104 98.6195C217.135 95.2746 210.507 93.3864 203.727 93.099C196.946 92.8115 190.192 94.1324 183.979 96.9608C178.509 99.4278 172.749 103.853 170.924 111.845C178.304 107.331 187.858 114.463 189.758 125.903L189.314 126.03C188.311 133.954 190.551 142.581 194.886 147.494C195.455 142.391 198.694 138.917 201.879 136.747C205.064 134.577 208.588 133.001 211.019 129.272C213.902 124.85 214.634 118.388 215.779 112.493C216.924 106.598 219.096 100.262 223.104 98.6195Z" fill="white"/>
<path d="M181.79 166.05C179.746 169.231 177.015 171.227 174.566 173.712C172.123 176.205 169.798 179.569 169.311 183.89C169.002 186.658 169.481 189.472 169.415 192.271C169.348 195.069 168.448 198.22 166.611 198.916C163.711 200.001 161.497 194.419 158.516 194.029C156.147 193.723 154.014 197.585 154.7 200.934C155.387 204.283 158.612 205.767 160.464 203.58C162.139 206.493 160.958 211.777 158.442 212.672C158.176 214.507 157.911 216.335 157.652 218.17C151.291 213.559 144.864 208.871 139.455 202.119C133.439 194.674 129.708 185.535 128.74 175.876C128.039 168.115 129.08 159.237 125.641 153.265C122.888 148.486 118.166 147.431 113.915 147.729C113.14 147.783 112.358 147.874 111.583 147.974C114.09 140.172 117.274 132.622 121.095 125.416C121.96 125.032 122.764 124.513 123.479 123.879C127.434 120.4 129.19 113.357 132.4 108.487C132.607 108.173 132.821 107.867 133.042 107.569C136.326 103.126 140.724 100.84 144.975 98.7141C154.383 93.9809 164.065 89.1865 173.997 89.8441L171.171 90.127C167.873 99.7006 164.572 109.274 161.268 118.848C160.766 120.316 160.26 121.787 159.748 123.26C157.874 128.704 155.94 134.5 156.228 140.595C156.398 144.204 157.608 148.058 159.91 149.297C162.058 150.444 164.404 149.037 166.478 147.645C167.356 147.064 168.227 146.483 169.105 145.894C172.256 143.791 175.746 141.635 179.074 143.042C182.122 144.326 184.373 148.616 184.801 153.242C185.193 157.739 184.134 162.244 181.79 166.05Z" fill="white"/>
<path d="M200.53 231.411C191.327 225.54 182.125 219.669 172.922 213.797L173.078 213.38C167.356 215.638 164.981 226.178 165.927 234.797C166.872 243.416 170.078 251.12 171.698 259.518C173.882 271.011 173.058 282.9 169.311 293.95C181.412 279.88 192.121 264.589 201.278 248.305C202.557 246.253 203.532 244.013 204.17 241.661C204.754 239.158 204.664 236.15 203.494 234.143C202.74 232.992 201.722 232.053 200.53 231.411Z" fill="white"/>
<path d="M164.21 124.592C163.233 126.869 162.857 129.904 163.744 132.26C164.65 134.666 166.564 135.753 168.327 136.659L173.412 139.27C175.103 140.139 176.927 141.017 178.651 140.302C180.731 139.44 182.173 136.061 181.8 132.924C181.403 129.586 179.373 127.289 177.495 125.334C174.867 122.598 172.239 119.861 169.611 117.125L168.13 119.005C166.528 120.624 165.202 122.513 164.21 124.592Z" fill="white"/>
<path d="M343.204 160.277C345.492 160.835 347.78 161.393 350.067 161.952C349.669 169.958 345.839 177.367 340.703 180.051C338.563 181.168 336.179 181.581 334.408 183.668C332.807 185.564 331.995 188.516 331.25 191.338C329.944 196.262 328.638 201.187 327.332 206.111C325.93 211.418 324.129 217.313 320.484 219.225C317.355 220.869 313.776 218.858 311.37 215.486C308.965 212.114 307.496 207.579 306.072 203.159C306.16 207.977 303.998 212.702 300.936 214.377C297.866 216.051 294.132 214.537 292.081 210.798C290.605 208.114 289.992 204.574 288.546 201.852C287.1 199.13 284.067 197.57 282.488 200.124C281.447 201.821 281.58 204.421 281.063 206.577C280.259 209.927 277.824 212.029 275.411 212.213C273.005 212.396 270.659 210.959 268.644 209.009C264.49 204.972 261.427 198.564 260.239 191.445C259.715 188.271 259.568 184.815 260.475 181.84C261.383 178.866 263.575 176.572 265.751 177.138C267.183 174.003 264.357 169.843 261.811 170.21C259.258 170.577 257.258 173.414 255.162 175.593C253.074 177.773 250.152 179.355 248.049 177.191C248.063 179.202 246.484 180.533 245.119 180.365C243.761 180.204 242.551 179.073 241.304 178.27C236.485 175.157 230.368 177.222 226.944 183.11C229.084 173.674 232.22 162.846 238.795 160.629C241.481 159.719 244.411 160.468 246.949 158.893C251.443 156.102 252.351 145.557 248.469 141.206C248.964 145.32 248.868 150.122 246.772 152.936C244.676 155.75 240.278 153.915 240.544 149.755C239.939 152.623 236.928 153.059 235.541 150.856C234.146 148.654 234.264 145.053 235.253 142.422C236.242 139.792 237.924 137.903 239.555 136.091C243.06 132.199 246.617 128.261 250.676 125.814C254.742 123.367 259.435 122.541 263.508 124.973C265.656 126.257 267.545 128.398 269.736 129.53C271.928 130.669 274.71 130.524 276.164 127.863C277.795 124.896 277.027 120.492 277.632 116.783C278.717 110.23 285.041 107.164 288.546 111.492C285.926 110.796 283.218 114.007 282.894 117.899C282.561 121.792 284.458 125.722 286.996 126.9C291.262 128.857 295.438 123.933 298.663 119.375C302.028 114.604 305.398 109.835 308.773 105.068C309.312 104.257 309.916 103.495 310.581 102.79C311.638 101.722 313.047 101.111 314.522 101.08C315.998 101.048 317.43 101.6 318.528 102.622C321.937 105.504 323.539 111.415 326.336 115.483C330.394 121.394 336.467 122.832 342.12 123.979C346.333 124.827 350.549 125.681 354.768 126.54C357.58 131.961 360.033 137.574 362.11 143.34C354.967 146.483 348.377 152.363 343.204 160.277Z" fill="white"/>
<path d="M356.827 252.281C353.665 258.933 349.988 265.309 345.832 271.344C343.175 270.167 340.319 272.27 337.832 274.242C335.235 276.307 332.113 278.318 329.45 276.437C326.727 274.51 325.848 269.119 326.712 264.845C327.575 260.578 329.73 257.183 331.818 253.956C334.032 250.53 336.401 246.975 339.478 245.644C342.563 244.313 346.525 246.195 347.425 250.737L349.61 250.66C348.385 248.917 349.027 245.307 350.672 244.673C352.569 243.931 354.214 246.63 355.336 249.016C355.838 250.094 356.347 251.18 356.827 252.281Z" fill="white"/>
<path d="M273.171 219.983C268.476 220.289 264.757 214.299 262.286 208.408C259.814 202.516 257.56 195.778 253.323 192.779C250.903 191.065 248.143 190.83 245.518 190C242.892 189.169 240.144 187.451 238.889 183.952L235.911 182.705C231.977 184.997 227.992 187.33 224.603 191.06C220.802 195.244 218.435 200.607 217.866 206.323C217.297 212.501 219.397 219.389 223.323 221.709C226.425 223.543 230.036 222.387 233.178 224.065C237.103 226.163 239.434 232.255 240.316 238.27C241.198 244.285 240.974 250.536 241.605 256.62C242.237 262.703 243.976 269.033 247.576 272.151C252.081 276.052 258.691 272.81 260.712 265.709C261.704 262.225 261.669 258.295 262.411 254.679C263.717 248.311 267.24 243.586 270.035 238.363C272.83 233.139 275.03 226.045 273.171 219.983Z" fill="white"/>
<path d="M226.778 157.409C227.216 157.827 227.624 158.276 228 158.754C228.39 159.45 228.588 160.242 228.575 161.046C228.562 161.85 228.337 162.636 227.925 163.317C228.491 163.284 229.043 163.129 229.548 162.863C230.053 162.597 230.5 162.226 230.859 161.772C231.716 160.761 232.47 159.66 233.108 158.489C233.587 157.68 234.097 156.586 233.772 155.625C233.55 154.969 233.025 154.689 232.658 154.196C232.075 153.414 231.93 152.172 231.629 151.099C230.977 148.781 229.417 147.077 227.723 146.833L227.958 146.88C227.25 147.131 226.756 148.295 226.913 149.343C227.055 150.297 227.647 151.09 227.588 152.063C227.503 153.462 226.154 154.119 226.07 155.518C226.057 156.221 226.311 156.9 226.778 157.409Z" fill="white"/>
<path d="M218.734 133.628C218.741 133.626 218.748 133.626 218.755 133.624C218.899 133.487 219.033 133.34 219.155 133.182L218.734 133.628Z" fill="#E6E6E6"/>
<path d="M220.142 140.197C221.18 139.505 221.76 137.592 221.416 135.991C221.075 134.4 219.868 133.33 218.755 133.624C218.432 133.963 218.031 134.212 217.589 134.346C217.148 134.481 216.681 134.497 216.232 134.393C215.544 134.21 214.788 133.737 214.191 134.274C213.85 134.676 213.611 135.159 213.496 135.681C213.275 136.384 213.054 137.087 212.833 137.79C212.728 138.041 212.701 138.32 212.755 138.589C212.797 138.696 212.865 138.791 212.953 138.863C213.041 138.935 213.145 138.983 213.256 139.001C214.581 139.406 215.907 139.811 217.233 140.216C218.199 140.512 219.243 140.796 220.142 140.197Z" fill="white"/>
<path d="M320.236 230.885C319.623 229.845 319.01 228.805 318.397 227.766C317.795 226.561 316.972 225.491 315.974 224.613C315.755 224.423 315.501 224.28 315.227 224.192C314.954 224.105 314.666 224.075 314.381 224.105C314.097 224.135 313.821 224.223 313.569 224.365C313.318 224.506 313.096 224.699 312.918 224.93L312.992 225.524C314.389 227.341 315.867 229.358 316.222 232.054C316.362 233.116 316.313 234.216 316.435 235.283C316.558 236.35 316.906 237.457 317.571 237.917C318.536 238.585 319.669 237.6 320.356 236.398C320.97 235.411 321.246 234.239 321.138 233.069C320.985 232.285 320.678 231.541 320.236 230.885Z" fill="white"/>
<path d="M347.512 191.174C347.69 189.97 347.867 188.765 348.044 187.561C348.332 186.238 348.368 184.87 348.15 183.532C348.1 183.24 347.995 182.961 347.84 182.712C347.685 182.463 347.483 182.248 347.247 182.081C347.011 181.913 346.745 181.797 346.464 181.737C346.184 181.678 345.895 181.678 345.614 181.736L345.302 182.24C345.242 184.562 345.119 187.091 343.715 189.39C343.162 190.296 342.441 191.105 341.872 192.003C341.302 192.902 340.881 193.981 341.103 194.776C341.427 195.932 342.906 195.934 344.178 195.473C345.261 195.127 346.201 194.414 346.845 193.448C347.216 192.745 347.443 191.972 347.512 191.174Z" fill="#E6E6E6"/>
<path d="M329.85 232.238C330.15 231.346 329.717 230.322 329.626 229.335C329.582 228.061 329.908 226.802 330.562 225.722C331.211 224.703 331.703 223.585 332.02 222.409C332.154 221.873 332.129 221.308 331.95 220.787C331.747 220.315 331.256 220.099 330.974 220.473L331.577 220.876C330.763 220.725 329.926 220.767 329.129 220.999C328.675 221.179 328.269 221.47 327.946 221.847C327.623 222.224 327.393 222.677 327.274 223.166C327.175 223.928 327.012 224.681 326.788 225.414C326.428 226.18 325.731 226.435 325.294 227.108C324.995 227.704 324.845 228.368 324.855 229.04C324.866 229.712 325.038 230.37 325.355 230.956C325.905 231.914 326.779 232.626 327.807 232.953C328.543 233.227 329.513 233.242 329.85 232.238Z" fill="white"/>
<path d="M346.972 237.591C347.238 238.309 347.595 238.988 348.033 239.609C348.852 240.464 349.966 239.939 350.961 239.731C351.863 239.583 352.787 239.691 353.635 240.043C354.483 240.396 355.223 240.979 355.777 241.732C355.391 239.739 354.55 237.871 353.323 236.285C352.096 234.699 350.52 233.441 348.727 232.618C346.382 231.627 343.914 231.532 341.476 231.443L341.055 231.554C342.128 234.791 345.497 234.719 346.972 237.591Z" fill="white"/>
<path d="M274.455 244.211L274.461 244.225C274.502 244.144 274.543 244.062 274.584 243.981L274.455 244.211Z" fill="#E6E6E6"/>
<path d="M271.858 249.421C271.291 250.486 270.804 251.595 270.401 252.738C269.866 254.588 269.512 256.49 269.344 258.413C269.212 259.507 269.172 260.904 269.833 261.437C270.023 261.568 270.252 261.622 270.478 261.591C270.704 261.559 270.911 261.443 271.06 261.265C271.428 260.862 271.728 260.399 271.95 259.894C273.25 257.575 274.259 255.093 274.953 252.508C275.586 249.786 275.58 246.582 274.461 244.225C273.594 245.957 272.726 247.689 271.858 249.421Z" fill="white"/>
<path d="M246.8 110.622C247.213 111.04 247.734 111.324 248.301 111.439C248.867 111.553 249.453 111.493 249.987 111.267C251.093 110.766 252.107 110.072 252.986 109.214C253.713 108.657 254.33 107.959 254.804 107.16C255.064 106.682 255.231 106.155 255.295 105.611C255.359 105.066 255.318 104.513 255.175 103.985C254.765 102.74 253.723 102.323 252.804 102.041C251.332 101.588 249.86 101.136 248.388 100.684L249.453 99.6898C248.358 99.0806 247.146 100.211 246.461 101.611C246.022 102.525 245.716 103.501 245.553 104.508C245.187 106.704 245.545 109.32 246.8 110.622Z" fill="#E6E6E6"/>
<path d="M272.782 101.584C273.197 102.058 273.77 102.35 274.386 102.402C275.001 102.454 275.613 102.261 276.096 101.863C276.512 101.54 276.857 101.129 277.11 100.657C277.362 100.186 277.516 99.665 277.561 99.128C277.666 97.9284 277.093 96.5952 276.276 96.4916L276.463 95.3685C274.888 95.0738 272.95 95.0148 272.106 96.9964C271.822 97.7555 271.734 98.5787 271.853 99.3837C271.972 100.189 272.292 100.947 272.782 101.584Z" fill="#E6E6E6"/>
<path d="M269.312 41.86C260.08 40.7809 250.812 43.5463 243.548 49.5478C236.283 55.5493 231.617 64.2953 230.576 73.8617C228.407 93.7829 238.535 137.042 257.001 154.95C265.696 120.64 296.163 100.29 300.195 81.9993C304.502 62.4551 288.536 44.1072 269.312 41.86Z" fill="#CE3727"/>
<path d="M262.927 86.1469C269.236 86.1469 274.351 80.8467 274.351 74.3085C274.351 67.7704 269.236 62.4702 262.927 62.4702C256.617 62.4702 251.502 67.7704 251.502 74.3085C251.502 80.8467 256.617 86.1469 262.927 86.1469Z" fill="white"/>
<path d="M250.914 172.019C255.047 172.019 258.397 168.548 258.397 164.265C258.397 159.983 255.047 156.511 250.914 156.511C246.782 156.511 243.431 159.983 243.431 164.265C243.431 168.548 246.782 172.019 250.914 172.019Z" fill="#CE3727"/>
<path opacity="0.2" d="M272.379 65.827C273.665 66.6277 274.786 67.683 275.679 68.9327C276.571 70.1824 277.217 71.602 277.58 73.1105C277.943 74.6189 278.016 76.1866 277.794 77.7242C277.572 79.2617 277.06 80.7389 276.287 82.0714C275.515 83.404 274.496 84.5658 273.29 85.4905C272.084 86.4151 270.714 87.0846 269.259 87.4607C266.319 88.2202 263.208 87.7383 260.611 86.1212C263.259 86.7316 266.03 86.3456 268.428 85.0322C270.827 83.7188 272.696 81.5638 273.701 78.9529C274.706 76.342 274.782 73.4457 273.914 70.7823C273.047 68.1189 271.293 65.8623 268.967 64.4164C270.17 64.6927 271.323 65.1691 272.379 65.827Z" fill="#2D2D2D"/>
<path opacity="0.2" d="M300.239 82.0376C296.208 100.328 265.74 120.679 257.046 154.988C255.309 153.288 253.696 151.457 252.22 149.51C261.99 117.26 290.562 97.6638 294.457 79.9917C297.943 64.1749 288.15 49.1431 274.099 42.7932C291.108 47.2239 304.187 64.1271 300.239 82.0376Z" fill="#2D2D2D"/>
<path d="M162.252 88.0516C155.32 87.2412 148.36 89.3179 142.905 93.8248C137.449 98.3317 133.945 104.9 133.163 112.084C131.535 127.044 139.14 159.53 153.008 172.978C159.537 147.213 182.417 131.93 185.444 118.195C188.679 103.518 176.69 89.7391 162.252 88.0516Z" fill="#CE3727"/>
<path d="M157.458 121.309C162.196 121.309 166.037 117.329 166.037 112.419C166.037 107.509 162.196 103.529 157.458 103.529C152.719 103.529 148.878 107.509 148.878 112.419C148.878 117.329 152.719 121.309 157.458 121.309Z" fill="white"/>
<path d="M148.437 185.797C151.54 185.797 154.056 183.19 154.056 179.974C154.056 176.758 151.54 174.151 148.437 174.151C145.333 174.151 142.817 176.758 142.817 179.974C142.817 183.19 145.333 185.797 148.437 185.797Z" fill="#CE3727"/>
<path opacity="0.2" d="M164.556 106.05C165.522 106.651 166.364 107.444 167.034 108.382C167.704 109.321 168.189 110.387 168.462 111.52C168.734 112.652 168.789 113.83 168.622 114.984C168.456 116.139 168.071 117.248 167.491 118.249C166.911 119.25 166.146 120.122 165.24 120.817C164.335 121.511 163.306 122.014 162.213 122.296C161.119 122.578 159.983 122.635 158.869 122.462C157.755 122.29 156.684 121.892 155.719 121.29C157.707 121.749 159.788 121.459 161.589 120.472C163.39 119.486 164.794 117.868 165.549 115.907C166.304 113.946 166.36 111.771 165.709 109.771C165.058 107.771 163.741 106.076 161.994 104.991C162.897 105.198 163.763 105.556 164.556 106.05Z" fill="#2D2D2D"/>
<path opacity="0.2" d="M185.478 118.224C182.451 131.959 159.571 147.242 153.041 173.007C151.737 171.73 150.526 170.355 149.417 168.893C156.755 144.674 178.211 129.958 181.136 116.687C183.754 104.809 176.4 93.5209 165.847 88.7524C178.621 92.0797 188.443 104.773 185.478 118.224Z" fill="#2D2D2D"/>
<path d="M430.855 410.104H421.435L416.954 372.454L430.857 372.454L430.855 410.104Z" fill="#A0616A"/>
<path d="M435.923 428.638H429.238L428.045 422.099L424.99 428.638H407.262C406.412 428.638 405.584 428.357 404.9 427.835C404.215 427.313 403.71 426.578 403.457 425.737C403.204 424.897 403.217 423.994 403.494 423.162C403.771 422.329 404.298 421.611 404.997 421.11L419.154 410.979V404.368L434.045 405.289L435.923 428.638Z" fill="#2D2D2D"/>
<path d="M394.369 410.104H384.95L380.468 372.454L394.372 372.454L394.369 410.104Z" fill="#A0616A"/>
<path d="M399.437 428.638H392.753L391.56 422.099L388.504 428.638H370.776C369.926 428.638 369.099 428.357 368.414 427.835C367.73 427.313 367.224 426.578 366.971 425.737C366.718 424.897 366.731 423.994 367.009 423.162C367.286 422.329 367.812 421.611 368.512 421.11L382.669 410.979V404.368L397.559 405.289L399.437 428.638Z" fill="#2D2D2D"/>
<path d="M358.583 310.699C360.385 313.501 379.996 390.526 379.996 390.526L397.385 392.581L395.321 373.201L392.166 338.905L387.281 316.013C387.281 316.013 404.532 275.329 405.623 272.088L406.398 269.763L411.788 320.45C412.428 322.259 412.707 324.185 412.608 326.109C412.446 329.276 415.51 376.908 415.51 376.908L416.984 393.991L431.882 396.135L437.926 366.579C442.974 356.977 440.08 322.859 438.016 319.684C435.952 316.508 436.773 294.391 436.773 294.391C439.408 293.43 455.125 237.894 447.264 238.222C447.769 235.261 448.165 232.618 448.165 232.618L434.519 221.214L400.368 212.015L391.752 207.728C391.752 207.728 376.364 237.213 376.517 238.68C376.729 240.537 376.318 242.413 375.354 243.994L359.817 297.875C359.817 297.875 356.762 307.869 358.583 310.699Z" fill="#2D2D2D"/>
<path d="M444.382 117.892L438.949 105.939L420.457 106.675L414.426 119.11C414.426 119.11 397.188 140.444 396.63 147.381C395.929 156.106 401.761 198.867 395.929 196.095C395.929 196.095 382.18 212.817 390.316 212.817C398.451 212.817 435.251 236.755 437.665 239.447C440.08 242.139 450.859 243.885 449.956 238.265C449.052 232.645 444.382 202.25 444.382 202.25L457.024 154.458C460.663 144.14 461.795 132.566 453.57 125.635L444.382 117.892Z" fill="#CCCCCC"/>
<path d="M375.887 82.7108C373.414 81.6934 370.772 81.1908 368.111 81.2317C365.45 81.2726 362.823 81.8561 360.38 82.949C357.937 84.0419 355.725 85.6227 353.872 87.6013C352.018 89.5798 350.559 91.9173 349.577 94.4803C345.448 105.259 344.764 130.999 352.447 143.9C362.327 126.117 382.315 119.55 387.245 109.975C392.513 99.7427 386.289 86.9894 375.887 82.7108Z" fill="#CE3727"/>
<path d="M367.57 106.667C371.219 106.667 374.178 103.601 374.178 99.8188C374.178 96.0367 371.219 92.9707 367.57 92.9707C363.92 92.9707 360.961 96.0367 360.961 99.8188C360.961 103.601 363.92 106.667 367.57 106.667Z" fill="white"/>
<path d="M347.685 152.628C350.076 152.628 352.014 150.62 352.014 148.142C352.014 145.665 350.076 143.657 347.685 143.657C345.294 143.657 343.357 145.665 343.357 148.142C343.357 150.62 345.294 152.628 347.685 152.628Z" fill="#CE3727"/>
<path opacity="0.2" d="M374.089 96.5715C375.299 97.8831 375.958 99.6391 375.92 101.454C375.882 103.268 375.15 104.993 373.886 106.249C372.621 107.505 370.927 108.189 369.176 108.151C367.425 108.114 365.76 107.357 364.546 106.048C365.935 106.806 367.538 107.026 369.069 106.67C370.601 106.314 371.96 105.405 372.903 104.106C373.847 102.807 374.313 101.202 374.219 99.579C374.125 97.9559 373.477 96.4204 372.39 95.2473C373.022 95.5909 373.595 96.0381 374.089 96.5715Z" fill="#2D2D2D"/>
<path opacity="0.2" d="M387.265 110.003C382.335 119.578 362.347 126.145 352.467 143.929C351.747 142.706 351.114 141.43 350.576 140.111C360.754 123.647 379.573 117.203 384.337 107.951C388.6 99.6707 385.336 89.7396 378.423 83.9847C387.268 89.1337 392.092 100.626 387.265 110.003Z" fill="#2D2D2D"/>
<path d="M345.734 146.598C346.741 146.383 347.78 146.399 348.78 146.646C349.779 146.892 350.714 147.363 351.519 148.024C352.324 148.685 352.98 149.522 353.439 150.474C353.899 151.426 354.151 152.471 354.178 153.536L369.171 159.499L367.896 169.824L346.837 161.094C345.109 161.024 343.466 160.299 342.219 159.056C340.972 157.814 340.208 156.141 340.072 154.354C339.936 152.567 340.437 150.79 341.481 149.361C342.525 147.932 344.038 146.948 345.734 146.598L345.734 146.598Z" fill="#A0616A"/>
<path d="M450.494 125.321C448.916 124.322 447.162 123.656 445.335 123.361C443.507 123.066 441.642 123.148 439.845 123.602C438.048 124.056 436.355 124.873 434.864 126.006C433.372 127.139 432.111 128.567 431.153 130.206L409.633 167.031L360.976 155.08L356.543 167.69L418.853 198.275L450.411 146.19C455.136 139.31 457.45 129.721 450.494 125.321Z" fill="#CCCCCC"/>
<path d="M451.298 80.1901C451.299 83.7394 450.46 87.2347 448.853 90.3693C447.246 93.5038 444.921 96.1818 442.083 98.168C439.244 100.154 435.978 101.388 432.572 101.761C429.166 102.134 425.724 101.635 422.547 100.308C419.37 98.9804 416.557 96.8652 414.353 94.148C412.149 91.4308 410.623 88.1945 409.908 84.7234C409.194 81.2523 409.312 77.6524 410.253 74.2397C411.194 70.8271 412.93 67.7061 415.307 65.1506L415.407 65.0466C415.575 64.8644 415.742 64.6823 415.918 64.5088C415.919 64.5088 415.92 64.5086 415.921 64.5081C415.922 64.5077 415.923 64.5071 415.924 64.5063C415.924 64.5055 415.925 64.5045 415.925 64.5034C415.926 64.5024 415.926 64.5012 415.926 64.5001C416.144 64.2919 416.361 64.0838 416.587 63.8843C419.611 61.1374 423.335 59.3517 427.312 58.741C431.29 58.1303 435.353 58.7205 439.016 60.441C442.678 62.1615 445.785 64.9393 447.963 68.4418C450.141 71.9444 451.299 76.0232 451.298 80.1901V80.1901Z" fill="#2D2D2D"/>
<path d="M425.217 103.389C434.908 103.389 442.764 95.2488 442.764 85.207C442.764 75.1652 434.908 67.0247 425.217 67.0247C415.527 67.0247 407.671 75.1652 407.671 85.207C407.671 95.2488 415.527 103.389 425.217 103.389Z" fill="#9E616A"/>
<path d="M443.85 90.3923L440.943 89.8601C439.319 89.5542 437.823 88.7416 436.656 87.531C435.49 86.3204 434.708 84.7695 434.414 83.0858L431.578 88.0123L431.454 88.0549C424.695 90.3802 417.663 89.6847 409.96 85.9316C407.757 84.849 405.621 83.6283 403.562 82.2763L403.41 82.178L403.397 81.993C403.005 76.0782 404.285 71.1368 407.005 68.0791C408.049 66.9286 409.316 66.0198 410.723 65.4122C412.13 64.8045 413.644 64.5118 415.168 64.5531C415.276 64.5237 415.376 64.4668 415.458 64.3873C415.497 64.3575 415.536 64.328 415.575 64.3V64.2694L415.776 64.1711C416.209 63.9602 416.651 63.7582 417.092 63.5736C420.564 62.1809 424.345 61.8315 428 62.5656C431.655 63.2997 435.036 65.0876 437.754 67.7237C443.159 73.0705 445.638 82.0435 443.923 90.0525L443.85 90.3923Z" fill="#2D2D2D"/>
<path d="M480.86 105.884C474.889 102.69 482.568 91.0992 481.025 84.3224C479.482 77.5455 468.369 75.3659 467.662 68.4417C466.954 61.5175 465.288 54.3759 460.879 49.1217C458.061 45.7643 453.91 43.2858 449.635 43.7063C448.189 43.8486 446.789 44.3122 445.531 45.0656C444.274 45.819 443.187 46.8444 442.346 48.072C441.505 49.2996 440.93 50.7006 440.659 52.1796C440.387 53.6585 440.427 55.1807 440.775 56.6423C439.557 54.8554 436.408 55.2427 435.628 57.2753C434.935 59.0822 436.466 61.271 438.268 61.4308C440.626 64.4482 443.326 67.6504 447.02 68.259C447.609 68.3991 448.22 68.3987 448.809 68.258C449.397 68.1173 449.947 67.8398 450.417 67.4467C451.286 66.5819 451.353 64.8529 450.322 64.2067C454.964 66.1175 457.686 71.3185 458.375 76.4451C459.064 81.5716 458.111 86.7586 457.483 91.8936C456.855 97.0285 456.584 102.43 458.527 107.199C460.823 112.833 466.108 116.87 471.876 118.165C477.644 119.46 483.787 118.195 489.008 115.343C494.229 112.492 498.583 108.139 502.139 103.258C496.013 107.766 487.537 109.455 480.86 105.884Z" fill="#2D2D2D"/>
<path d="M443.104 89.8868C443.104 89.8868 437.906 69.7822 415.625 65.1419C415.6 65.1334 415.516 65.0986 415.407 65.0467C415.34 65.0033 415.256 64.9599 415.173 64.9165C415.424 64.7691 415.667 64.639 415.918 64.5088C415.919 64.5088 415.92 64.5086 415.921 64.5082C415.922 64.5078 415.923 64.5071 415.924 64.5063C415.924 64.5055 415.925 64.5045 415.925 64.5035C415.926 64.5024 415.926 64.5013 415.926 64.5001C416.144 64.292 416.361 64.0838 416.587 63.8844L417.223 63.9104C417.223 63.9104 439.58 60.2416 443.104 89.8868Z" fill="#CE3727"/>
<path opacity="0.2" d="M431.466 154.397L418.882 169.505L398.089 163.142L420.757 173.967L431.466 154.397Z" fill="#171617"/>
<path d="M507 429.776L313.521 430C313.299 429.999 313.088 429.908 312.931 429.746C312.775 429.583 312.688 429.363 312.688 429.134C312.688 428.905 312.775 428.685 312.931 428.523C313.088 428.361 313.299 428.269 313.521 428.269L507 428.045C507.221 428.045 507.434 428.136 507.59 428.299C507.747 428.461 507.835 428.681 507.835 428.911C507.835 429.14 507.747 429.361 507.59 429.523C507.434 429.685 507.221 429.776 507 429.776Z" fill="#CACACA"/>
<path d="M515.492 295.241C506.432 295.241 496.503 294.886 485.703 294.176C429.842 290.501 357.485 277.721 281.961 258.192C206.438 238.664 136.77 214.718 85.7913 190.768C60.9583 179.101 41.899 168.058 29.1436 157.943C15.639 147.236 9.73191 137.902 11.5857 130.204C15.1978 115.205 47.1809 111.924 73.3755 111.812L73.3844 113.993C37.4123 114.146 16.1906 120.091 13.6283 130.732C10.3644 144.285 36.9838 165.443 86.6605 188.782C137.527 212.679 207.067 236.578 282.471 256.076C357.875 275.574 430.099 288.331 485.836 291.999C540.269 295.582 573.362 289.864 576.625 276.311C579.335 265.058 561.471 248.482 526.325 229.634L527.292 227.697C552.83 241.392 582.474 261.035 578.668 276.839C576.814 284.538 567.368 289.901 550.592 292.778C541.029 294.418 529.283 295.241 515.492 295.241Z" fill="#CE3727"/>
</g>
<defs>
<clipPath id="clip0_1_92">
<rect width="579" height="430" fill="white"/>
</clipPath>
</defs>
</svg>
