<svg width="532" height="480" viewBox="0 0 532 480" fill="none" xmlns="http://www.w3.org/2000/svg">
<g filter="url(#filter0_d_1_316)">
<path d="M481.147 241.187C481.215 296.87 459.677 350.41 421.061 390.554C418.733 392.989 416.342 395.366 413.889 397.685C410.15 401.238 406.286 404.654 402.297 407.932C364.976 438.658 318.385 455.925 270.041 456.945C268.43 456.982 266.813 457 265.19 457C226.634 457 178.14 436.42 134.131 407.932C130.49 405.575 126.882 403.164 123.306 400.698C121.634 399.556 119.971 398.397 118.315 397.223C101.342 385.246 85.2305 372.094 70.1004 357.862C60.1942 348.571 50.9048 338.645 42.2913 328.146C8.47655 286.465 1.01823 248.908 49.2269 241.187C54.9346 240.276 60.4741 239.302 65.8455 238.266C73.626 236.771 81.0722 235.158 88.184 233.424C97.7637 231.098 106.764 228.575 115.185 225.856C118.017 224.945 120.785 224.015 123.488 223.068C163.448 209.042 190.194 190.753 208.399 170.908C211.487 167.549 214.333 164.149 216.939 160.709C220.926 155.473 224.547 149.969 227.777 144.236C232.235 136.27 235.98 127.926 238.967 119.301L239.132 118.827C253.617 77.0725 249.21 38.343 265.19 25.3805C333.5 -30.0351 418.545 48.8818 458.462 141.946C460.474 146.635 462.367 151.353 464.14 156.099C464.936 158.219 465.704 160.343 466.443 162.471C468.388 168.016 470.153 173.576 471.738 179.151C472.346 181.277 472.925 183.401 473.476 185.523C474.066 187.813 474.631 190.097 475.154 192.38C479.038 209.103 481.147 225.595 481.147 241.187Z" fill="#2D2D2D"/>
</g>
<path d="M270.041 456.945C268.43 456.982 266.813 457 265.19 457C226.634 457 178.14 436.42 134.131 407.932C130.49 405.575 126.882 403.164 123.306 400.698L126.442 381.624L221.394 369.026L269.05 405.442L270.041 456.945Z" fill="#171617"/>
<path d="M274.612 116.367H261.081C260.662 116.367 260.26 116.534 259.964 116.83C259.667 117.126 259.501 117.527 259.501 117.946V131.474C259.501 131.681 259.542 131.886 259.621 132.077C259.701 132.268 259.818 132.442 259.964 132.588C260.111 132.734 260.285 132.85 260.477 132.928C260.668 133.007 260.874 133.047 261.081 133.047H274.612C275.03 133.047 275.431 132.881 275.727 132.587C276.024 132.292 276.191 131.891 276.192 131.474V117.946C276.191 117.528 276.024 117.127 275.728 116.831C275.432 116.535 275.03 116.368 274.612 116.367Z" fill="#EF852F"/>
<path d="M274.612 139.419H261.081C260.662 139.419 260.26 139.586 259.964 139.882C259.667 140.178 259.501 140.579 259.501 140.998V154.526C259.501 154.733 259.542 154.938 259.621 155.129C259.701 155.32 259.818 155.494 259.964 155.64C260.111 155.786 260.285 155.902 260.477 155.98C260.668 156.059 260.874 156.099 261.081 156.099H274.612C275.03 156.099 275.431 155.934 275.727 155.639C276.024 155.344 276.191 154.944 276.192 154.526V140.998C276.191 140.58 276.024 140.179 275.728 139.883C275.432 139.587 275.031 139.42 274.612 139.419Z" fill="#0078C2"/>
<path d="M274.612 162.471H261.081C260.662 162.471 260.26 162.637 259.964 162.934C259.667 163.23 259.501 163.631 259.501 164.05V177.571C259.5 177.779 259.541 177.984 259.62 178.176C259.699 178.368 259.816 178.542 259.963 178.689C260.109 178.836 260.284 178.952 260.476 179.031C260.668 179.11 260.873 179.151 261.081 179.151H274.612C275.031 179.15 275.433 178.984 275.729 178.688C276.025 178.392 276.192 177.99 276.192 177.571V164.05C276.191 163.632 276.024 163.231 275.728 162.935C275.432 162.639 275.031 162.472 274.612 162.471Z" fill="#0078C2"/>
<path d="M276.168 186.822C276.1 186.459 275.908 186.13 275.624 185.892C275.34 185.655 274.982 185.524 274.612 185.522H261.081C260.662 185.523 260.26 185.689 259.964 185.985C259.667 186.281 259.501 186.683 259.501 187.102V200.623C259.5 200.831 259.541 201.036 259.62 201.228C259.699 201.42 259.816 201.594 259.963 201.741C260.109 201.888 260.284 202.004 260.476 202.083C260.668 202.162 260.873 202.203 261.081 202.202H274.612C275.031 202.202 275.433 202.036 275.729 201.74C276.025 201.444 276.192 201.042 276.192 200.623V187.102C276.193 187.008 276.185 186.915 276.168 186.822Z" fill="#0078C2"/>
<path d="M275.226 208.696C275.031 208.616 274.822 208.574 274.612 208.574H261.081C260.873 208.574 260.668 208.615 260.476 208.694C260.284 208.773 260.109 208.889 259.963 209.036C259.816 209.183 259.699 209.357 259.62 209.549C259.541 209.741 259.5 209.946 259.501 210.154V223.675C259.5 223.883 259.54 224.089 259.619 224.281C259.698 224.473 259.815 224.647 259.961 224.794C260.108 224.941 260.283 225.057 260.475 225.136C260.667 225.215 260.873 225.255 261.081 225.254H274.612C275.031 225.254 275.433 225.088 275.729 224.792C276.025 224.496 276.192 224.094 276.192 223.675V210.154C276.191 209.843 276.1 209.539 275.928 209.28C275.756 209.021 275.512 208.818 275.226 208.696Z" fill="#0078C2"/>
<path d="M303.035 116.367H289.504C289.085 116.367 288.683 116.534 288.387 116.83C288.091 117.126 287.924 117.527 287.924 117.946V131.474C287.924 131.681 287.965 131.886 288.045 132.077C288.124 132.268 288.241 132.442 288.387 132.588C288.534 132.734 288.708 132.85 288.9 132.928C289.092 133.007 289.297 133.047 289.504 133.047H303.035C303.453 133.047 303.854 132.881 304.15 132.587C304.447 132.292 304.614 131.891 304.615 131.474V117.946C304.614 117.528 304.447 117.127 304.151 116.831C303.855 116.535 303.454 116.368 303.035 116.367Z" fill="#0078C2"/>
<path d="M303.035 139.419H289.504C289.085 139.419 288.683 139.586 288.387 139.882C288.09 140.178 287.924 140.579 287.924 140.998V154.526C287.924 154.733 287.965 154.938 288.045 155.129C288.124 155.32 288.241 155.494 288.387 155.64C288.534 155.786 288.708 155.902 288.9 155.98C289.092 156.059 289.297 156.099 289.504 156.099H303.035C303.453 156.099 303.854 155.934 304.15 155.639C304.447 155.344 304.614 154.944 304.615 154.526V140.998C304.614 140.58 304.447 140.179 304.151 139.883C303.855 139.587 303.454 139.42 303.035 139.419Z" fill="#CE3727"/>
<path d="M303.035 162.471H289.504C289.085 162.471 288.683 162.637 288.387 162.934C288.09 163.23 287.924 163.631 287.924 164.05V177.571C287.923 177.779 287.964 177.984 288.043 178.176C288.123 178.368 288.239 178.542 288.386 178.689C288.533 178.836 288.707 178.952 288.899 179.031C289.091 179.11 289.296 179.151 289.504 179.151H303.035C303.454 179.15 303.856 178.984 304.152 178.688C304.449 178.392 304.615 177.99 304.615 177.571V164.05C304.614 163.632 304.447 163.231 304.151 162.935C303.855 162.639 303.454 162.472 303.035 162.471Z" fill="#CE3727"/>
<path d="M303.035 185.522H289.504C289.173 185.523 288.85 185.627 288.581 185.821C288.313 186.016 288.113 186.289 288.009 186.604C287.953 186.764 287.924 186.932 287.924 187.102V200.623C287.923 200.831 287.964 201.036 288.043 201.228C288.122 201.42 288.239 201.594 288.386 201.741C288.532 201.888 288.707 202.004 288.899 202.083C289.091 202.162 289.296 202.203 289.504 202.202H303.035C303.454 202.202 303.856 202.036 304.152 201.74C304.449 201.444 304.615 201.042 304.615 200.623V187.102C304.614 186.683 304.447 186.282 304.151 185.986C303.855 185.69 303.454 185.524 303.035 185.522Z" fill="#CE3727"/>
<path d="M303.035 208.574H289.504C289.296 208.574 289.091 208.615 288.899 208.694C288.707 208.773 288.533 208.889 288.386 209.036C288.239 209.183 288.123 209.357 288.043 209.549C287.964 209.741 287.923 209.946 287.924 210.154V223.675C287.923 223.883 287.964 224.088 288.043 224.28C288.123 224.472 288.239 224.646 288.386 224.793C288.533 224.94 288.707 225.056 288.899 225.135C289.091 225.214 289.296 225.255 289.504 225.254H303.035C303.454 225.254 303.856 225.088 304.152 224.792C304.449 224.496 304.615 224.094 304.615 223.675V210.154C304.615 209.735 304.449 209.333 304.152 209.037C303.856 208.741 303.454 208.575 303.035 208.574Z" fill="#0078C2"/>
<path d="M331.458 116.367H317.927C317.508 116.367 317.106 116.534 316.81 116.83C316.514 117.126 316.347 117.527 316.347 117.946V131.474C316.347 131.681 316.388 131.886 316.468 132.077C316.547 132.268 316.664 132.442 316.811 132.588C316.957 132.734 317.132 132.85 317.323 132.928C317.515 133.007 317.72 133.047 317.927 133.047H331.458C331.876 133.047 332.277 132.881 332.574 132.587C332.87 132.292 333.037 131.891 333.038 131.474V117.946C333.037 117.528 332.87 117.127 332.574 116.831C332.278 116.535 331.877 116.368 331.458 116.367Z" fill="#CE3727"/>
<path d="M331.458 139.419H317.927C317.508 139.419 317.106 139.586 316.81 139.882C316.514 140.178 316.347 140.579 316.347 140.998V154.526C316.347 154.733 316.388 154.938 316.468 155.129C316.547 155.32 316.664 155.494 316.811 155.64C316.957 155.786 317.132 155.902 317.323 155.98C317.515 156.059 317.72 156.099 317.927 156.099H331.458C331.876 156.099 332.277 155.934 332.574 155.639C332.87 155.344 333.037 154.944 333.038 154.526V140.998C333.037 140.58 332.87 140.179 332.574 139.883C332.278 139.587 331.877 139.42 331.458 139.419Z" fill="#CE3727"/>
<path d="M331.458 162.471H317.927C317.508 162.471 317.106 162.637 316.81 162.934C316.514 163.23 316.347 163.631 316.347 164.05V177.571C316.346 177.779 316.387 177.984 316.466 178.176C316.546 178.368 316.662 178.542 316.809 178.689C316.956 178.836 317.13 178.952 317.322 179.031C317.514 179.11 317.72 179.151 317.927 179.151H331.458C331.877 179.15 332.279 178.984 332.575 178.688C332.872 178.392 333.038 177.99 333.038 177.571V164.05C333.037 163.632 332.87 163.231 332.574 162.935C332.278 162.639 331.877 162.472 331.458 162.471Z" fill="#0078C2"/>
<path d="M331.458 185.522H317.927C317.508 185.523 317.106 185.689 316.81 185.985C316.514 186.281 316.347 186.683 316.347 187.102V200.623C316.346 200.831 316.387 201.036 316.466 201.228C316.546 201.42 316.662 201.594 316.809 201.741C316.956 201.888 317.13 202.004 317.322 202.083C317.514 202.162 317.72 202.203 317.927 202.202H331.458C331.877 202.202 332.279 202.036 332.575 201.74C332.872 201.444 333.038 201.042 333.038 200.623V187.102C333.037 186.683 332.87 186.282 332.574 185.986C332.278 185.69 331.877 185.524 331.458 185.522Z" fill="#CE3727"/>
<path d="M331.458 208.574H317.927C317.72 208.574 317.514 208.615 317.322 208.694C317.13 208.773 316.956 208.889 316.809 209.036C316.662 209.183 316.546 209.357 316.466 209.549C316.387 209.741 316.346 209.946 316.347 210.154V223.675C316.346 223.883 316.387 224.088 316.466 224.28C316.546 224.472 316.662 224.646 316.809 224.793C316.956 224.94 317.13 225.056 317.322 225.135C317.514 225.214 317.72 225.255 317.927 225.254H331.458C331.877 225.254 332.279 225.088 332.575 224.792C332.872 224.496 333.038 224.094 333.038 223.675V210.154C333.038 209.735 332.872 209.333 332.575 209.037C332.279 208.741 331.877 208.575 331.458 208.574Z" fill="#CE3727"/>
<path d="M359.881 116.367H346.35C345.931 116.367 345.529 116.534 345.233 116.83C344.937 117.126 344.77 117.527 344.77 117.946V131.474C344.77 131.681 344.811 131.886 344.891 132.077C344.97 132.268 345.087 132.442 345.234 132.588C345.38 132.734 345.555 132.85 345.746 132.928C345.938 133.007 346.143 133.047 346.35 133.047H359.881C360.299 133.047 360.7 132.881 360.997 132.587C361.293 132.292 361.46 131.891 361.461 131.474V117.946C361.46 117.528 361.293 117.127 360.997 116.831C360.701 116.535 360.3 116.368 359.881 116.367Z" fill="#CE3727"/>
<path d="M359.881 139.419H346.35C345.931 139.419 345.529 139.586 345.233 139.882C344.937 140.178 344.77 140.579 344.77 140.998V154.526C344.77 154.733 344.811 154.938 344.891 155.129C344.97 155.32 345.087 155.494 345.234 155.64C345.38 155.786 345.555 155.902 345.746 155.98C345.938 156.059 346.143 156.099 346.35 156.099H359.881C360.299 156.099 360.7 155.934 360.997 155.639C361.293 155.344 361.46 154.944 361.461 154.526V140.998C361.46 140.58 361.293 140.179 360.997 139.883C360.701 139.587 360.3 139.42 359.881 139.419Z" fill="#EF852F"/>
<path d="M359.881 162.471H346.35C345.931 162.471 345.529 162.637 345.233 162.934C344.937 163.23 344.77 163.631 344.77 164.05V177.571C344.769 177.779 344.81 177.984 344.889 178.176C344.969 178.368 345.085 178.542 345.232 178.689C345.379 178.836 345.553 178.952 345.745 179.031C345.937 179.11 346.143 179.151 346.35 179.151H359.881C360.3 179.15 360.702 178.984 360.998 178.688C361.295 178.392 361.461 177.99 361.461 177.571V164.05C361.46 163.632 361.293 163.231 360.997 162.935C360.701 162.639 360.3 162.472 359.881 162.471Z" fill="#EF852F"/>
<path d="M359.881 185.522H346.35C345.931 185.523 345.529 185.689 345.233 185.985C344.937 186.281 344.77 186.683 344.77 187.102V200.623C344.769 200.831 344.81 201.036 344.889 201.228C344.969 201.42 345.085 201.594 345.232 201.741C345.379 201.888 345.553 202.004 345.745 202.083C345.937 202.162 346.143 202.203 346.35 202.202H359.881C360.3 202.202 360.702 202.036 360.998 201.74C361.295 201.444 361.461 201.042 361.461 200.623V187.102C361.46 186.683 361.293 186.282 360.997 185.986C360.701 185.69 360.3 185.524 359.881 185.522Z" fill="#0078C2"/>
<path d="M359.881 208.574H346.35C346.143 208.574 345.937 208.615 345.745 208.694C345.553 208.773 345.379 208.889 345.232 209.036C345.085 209.183 344.969 209.357 344.889 209.549C344.81 209.741 344.769 209.946 344.77 210.154V223.675C344.769 223.883 344.81 224.088 344.889 224.28C344.969 224.472 345.085 224.646 345.232 224.793C345.379 224.94 345.553 225.056 345.745 225.135C345.937 225.214 346.143 225.255 346.35 225.254H359.881C360.3 225.254 360.702 225.088 360.998 224.792C361.295 224.496 361.461 224.094 361.461 223.675V210.154C361.461 209.735 361.295 209.333 360.998 209.037C360.702 208.741 360.3 208.575 359.881 208.574Z" fill="#CE3727"/>
<path d="M388.304 116.367H374.767C374.349 116.368 373.949 116.535 373.654 116.831C373.358 117.127 373.193 117.528 373.193 117.946V131.474C373.193 131.891 373.359 132.291 373.654 132.586C373.949 132.881 374.35 133.047 374.767 133.047H388.304C388.722 133.047 389.123 132.881 389.42 132.587C389.716 132.292 389.883 131.891 389.885 131.474V117.946C389.883 117.528 389.716 117.127 389.42 116.831C389.124 116.535 388.723 116.368 388.304 116.367Z" fill="#EF852F"/>
<path d="M388.304 139.419H374.767C374.349 139.42 373.949 139.587 373.653 139.883C373.358 140.18 373.193 140.58 373.193 140.998V154.526C373.193 154.943 373.359 155.343 373.654 155.638C373.949 155.933 374.35 156.099 374.767 156.099H388.304C388.722 156.099 389.123 155.934 389.42 155.639C389.716 155.344 389.883 154.944 389.885 154.526V140.998C389.883 140.58 389.716 140.179 389.42 139.883C389.124 139.587 388.723 139.42 388.304 139.419Z" fill="#EF852F"/>
<path d="M388.304 162.471H374.767C374.349 162.472 373.949 162.639 373.654 162.935C373.358 163.231 373.193 163.632 373.193 164.05V177.571C373.192 177.778 373.233 177.984 373.312 178.175C373.39 178.367 373.506 178.541 373.652 178.687C373.799 178.834 373.972 178.95 374.164 179.03C374.355 179.109 374.56 179.15 374.767 179.151H388.304C388.723 179.15 389.125 178.984 389.421 178.688C389.718 178.392 389.884 177.99 389.885 177.571V164.05C389.883 163.632 389.716 163.231 389.42 162.935C389.124 162.639 388.723 162.472 388.304 162.471Z" fill="#EF852F"/>
<path d="M388.304 185.522H374.767C374.349 185.524 373.949 185.691 373.654 185.987C373.358 186.283 373.193 186.684 373.193 187.102V200.623C373.192 200.83 373.233 201.035 373.311 201.227C373.39 201.418 373.506 201.592 373.652 201.739C373.799 201.886 373.972 202.002 374.164 202.082C374.355 202.161 374.56 202.202 374.767 202.202H388.304C388.723 202.202 389.125 202.036 389.421 201.74C389.718 201.444 389.884 201.042 389.885 200.623V187.102C389.883 186.683 389.716 186.282 389.42 185.986C389.124 185.69 388.723 185.524 388.304 185.522Z" fill="#CE3727"/>
<path d="M388.304 208.574H374.767C374.56 208.575 374.355 208.616 374.164 208.695C373.972 208.775 373.799 208.891 373.652 209.038C373.506 209.185 373.39 209.359 373.311 209.55C373.233 209.742 373.192 209.947 373.193 210.154V223.675C373.192 223.882 373.233 224.087 373.311 224.279C373.39 224.47 373.506 224.644 373.652 224.791C373.799 224.938 373.972 225.054 374.164 225.134C374.355 225.213 374.56 225.254 374.767 225.254H388.304C388.723 225.254 389.125 225.088 389.421 224.792C389.718 224.496 389.884 224.094 389.885 223.675V210.154C389.884 209.735 389.718 209.333 389.421 209.037C389.125 208.741 388.723 208.575 388.304 208.574Z" fill="#0078C2"/>
<path d="M416.727 116.367H403.19C402.772 116.368 402.372 116.535 402.077 116.831C401.782 117.127 401.616 117.528 401.616 117.946V131.474C401.616 131.891 401.782 132.291 402.077 132.586C402.372 132.881 402.773 133.047 403.19 133.047H416.727C417.145 133.047 417.547 132.881 417.843 132.587C418.139 132.292 418.306 131.891 418.308 131.474V117.946C418.306 117.528 418.14 117.127 417.843 116.831C417.547 116.535 417.146 116.368 416.727 116.367Z" fill="#EF852F"/>
<path d="M416.727 139.419H403.19C402.772 139.42 402.372 139.587 402.077 139.883C401.781 140.18 401.616 140.58 401.616 140.998V154.526C401.616 154.943 401.782 155.343 402.077 155.638C402.372 155.933 402.773 156.099 403.19 156.099H416.727C417.145 156.099 417.546 155.934 417.843 155.639C418.139 155.344 418.306 154.944 418.308 154.526V140.998C418.306 140.58 418.14 140.179 417.843 139.883C417.547 139.587 417.146 139.42 416.727 139.419Z" fill="#EF852F"/>
<path d="M416.727 162.471H403.19C402.772 162.472 402.372 162.639 402.077 162.935C401.781 163.231 401.616 163.632 401.616 164.05V177.571C401.615 177.778 401.656 177.984 401.735 178.175C401.813 178.367 401.929 178.541 402.075 178.687C402.222 178.834 402.395 178.95 402.587 179.03C402.778 179.109 402.983 179.15 403.19 179.151H416.727C417.146 179.15 417.548 178.984 417.845 178.688C418.141 178.392 418.307 177.99 418.308 177.571V164.05C418.306 163.632 418.14 163.231 417.843 162.935C417.547 162.639 417.146 162.472 416.727 162.471Z" fill="#CE3727"/>
<path d="M416.727 185.522H403.19C402.772 185.524 402.372 185.691 402.077 185.987C401.782 186.283 401.616 186.684 401.616 187.102V200.623C401.615 200.83 401.656 201.035 401.735 201.227C401.813 201.418 401.929 201.592 402.075 201.739C402.222 201.886 402.395 202.002 402.587 202.082C402.778 202.161 402.983 202.202 403.19 202.202H416.727C417.146 202.202 417.548 202.036 417.845 201.74C418.141 201.444 418.307 201.042 418.308 200.623V187.102C418.306 186.683 418.14 186.282 417.843 185.986C417.547 185.691 417.146 185.524 416.727 185.522Z" fill="#0078C2"/>
<path d="M416.727 208.574H403.19C402.983 208.575 402.778 208.616 402.587 208.695C402.395 208.775 402.222 208.891 402.075 209.038C401.929 209.185 401.813 209.359 401.735 209.55C401.656 209.742 401.615 209.947 401.616 210.154V223.675C401.615 223.882 401.656 224.087 401.735 224.279C401.813 224.47 401.929 224.644 402.075 224.791C402.222 224.938 402.395 225.054 402.587 225.134C402.778 225.213 402.983 225.254 403.19 225.254H416.727C417.146 225.254 417.548 225.088 417.845 224.792C418.141 224.496 418.307 224.094 418.308 223.675V210.154C418.307 209.735 418.141 209.333 417.845 209.037C417.548 208.741 417.146 208.575 416.727 208.574Z" fill="#EF852F"/>
<path d="M445.15 116.367H431.613C431.195 116.368 430.795 116.535 430.5 116.831C430.205 117.127 430.039 117.528 430.039 117.946V131.474C430.039 131.891 430.205 132.291 430.5 132.586C430.796 132.881 431.196 133.047 431.613 133.047H445.15C445.568 133.047 445.97 132.881 446.266 132.587C446.562 132.292 446.729 131.891 446.731 131.474V117.946C446.729 117.528 446.563 117.127 446.266 116.831C445.97 116.535 445.569 116.368 445.15 116.367Z" fill="#CE3727"/>
<path d="M445.15 139.419H431.613C431.195 139.42 430.795 139.587 430.5 139.883C430.205 140.18 430.039 140.58 430.039 140.998V154.526C430.039 154.943 430.205 155.343 430.5 155.638C430.796 155.933 431.196 156.099 431.613 156.099H445.15C445.568 156.099 445.97 155.934 446.266 155.639C446.562 155.344 446.729 154.944 446.731 154.526V140.998C446.73 140.58 446.563 140.179 446.266 139.883C445.97 139.587 445.569 139.42 445.15 139.419Z" fill="#CE3727"/>
<path d="M445.15 162.471H431.613C431.195 162.472 430.795 162.639 430.5 162.935C430.205 163.231 430.039 163.632 430.039 164.05V177.571C430.039 177.778 430.079 177.984 430.158 178.175C430.237 178.367 430.352 178.541 430.499 178.687C430.645 178.834 430.819 178.95 431.01 179.03C431.201 179.109 431.406 179.15 431.613 179.151H445.15C445.569 179.15 445.971 178.984 446.268 178.688C446.564 178.392 446.731 177.99 446.731 177.571V164.05C446.73 163.632 446.563 163.231 446.266 162.935C445.97 162.639 445.569 162.472 445.15 162.471Z" fill="#0078C2"/>
<path d="M445.15 185.522H431.613C431.195 185.524 430.795 185.691 430.5 185.987C430.205 186.283 430.039 186.684 430.039 187.102V200.623C430.039 200.83 430.079 201.035 430.158 201.227C430.237 201.418 430.352 201.592 430.499 201.739C430.645 201.886 430.819 202.002 431.01 202.082C431.201 202.161 431.406 202.202 431.613 202.202H445.15C445.569 202.202 445.971 202.036 446.268 201.74C446.564 201.444 446.731 201.042 446.731 200.623V187.102C446.73 186.683 446.563 186.282 446.266 185.986C445.97 185.691 445.569 185.524 445.15 185.522Z" fill="#EF852F"/>
<path d="M445.15 208.574H431.613C431.406 208.575 431.201 208.616 431.01 208.695C430.819 208.775 430.645 208.891 430.499 209.038C430.352 209.185 430.237 209.359 430.158 209.55C430.079 209.742 430.039 209.947 430.039 210.154V223.675C430.039 223.882 430.079 224.087 430.158 224.279C430.237 224.47 430.352 224.644 430.499 224.791C430.645 224.938 430.819 225.054 431.01 225.134C431.201 225.213 431.406 225.254 431.613 225.254H445.15C445.569 225.254 445.971 225.088 446.268 224.792C446.564 224.496 446.731 224.094 446.731 223.675V210.154C446.731 209.735 446.564 209.333 446.268 209.037C445.971 208.741 445.569 208.575 445.15 208.574Z" fill="#CE3727"/>
<path d="M473.573 116.367H460.037C459.618 116.368 459.218 116.535 458.923 116.831C458.628 117.127 458.462 117.528 458.462 117.946V131.474C458.462 131.891 458.628 132.291 458.923 132.586C459.219 132.881 459.619 133.047 460.037 133.047H473.573C473.992 133.047 474.393 132.881 474.689 132.587C474.985 132.292 475.152 131.891 475.154 131.474V117.946C475.153 117.528 474.986 117.127 474.69 116.831C474.393 116.535 473.992 116.368 473.573 116.367Z" fill="#CE3727"/>
<path d="M473.573 139.419H460.037C459.618 139.42 459.218 139.587 458.923 139.883C458.628 140.18 458.462 140.58 458.462 140.998V154.526C458.462 154.943 458.628 155.343 458.923 155.638C459.219 155.933 459.619 156.099 460.037 156.099H473.573C473.992 156.099 474.393 155.934 474.689 155.639C474.985 155.344 475.152 154.944 475.154 154.526V140.998C475.153 140.58 474.986 140.179 474.69 139.883C474.393 139.587 473.992 139.42 473.573 139.419Z" fill="#CE3727"/>
<path d="M473.573 162.471H460.037C459.618 162.472 459.218 162.639 458.923 162.935C458.628 163.231 458.462 163.632 458.462 164.05V177.571C458.462 177.778 458.502 177.984 458.581 178.175C458.66 178.367 458.775 178.541 458.922 178.687C459.068 178.834 459.242 178.95 459.433 179.03C459.624 179.109 459.829 179.15 460.037 179.151H473.573C473.992 179.15 474.394 178.984 474.691 178.688C474.987 178.392 475.154 177.99 475.154 177.571V164.05C475.153 163.632 474.986 163.231 474.69 162.935C474.393 162.639 473.992 162.472 473.573 162.471Z" fill="#0078C2"/>
<path d="M473.573 185.522H460.037C459.618 185.524 459.218 185.691 458.923 185.987C458.628 186.283 458.462 186.684 458.462 187.102V200.623C458.462 200.83 458.502 201.035 458.581 201.227C458.66 201.418 458.775 201.592 458.922 201.739C459.068 201.886 459.242 202.002 459.433 202.082C459.624 202.161 459.829 202.202 460.037 202.202H473.573C473.992 202.202 474.394 202.036 474.691 201.74C474.987 201.444 475.154 201.042 475.154 200.623V187.102C475.153 186.683 474.986 186.282 474.69 185.986C474.393 185.691 473.992 185.524 473.573 185.522Z" fill="#CE3727"/>
<path d="M473.573 208.574H460.037C459.829 208.575 459.624 208.616 459.433 208.695C459.242 208.775 459.068 208.891 458.922 209.038C458.775 209.185 458.66 209.359 458.581 209.55C458.502 209.742 458.462 209.947 458.462 210.154V223.675C458.462 223.882 458.502 224.087 458.581 224.279C458.66 224.47 458.775 224.644 458.922 224.791C459.068 224.938 459.242 225.054 459.433 225.134C459.624 225.213 459.829 225.254 460.037 225.254H473.573C473.992 225.254 474.394 225.088 474.691 224.792C474.987 224.496 475.154 224.094 475.154 223.675V210.154C475.154 209.735 474.987 209.333 474.691 209.037C474.394 208.741 473.992 208.575 473.573 208.574Z" fill="#CE3727"/>
<path d="M501.996 116.367H488.46C488.041 116.368 487.641 116.535 487.346 116.831C487.051 117.127 486.885 117.528 486.885 117.946V131.474C486.885 131.891 487.051 132.291 487.347 132.586C487.642 132.881 488.042 133.047 488.46 133.047H501.996C502.415 133.047 502.816 132.881 503.112 132.587C503.408 132.292 503.575 131.891 503.577 131.474V117.946C503.576 117.528 503.409 117.127 503.113 116.831C502.817 116.535 502.415 116.368 501.996 116.367Z" fill="#0078C2"/>
<path d="M501.996 139.419H488.46C488.041 139.42 487.641 139.587 487.346 139.883C487.051 140.18 486.885 140.58 486.885 140.998V154.526C486.885 154.943 487.051 155.343 487.347 155.638C487.642 155.933 488.042 156.099 488.46 156.099H501.996C502.415 156.099 502.816 155.934 503.112 155.639C503.408 155.344 503.575 154.944 503.577 154.526V140.998C503.576 140.58 503.409 140.179 503.113 139.883C502.817 139.587 502.415 139.42 501.996 139.419Z" fill="#CE3727"/>
<path d="M501.996 162.471H488.46C488.041 162.472 487.641 162.639 487.346 162.935C487.051 163.231 486.885 163.632 486.885 164.05V177.571C486.885 177.778 486.925 177.984 487.004 178.175C487.083 178.367 487.199 178.541 487.345 178.687C487.491 178.834 487.665 178.95 487.856 179.03C488.047 179.109 488.252 179.15 488.46 179.151H501.996C502.416 179.15 502.817 178.984 503.114 178.688C503.41 178.392 503.577 177.99 503.577 177.571V164.05C503.576 163.632 503.409 163.231 503.113 162.935C502.817 162.639 502.415 162.472 501.996 162.471Z" fill="#CE3727"/>
<path d="M501.996 185.522H488.46C488.041 185.524 487.641 185.691 487.346 185.987C487.051 186.283 486.885 186.684 486.885 187.102V200.623C486.885 200.83 486.925 201.035 487.004 201.227C487.083 201.418 487.199 201.592 487.345 201.739C487.491 201.886 487.665 202.002 487.856 202.082C488.047 202.161 488.252 202.202 488.46 202.202H501.996C502.416 202.202 502.817 202.036 503.114 201.74C503.41 201.444 503.577 201.042 503.577 200.623V187.102C503.576 186.683 503.409 186.282 503.113 185.986C502.817 185.691 502.415 185.524 501.996 185.522Z" fill="#CE3727"/>
<path d="M501.996 208.574H488.46C488.252 208.575 488.047 208.616 487.856 208.695C487.665 208.775 487.491 208.891 487.345 209.038C487.199 209.185 487.083 209.359 487.004 209.55C486.925 209.742 486.885 209.947 486.885 210.154V223.675C486.885 223.882 486.925 224.087 487.004 224.279C487.083 224.47 487.199 224.644 487.345 224.791C487.491 224.938 487.665 225.054 487.856 225.134C488.047 225.213 488.252 225.254 488.46 225.254H501.996C502.416 225.254 502.817 225.088 503.114 224.792C503.41 224.496 503.577 224.094 503.577 223.675V210.154C503.577 209.735 503.41 209.333 503.114 209.037C502.817 208.741 502.416 208.575 501.996 208.574Z" fill="#0078C2"/>
<path d="M530.42 116.367H516.883C516.465 116.368 516.064 116.535 515.769 116.831C515.474 117.127 515.308 117.528 515.308 117.946V131.474C515.308 131.891 515.474 132.291 515.77 132.586C516.065 132.881 516.465 133.047 516.883 133.047H530.42C530.838 133.047 531.239 132.881 531.535 132.587C531.831 132.292 531.999 131.891 532 131.474V117.946C531.999 117.528 531.832 117.127 531.536 116.831C531.24 116.535 530.838 116.368 530.42 116.367Z" fill="#0078C2"/>
<path d="M530.42 139.419H516.883C516.465 139.42 516.064 139.587 515.769 139.883C515.474 140.18 515.308 140.58 515.308 140.998V154.526C515.308 154.943 515.474 155.343 515.77 155.638C516.065 155.933 516.465 156.099 516.883 156.099H530.42C530.838 156.099 531.239 155.934 531.535 155.639C531.831 155.344 531.999 154.944 532 154.526V140.998C531.999 140.58 531.832 140.179 531.536 139.883C531.24 139.587 530.838 139.42 530.42 139.419Z" fill="#0078C2"/>
<path d="M530.42 162.471H516.883C516.465 162.472 516.064 162.639 515.769 162.935C515.474 163.231 515.308 163.632 515.308 164.05V177.571C515.308 177.778 515.348 177.984 515.427 178.175C515.506 178.367 515.622 178.541 515.768 178.687C515.914 178.834 516.088 178.95 516.279 179.03C516.47 179.109 516.676 179.15 516.883 179.151H530.42C530.839 179.15 531.241 178.984 531.537 178.688C531.833 178.392 532 177.99 532 177.571V164.05C531.999 163.632 531.832 163.231 531.536 162.935C531.24 162.639 530.838 162.472 530.42 162.471Z" fill="#CE3727"/>
<path d="M530.42 185.522H516.883C516.465 185.524 516.064 185.691 515.769 185.987C515.474 186.283 515.308 186.684 515.308 187.102V200.623C515.308 200.83 515.348 201.035 515.427 201.227C515.506 201.418 515.622 201.592 515.768 201.739C515.914 201.886 516.088 202.002 516.279 202.082C516.47 202.161 516.676 202.202 516.883 202.202H530.42C530.839 202.202 531.241 202.036 531.537 201.74C531.833 201.444 532 201.042 532 200.623V187.102C531.999 186.683 531.832 186.282 531.536 185.986C531.24 185.691 530.838 185.524 530.42 185.522Z" fill="#0078C2"/>
<path d="M530.42 208.574H516.883C516.676 208.575 516.47 208.616 516.279 208.695C516.088 208.775 515.914 208.891 515.768 209.038C515.622 209.185 515.506 209.359 515.427 209.55C515.348 209.742 515.308 209.947 515.308 210.154V223.675C515.308 223.882 515.348 224.087 515.427 224.279C515.506 224.47 515.622 224.644 515.768 224.791C515.914 224.938 516.088 225.054 516.279 225.134C516.47 225.213 516.676 225.254 516.883 225.254H530.42C530.839 225.254 531.241 225.088 531.537 224.792C531.833 224.496 532 224.094 532 223.675V210.154C532 209.735 531.833 209.333 531.537 209.037C531.241 208.741 530.839 208.575 530.42 208.574Z" fill="#0078C2"/>
<path d="M219.296 407.933H218.919L219.241 407.89L219.296 407.933Z" fill="#171617"/>
<path d="M186.909 155.853C209.845 155.853 228.438 137.272 228.438 114.352C228.438 91.4322 209.845 72.8518 186.909 72.8518C163.973 72.8518 145.379 91.4322 145.379 114.352C145.379 137.272 163.973 155.853 186.909 155.853Z" fill="#FFB6B6"/>
<path d="M223.278 83.9248C223.278 83.9248 234.139 63.1746 210.243 61.2881C210.243 61.2881 189.871 42.821 169.106 57.9121C169.106 57.9121 157.78 57.9121 151.586 70.7201C151.586 70.7201 142.678 67.344 140.721 76.3792C140.721 76.3792 134.202 95.2432 140.721 112.221C147.239 129.198 149.404 131.085 149.404 131.085C149.404 131.085 138.693 95.4903 164.764 93.6039C190.836 91.7174 220.01 75.4361 222.183 96.1863C224.355 116.937 227.625 122.049 227.625 122.049C227.625 122.049 248.261 92.4136 223.278 83.9248Z" fill="#171617"/>
<path d="M294.337 216.629L294.203 217.333L292.701 225.254L282.325 280.044L281.711 283.27L280.423 290.091L278.66 299.397L274.752 320.019L273.633 325.929L273.214 328.146L273.068 328.924L271.907 335.041L271.554 336.887L268.722 357.862L266.248 376.139L274.527 384.412L269.591 389.345L266.351 407.889L266.357 407.932H134.131C128.782 404.47 123.51 400.9 118.315 397.223L119.403 389.083C119.403 389.083 123.148 374.548 121.573 372.811C120.005 371.073 116.564 367.969 116.564 367.969L120.899 357.862L121.5 356.459L120.491 335.545L120.467 335.041L120.133 328.146L120.09 327.259L120.023 325.929L118.741 299.397L118.716 298.959L118.327 290.917L117.963 283.27L117.805 280.044L116.242 247.772L115.185 225.856L114.261 206.776L117.975 205.519L157.698 192.028L174.152 170.653L208.399 170.908L225.163 171.035L253.136 196.96L259.501 199.997L259.549 200.022L264.114 202.202L275.688 207.724L287.924 213.567L294.203 216.562L294.337 216.629Z" fill="#CACACA"/>
<path d="M178.578 345.672C176.068 346.643 173.376 347.053 170.691 346.872C168.006 346.692 165.393 345.925 163.036 344.626C160.68 343.327 158.637 341.527 157.051 339.354C155.466 337.181 154.377 334.687 153.86 332.047L89.0886 322.864L111.605 297.412L169.661 310.034C174.156 309.461 178.705 310.556 182.446 313.11C186.187 315.665 188.861 319.502 189.96 323.895C191.059 328.288 190.507 332.931 188.41 336.945C186.312 340.958 182.814 344.063 178.578 345.672V345.672Z" fill="#FFB6B6"/>
<path d="M149.698 299.397C148.499 297.877 146.8 296.829 144.903 296.439L118.327 290.917L115.598 290.352C114.012 290.021 112.514 289.36 111.201 288.41C109.889 287.461 108.792 286.245 107.982 284.843C107.142 283.371 106.633 281.733 106.492 280.044C106.366 278.509 106.55 276.964 107.033 275.501L116.242 247.772L122.217 229.78C122.942 227.61 123.369 225.352 123.488 223.068C123.821 216.746 121.864 210.516 117.975 205.519C114.556 201.127 109.814 197.95 104.449 196.458C99.0845 194.966 93.382 195.238 88.184 197.234C88.032 197.288 87.874 197.349 87.722 197.41C83.9942 198.897 80.6637 201.231 77.9936 204.226C75.3235 207.221 73.3871 210.795 72.3373 214.667L65.8455 238.265L52.4545 286.914C51.114 291.788 50.8432 296.895 51.6606 301.883C52.478 306.871 54.3643 311.625 57.1905 315.817C60.0166 320.009 63.7158 323.542 68.0349 326.173C72.354 328.805 77.191 330.472 82.2149 331.062L120.491 335.545L138.204 337.622C140.252 337.868 142.318 337.334 143.99 336.126C145.661 334.918 146.816 333.125 147.224 331.105C147.253 330.995 147.275 330.883 147.291 330.77L147.717 328.146L151.321 306.048L151.358 305.823C151.546 304.696 151.495 303.541 151.209 302.435C150.923 301.328 150.409 300.293 149.698 299.397Z" fill="#CACACA"/>
<path d="M219.835 346.38C222.457 346.988 225.18 347.015 227.813 346.457C230.446 345.9 232.924 344.773 235.074 343.154C237.224 341.536 238.992 339.467 240.255 337.092C241.518 334.717 242.244 332.094 242.383 329.408L305.212 311.189L279.328 289.164L223.633 309.842C219.103 309.908 214.754 311.633 211.41 314.689C208.067 317.745 205.962 321.921 205.494 326.425C205.025 330.929 206.227 335.448 208.87 339.126C211.513 342.804 215.415 345.385 219.835 346.38V346.38Z" fill="#FFB6B6"/>
<path d="M336.406 270.435L306.524 201.711C304.08 196.068 299.715 191.474 294.203 188.742C292.499 187.904 290.71 187.252 288.866 186.798C288.58 186.725 288.294 186.658 288.009 186.604C284.099 185.751 280.044 185.826 276.168 186.822C272.625 187.732 269.314 189.378 266.451 191.652C263.587 193.926 261.236 196.778 259.549 200.022C259.531 200.049 259.515 200.077 259.501 200.107C257.617 203.748 256.615 207.781 256.576 211.879C256.537 215.978 257.462 220.029 259.276 223.705L259.647 224.447L280.763 266.827C281.484 268.276 281.891 269.861 281.955 271.478C282.02 273.095 281.742 274.708 281.14 276.21C280.537 277.712 279.623 279.07 278.458 280.195C277.294 281.319 275.904 282.185 274.381 282.735L272.898 283.27L246.225 292.897C244.224 293.611 242.577 295.073 241.633 296.975C240.689 298.878 240.52 301.072 241.162 303.096L241.229 303.309L248.705 327.217C248.742 327.326 248.778 327.436 248.821 327.545C248.886 327.751 248.968 327.952 249.064 328.146C249.858 329.927 251.263 331.366 253.025 332.205C254.786 333.043 256.789 333.226 258.674 332.72L273.068 328.924L276.004 328.146L313.174 318.337C318.065 317.045 322.618 314.713 326.523 311.499C330.428 308.285 333.592 304.267 335.799 299.717C338.005 295.168 339.201 290.197 339.306 285.142C339.411 280.088 338.422 275.071 336.406 270.435L336.406 270.435Z" fill="#CACACA"/>
<path d="M42.2913 328.146C50.9048 338.645 60.1942 348.571 70.1004 357.862H344.831C347.478 357.866 350.015 358.919 351.886 360.79C353.757 362.661 354.809 365.197 354.812 367.842L355.207 437.41C372.108 429.651 387.935 419.743 402.297 407.932C406.284 404.658 410.148 401.242 413.889 397.685C416.338 395.364 418.729 392.987 421.061 390.554C438.545 372.352 452.703 351.23 462.893 328.146H42.2913Z" fill="#171617"/>
<path d="M421.061 390.553C418.733 392.989 416.342 395.366 413.889 397.685H355.407V390.553H421.061Z" fill="#EF852F"/>
<path d="M293.789 162.471C293.501 161.938 293.073 161.493 292.552 161.183C292.031 160.873 291.436 160.709 290.829 160.709H91.5515C90.658 160.712 89.8019 161.068 89.1707 161.7C88.5396 162.331 88.1847 163.188 88.184 164.08V283.27H294.203V164.08C294.206 163.517 294.064 162.963 293.789 162.471Z" fill="#171617"/>
<path d="M88.0035 280.043V294.751C88.0035 295.361 88.1237 295.965 88.3572 296.528C88.5907 297.091 88.9329 297.603 89.3644 298.034C89.7958 298.465 90.3081 298.807 90.8718 299.041C91.4355 299.274 92.0397 299.394 92.6498 299.394H168.69V328.421H167.68C167.601 328.421 167.522 328.437 167.449 328.467C167.376 328.497 167.309 328.542 167.253 328.598C167.197 328.654 167.152 328.72 167.122 328.793C167.092 328.867 167.076 328.945 167.076 329.024V331.043C167.076 331.122 167.092 331.201 167.122 331.274C167.152 331.347 167.197 331.414 167.253 331.47C167.309 331.526 167.376 331.57 167.449 331.6C167.522 331.631 167.601 331.646 167.68 331.646H214.884C214.964 331.646 215.042 331.631 215.115 331.6C215.189 331.57 215.255 331.526 215.311 331.47C215.367 331.414 215.412 331.347 215.442 331.274C215.472 331.201 215.488 331.122 215.488 331.043V329.024C215.488 328.945 215.472 328.867 215.442 328.793C215.412 328.72 215.367 328.654 215.311 328.598C215.255 328.542 215.189 328.497 215.115 328.467C215.042 328.437 214.964 328.421 214.884 328.421H213.874V299.394H289.914C290.525 299.394 291.129 299.274 291.693 299.041C292.256 298.807 292.768 298.465 293.2 298.034C293.631 297.603 293.974 297.091 294.207 296.528C294.441 295.965 294.561 295.361 294.561 294.751V280.043H88.0035Z" fill="#171617"/>
<path d="M188.786 237.828C199.296 237.828 207.816 229.314 207.816 218.812C207.816 208.31 199.296 199.796 188.786 199.796C178.276 199.796 169.757 208.31 169.757 218.812C169.757 229.314 178.276 237.828 188.786 237.828Z" fill="#CE3727"/>
<path d="M237.271 112.085H234.232C234.232 89.1238 211.493 74.0778 188.552 74.0657C185.216 74.0559 181.886 74.3795 178.614 75.0315C174.93 75.7665 171.107 76.6472 167.35 77.7953C152.537 82.3328 138.8 91.104 138.8 112.085C138.797 116.159 139.315 120.217 140.344 124.16L137.402 124.926C136.31 120.732 135.759 116.417 135.76 112.085C135.76 93.7524 143.292 81.1604 156.3 73.6526C163.138 69.7043 171.484 67.1592 181.045 65.9201C185.024 65.3911 189.047 65.269 193.05 65.5556C219.431 67.4508 237.271 87.6659 237.271 112.085Z" fill="#CE3727"/>
<path d="M242.335 113.767L241.137 104.923C240.842 102.69 239.765 100.633 238.098 99.1162C237.028 98.1276 235.747 97.3951 234.351 96.9742C232.956 96.5532 231.483 96.4548 230.044 96.6865L228.142 96.9476C227.621 97.0161 227.119 97.1872 226.665 97.451C226.211 97.7148 225.814 98.0661 225.497 98.4844C225.178 98.9013 224.944 99.3774 224.809 99.8851C224.675 100.393 224.642 100.922 224.713 101.443L227.479 121.816C227.593 122.646 227.965 123.42 228.544 124.027C229.122 124.634 229.876 125.044 230.701 125.199C230.945 125.248 231.193 125.272 231.442 125.272C231.621 125.272 231.8 125.26 231.977 125.236L234.105 124.95C235.402 124.778 236.65 124.343 237.773 123.671C238.895 123 239.869 122.106 240.633 121.044C240.797 120.813 240.955 120.577 241.101 120.334C242.24 118.346 242.675 116.032 242.335 113.767Z" fill="#CE3727"/>
<path d="M226.914 97.3181C226.356 97.5891 225.87 97.9888 225.497 98.4844C225.178 98.9013 224.944 99.3774 224.809 99.8851C224.675 100.393 224.642 100.922 224.713 101.443L227.479 121.816C227.593 122.646 227.965 123.42 228.544 124.027C229.122 124.634 229.876 125.044 230.701 125.199L226.914 97.3181Z" fill="#EF852F"/>
<path d="M242.335 113.767L241.137 104.923C240.842 102.689 239.765 100.632 238.098 99.116L240.852 119.386C240.893 119.711 240.977 120.03 241.101 120.333C242.24 118.346 242.675 116.032 242.335 113.767Z" fill="#171617"/>
<path d="M232.871 120.14C233.703 120.027 234.121 118.049 233.805 115.722C233.489 113.395 232.559 111.6 231.727 111.713C230.895 111.826 230.477 113.803 230.793 116.13C231.109 118.457 232.039 120.252 232.871 120.14Z" fill="#171617"/>
<path d="M231.047 109.206C231.879 109.093 232.297 107.115 231.981 104.788C231.665 102.461 230.735 100.666 229.903 100.779C229.072 100.892 228.654 102.87 228.97 105.197C229.285 107.524 230.216 109.319 231.047 109.206Z" fill="#171617"/>
<path d="M242.596 113.458C243.428 113.345 243.846 111.367 243.53 109.04C243.214 106.713 242.284 104.918 241.452 105.031C240.621 105.144 240.203 107.122 240.519 109.449C240.835 111.775 241.765 113.571 242.596 113.458Z" fill="#171617"/>
<path d="M188.552 74.0657C185.216 74.0559 181.886 74.3795 178.614 75.0315C174.93 75.7665 171.107 76.6472 167.35 77.7953C161.485 77.5098 157.169 75.9912 156.3 73.6526C163.138 69.7043 171.484 67.1592 181.045 65.9201C185.024 65.3911 189.047 65.269 193.05 65.5556C193.474 65.8039 193.841 66.139 194.126 66.5389C194.411 66.9389 194.608 67.3945 194.704 67.876C194.989 69.9899 192.576 72.2373 188.552 74.0657Z" fill="#CE3727"/>
<path d="M149.747 133.162L145.067 113.719C144.9 113.017 144.529 112.381 144.001 111.889C143.474 111.397 142.812 111.072 142.1 110.955C141.899 110.924 141.696 110.907 141.493 110.906C141.206 110.907 140.92 110.942 140.642 111.01L138.83 111.447C136.498 112.011 134.485 113.476 133.232 115.521C131.98 117.566 131.591 120.024 132.15 122.356L134.247 131.079C134.726 133.132 135.866 134.972 137.493 136.315C137.756 136.528 138.033 136.724 138.32 136.904C139.338 137.542 140.475 137.97 141.662 138.162C142.849 138.354 144.062 138.306 145.231 138.022L147.036 137.584C147.513 137.473 147.963 137.264 148.355 136.971C148.939 136.546 149.383 135.956 149.631 135.278C149.879 134.6 149.919 133.864 149.747 133.162Z" fill="#CE3727"/>
<path d="M139.935 129.545C140.751 129.348 140.967 127.338 140.417 125.055C139.867 122.772 138.76 121.08 137.944 121.277C137.128 121.473 136.912 123.483 137.462 125.766C138.012 128.049 139.119 129.741 139.935 129.545Z" fill="#171617"/>
<path d="M133.856 131.367C134.672 131.171 134.888 129.161 134.338 126.878C133.789 124.595 132.681 122.903 131.865 123.099C131.05 123.295 130.834 125.305 131.384 127.588C131.933 129.871 133.041 131.563 133.856 131.367Z" fill="#171617"/>
<path d="M150.045 133.09L145.364 113.646C145.182 112.887 144.78 112.198 144.208 111.667C143.636 111.135 142.92 110.784 142.149 110.657L148.537 137.214C149.168 136.752 149.648 136.114 149.917 135.38C150.185 134.646 150.23 133.849 150.045 133.09Z" fill="#EF852F"/>
<path d="M133.207 118.505C133.078 117.964 132.836 117.457 132.496 117.017C131.838 118.72 131.717 120.583 132.15 122.356L134.247 131.079C134.726 133.132 135.866 134.972 137.493 136.315L133.207 118.505Z" fill="#171617"/>
<defs>
<filter id="filter0_d_1_316" x="0" y="0" width="496.147" height="480" filterUnits="userSpaceOnUse" color-interpolation-filters="sRGB">
<feFlood flood-opacity="0" result="BackgroundImageFix"/>
<feColorMatrix in="SourceAlpha" type="matrix" values="0 0 0 0 0 0 0 0 0 0 0 0 0 0 0 0 0 0 127 0" result="hardAlpha"/>
<feOffset dy="8"/>
<feGaussianBlur stdDeviation="7.5"/>
<feComposite in2="hardAlpha" operator="out"/>
<feColorMatrix type="matrix" values="0 0 0 0 0.0291667 0 0 0 0 0.0291667 0 0 0 0 0.0291667 0 0 0 0.2 0"/>
<feBlend mode="normal" in2="BackgroundImageFix" result="effect1_dropShadow_1_316"/>
<feBlend mode="normal" in="SourceGraphic" in2="effect1_dropShadow_1_316" result="shape"/>
</filter>
</defs>
</svg>
