<svg width="35" height="35" viewBox="0 0 35 35" fill="none" xmlns="http://www.w3.org/2000/svg">
<path d="M13.5406 15.3672C12.4209 15.3683 11.3261 15.0372 10.3945 14.4159C9.463 13.7947 8.73667 12.911 8.30743 11.8769C7.87818 10.8427 7.76531 9.70447 7.98309 8.60615C8.20088 7.50782 8.73952 6.49877 9.53089 5.70663C10.3223 4.9145 11.3308 4.37488 12.4289 4.15604C13.527 3.93719 14.6654 4.04896 15.6999 4.47721C16.7345 4.90545 17.6188 5.63092 18.241 6.56185C18.8632 7.49278 19.1953 8.58733 19.1953 9.70703C19.1939 11.2068 18.5978 12.6448 17.5378 13.7058C16.4778 14.7669 15.0404 15.3643 13.5406 15.3672ZM13.5406 6.23984C12.8533 6.23876 12.1812 6.44165 11.6093 6.82281C11.0374 7.20398 10.5914 7.74628 10.3279 8.38104C10.0644 9.01581 9.99515 9.7145 10.129 10.3886C10.2628 11.0628 10.5936 11.682 11.0796 12.168C11.5656 12.654 12.1849 12.9849 12.859 13.1187C13.5332 13.2525 14.2318 13.1833 14.8666 12.9198C15.5014 12.6563 16.0437 12.2103 16.4248 11.6384C16.806 11.0665 17.0089 10.3943 17.0078 9.70703C17.0064 8.78792 16.6406 7.90687 15.9907 7.25696C15.3408 6.60705 14.4597 6.24129 13.5406 6.23984Z" fill="white"/>
<path d="M13.5406 30.9477C10.3261 30.9573 7.18946 29.9589 4.57187 28.093C4.44484 28.0025 4.33861 27.886 4.26033 27.7511C4.18204 27.6162 4.1335 27.4662 4.11797 27.311C4.11797 27.1578 4.11797 27.0157 4.11797 26.8625C4.08767 25.6042 4.30935 24.3526 4.76995 23.1812C5.23056 22.0098 5.92079 20.9424 6.80003 20.0417C7.67927 19.1411 8.72977 18.4254 9.88971 17.9367C11.0497 17.448 12.2956 17.1963 13.5543 17.1963C14.813 17.1963 16.0589 17.448 17.2189 17.9367C18.3788 18.4254 19.4293 19.1411 20.3086 20.0417C21.1878 20.9424 21.878 22.0098 22.3386 23.1812C22.7992 24.3526 23.0209 25.6042 22.9906 26.8625C22.9988 27.0101 22.9988 27.158 22.9906 27.3055C22.9758 27.4616 22.9277 27.6128 22.8493 27.7486C22.771 27.8845 22.6644 28.002 22.5367 28.093C22.1648 28.3555 21.7766 28.6071 21.3883 28.8368C21.2641 28.9224 21.1236 28.9813 20.9755 29.01C20.8274 29.0387 20.675 29.0364 20.5278 29.0034C20.3807 28.9703 20.2419 28.9072 20.1203 28.8179C19.9988 28.7287 19.8969 28.6153 19.8213 28.4848C19.7456 28.3543 19.6978 28.2096 19.6808 28.0597C19.6638 27.9098 19.6779 27.7581 19.7224 27.6139C19.7668 27.4698 19.8406 27.3364 19.939 27.2222C20.0375 27.1079 20.1585 27.0153 20.2945 26.95C20.475 26.8407 20.6555 26.7313 20.8414 26.6164C20.7896 24.7298 20.0037 22.9379 18.6509 21.6218C17.2982 20.3058 15.4854 19.5694 13.598 19.5694C11.7107 19.5694 9.89789 20.3058 8.54515 21.6218C7.19241 22.9379 6.40653 24.7298 6.35469 26.6164C8.50944 28.0221 11.0281 28.7672 13.6008 28.7602C14.2725 28.7606 14.9434 28.7113 15.6078 28.6125C15.8979 28.5683 16.1937 28.6411 16.4301 28.8149C16.6665 28.9888 16.8241 29.2494 16.8684 29.5395C16.9126 29.8296 16.8398 30.1253 16.6659 30.3617C16.4921 30.5981 16.2315 30.7558 15.9414 30.8C15.1463 30.9125 14.3435 30.9619 13.5406 30.9477Z" fill="white"/>
<path d="M26.168 16.7015C25.8779 16.7015 25.5997 16.5863 25.3946 16.3812C25.1895 16.1761 25.0742 15.8979 25.0742 15.6078V8.33435C25.0742 8.04427 25.1895 7.76607 25.3946 7.56095C25.5997 7.35583 25.8779 7.2406 26.168 7.2406C26.458 7.2406 26.7362 7.35583 26.9414 7.56095C27.1465 7.76607 27.2617 8.04427 27.2617 8.33435V15.6078C27.2617 15.8979 27.1465 16.1761 26.9414 16.3812C26.7362 16.5863 26.458 16.7015 26.168 16.7015Z" fill="white"/>
<path d="M29.8047 13.0648H22.5312C22.2412 13.0648 21.963 12.9496 21.7579 12.7445C21.5527 12.5394 21.4375 12.2611 21.4375 11.9711C21.4375 11.681 21.5527 11.4028 21.7579 11.1977C21.963 10.9926 22.2412 10.8773 22.5312 10.8773H29.8047C30.0948 10.8773 30.373 10.9926 30.5781 11.1977C30.7832 11.4028 30.8984 11.681 30.8984 11.9711C30.8984 12.2611 30.7832 12.5394 30.5781 12.7445C30.373 12.9496 30.0948 13.0648 29.8047 13.0648Z" fill="white"/>
</svg>
