<svg width="30" height="90" viewBox="0 0 30 90" fill="none" xmlns="http://www.w3.org/2000/svg">
<g filter="url(#filter0_d_1_34)">
<path d="M14.2929 80.7071C14.6834 81.0976 15.3166 81.0976 15.7071 80.7071L22.0711 74.3431C22.4616 73.9526 22.4616 73.3195 22.0711 72.9289C21.6805 72.5384 21.0474 72.5384 20.6569 72.9289L15 78.5858L9.34315 72.9289C8.95262 72.5384 8.31946 72.5384 7.92893 72.9289C7.53841 73.3195 7.53841 73.9526 7.92893 74.3431L14.2929 80.7071ZM14 60L14 80L16 80L16 60L14 60Z" fill="#CE3727"/>
</g>
<g filter="url(#filter1_d_1_34)">
<path d="M19.144 52.712C19.144 53.24 19.044 53.752 18.844 54.248C18.644 54.736 18.36 55.168 17.992 55.544L17.044 54.728C17.308 54.448 17.524 54.128 17.692 53.768C17.852 53.408 17.932 53.048 17.932 52.688C17.932 52.24 17.84 51.9 17.656 51.668C17.472 51.436 17.228 51.32 16.924 51.32C16.596 51.32 16.36 51.436 16.216 51.668C16.072 51.892 15.924 52.18 15.772 52.532L15.304 53.612C15.192 53.868 15.048 54.12 14.872 54.368C14.696 54.608 14.472 54.808 14.2 54.968C13.928 55.12 13.6 55.196 13.216 55.196C12.8 55.196 12.428 55.084 12.1 54.86C11.764 54.628 11.5 54.316 11.308 53.924C11.108 53.524 11.008 53.068 11.008 52.556C11.008 52.1 11.1 51.66 11.284 51.236C11.46 50.812 11.7 50.448 12.004 50.144L12.892 50.852C12.684 51.1 12.52 51.364 12.4 51.644C12.28 51.916 12.22 52.22 12.22 52.556C12.22 52.924 12.304 53.224 12.472 53.456C12.632 53.68 12.856 53.792 13.144 53.792C13.344 53.792 13.512 53.736 13.648 53.624C13.776 53.504 13.888 53.348 13.984 53.156C14.072 52.964 14.16 52.76 14.248 52.544L14.692 51.476C14.892 51.012 15.156 50.632 15.484 50.336C15.804 50.04 16.248 49.892 16.816 49.892C17.24 49.892 17.628 50.004 17.98 50.228C18.332 50.452 18.616 50.776 18.832 51.2C19.04 51.616 19.144 52.12 19.144 52.712ZM19.144 46.1249C19.144 46.6609 19.024 47.1449 18.784 47.5769C18.536 48.0009 18.184 48.3409 17.728 48.5969C17.264 48.8449 16.708 48.9689 16.06 48.9689C15.404 48.9689 14.848 48.8329 14.392 48.5609C13.928 48.2889 13.576 47.9289 13.336 47.4809C13.088 47.0249 12.964 46.5369 12.964 46.0169C12.964 45.6409 13.028 45.3129 13.156 45.0329C13.284 44.7529 13.44 44.5049 13.624 44.2889L14.524 44.9609C14.388 45.1129 14.284 45.2689 14.212 45.4289C14.132 45.5889 14.092 45.7609 14.092 45.9449C14.092 46.4169 14.272 46.8049 14.632 47.1089C14.992 47.4049 15.468 47.5529 16.06 47.5529C16.644 47.5529 17.116 47.4089 17.476 47.1209C17.836 46.8249 18.016 46.4449 18.016 45.9809C18.016 45.7489 17.968 45.5329 17.872 45.3329C17.768 45.1249 17.648 44.9369 17.512 44.7689L18.424 44.2049C18.664 44.4769 18.844 44.7809 18.964 45.1169C19.084 45.4529 19.144 45.7889 19.144 46.1249ZM19 43.042L13.108 43.042L13.108 41.902L14.152 41.806L14.152 41.758C13.768 41.55 13.476 41.298 13.276 41.002C13.068 40.706 12.964 40.402 12.964 40.09C12.964 39.81 13.004 39.586 13.084 39.418L14.284 39.658C14.252 39.762 14.228 39.858 14.212 39.946C14.196 40.034 14.188 40.142 14.188 40.27C14.188 40.502 14.28 40.746 14.464 41.002C14.64 41.258 14.952 41.478 15.4 41.662L19 41.662L19 43.042ZM19.144 36.2706C19.144 36.7586 19.024 37.2146 18.784 37.6386C18.536 38.0626 18.184 38.4066 17.728 38.6706C17.264 38.9346 16.708 39.0666 16.06 39.0666C15.404 39.0666 14.848 38.9346 14.392 38.6706C13.928 38.4066 13.576 38.0626 13.336 37.6386C13.088 37.2146 12.964 36.7586 12.964 36.2706C12.964 35.7746 13.088 35.3146 13.336 34.8906C13.576 34.4666 13.928 34.1226 14.392 33.8586C14.848 33.5946 15.404 33.4626 16.06 33.4626C16.708 33.4626 17.264 33.5946 17.728 33.8586C18.184 34.1226 18.536 34.4666 18.784 34.8906C19.024 35.3146 19.144 35.7746 19.144 36.2706ZM18.016 36.2706C18.016 35.8386 17.836 35.4986 17.476 35.2506C17.116 35.0026 16.644 34.8786 16.06 34.8786C15.468 34.8786 14.992 35.0026 14.632 35.2506C14.272 35.4986 14.092 35.8386 14.092 36.2706C14.092 36.7026 14.272 37.0426 14.632 37.2906C14.992 37.5306 15.468 37.6506 16.06 37.6506C16.644 37.6506 17.116 37.5306 17.476 37.2906C17.836 37.0426 18.016 36.7026 18.016 36.2706ZM19.144 30.7527C19.144 31.2407 18.996 31.5887 18.7 31.7967C18.404 31.9967 18 32.0967 17.488 32.0967L10.528 32.0967L10.528 30.7167L17.56 30.7167C17.728 30.7167 17.848 30.6847 17.92 30.6207C17.984 30.5567 18.016 30.4887 18.016 30.4167C18.016 30.3847 18.016 30.3567 18.016 30.3327C18.008 30.3007 18 30.2567 17.992 30.2007L19.024 30.0207C19.056 30.1007 19.084 30.2047 19.108 30.3327C19.132 30.4527 19.144 30.5927 19.144 30.7527ZM19.144 27.4948C19.144 27.9828 18.996 28.3308 18.7 28.5388C18.404 28.7388 18 28.8388 17.488 28.8388L10.528 28.8388L10.528 27.4588L17.56 27.4588C17.728 27.4588 17.848 27.4268 17.92 27.3628C17.984 27.2988 18.016 27.2308 18.016 27.1588C18.016 27.1268 18.016 27.0988 18.016 27.0748C18.008 27.0428 18 26.9988 17.992 26.9428L19.024 26.7628C19.056 26.8428 19.084 26.9468 19.108 27.0748C19.132 27.1948 19.144 27.3348 19.144 27.4948Z" fill="#CE3727"/>
</g>
<g filter="url(#filter2_d_1_34)">
<line x1="14" y1="24" x2="14" y2="5" stroke="#CE3727" stroke-width="2"/>
</g>
<defs>
<filter id="filter0_d_1_34" x="0.636041" y="55" width="28.7279" height="35" filterUnits="userSpaceOnUse" color-interpolation-filters="sRGB">
<feFlood flood-opacity="0" result="BackgroundImageFix"/>
<feColorMatrix in="SourceAlpha" type="matrix" values="0 0 0 0 0 0 0 0 0 0 0 0 0 0 0 0 0 0 127 0" result="hardAlpha"/>
<feOffset dy="2"/>
<feGaussianBlur stdDeviation="3.5"/>
<feComposite in2="hardAlpha" operator="out"/>
<feColorMatrix type="matrix" values="0 0 0 0 0.775 0 0 0 0 0.221461 0 0 0 0 0.164687 0 0 0 0.5 0"/>
<feBlend mode="normal" in2="BackgroundImageFix" result="effect1_dropShadow_1_34"/>
<feBlend mode="normal" in="SourceGraphic" in2="effect1_dropShadow_1_34" result="shape"/>
</filter>
<filter id="filter1_d_1_34" x="3.528" y="21.7628" width="22.616" height="42.7811" filterUnits="userSpaceOnUse" color-interpolation-filters="sRGB">
<feFlood flood-opacity="0" result="BackgroundImageFix"/>
<feColorMatrix in="SourceAlpha" type="matrix" values="0 0 0 0 0 0 0 0 0 0 0 0 0 0 0 0 0 0 127 0" result="hardAlpha"/>
<feOffset dy="2"/>
<feGaussianBlur stdDeviation="3.5"/>
<feComposite in2="hardAlpha" operator="out"/>
<feColorMatrix type="matrix" values="0 0 0 0 0.775 0 0 0 0 0.221461 0 0 0 0 0.164687 0 0 0 0.5 0"/>
<feBlend mode="normal" in2="BackgroundImageFix" result="effect1_dropShadow_1_34"/>
<feBlend mode="normal" in="SourceGraphic" in2="effect1_dropShadow_1_34" result="shape"/>
</filter>
<filter id="filter2_d_1_34" x="6" y="0" width="16" height="33" filterUnits="userSpaceOnUse" color-interpolation-filters="sRGB">
<feFlood flood-opacity="0" result="BackgroundImageFix"/>
<feColorMatrix in="SourceAlpha" type="matrix" values="0 0 0 0 0 0 0 0 0 0 0 0 0 0 0 0 0 0 127 0" result="hardAlpha"/>
<feOffset dy="2"/>
<feGaussianBlur stdDeviation="3.5"/>
<feComposite in2="hardAlpha" operator="out"/>
<feColorMatrix type="matrix" values="0 0 0 0 0.775 0 0 0 0 0.221461 0 0 0 0 0.164687 0 0 0 0.5 0"/>
<feBlend mode="normal" in2="BackgroundImageFix" result="effect1_dropShadow_1_34"/>
<feBlend mode="normal" in="SourceGraphic" in2="effect1_dropShadow_1_34" result="shape"/>
</filter>
</defs>
</svg>
