<svg width="32" height="32" viewBox="0 0 32 32" fill="none" xmlns="http://www.w3.org/2000/svg">
<path d="M27.4741 28.8447C28.7043 28.8447 29.7052 27.8439 29.7052 26.6136C29.7052 25.3834 28.7043 24.3826 27.4741 24.3826C26.2439 24.3826 25.243 25.3834 25.243 26.6136C25.243 27.8439 26.2439 28.8447 27.4741 28.8447ZM27.4741 25.6575C28.0013 25.6575 28.4303 26.0864 28.4303 26.6136C28.4303 27.1409 28.0013 27.5698 27.4741 27.5698C26.9469 27.5698 26.5179 27.1409 26.5179 26.6136C26.5179 26.0864 26.9469 25.6575 27.4741 25.6575Z" fill="white"/>
<path d="M21.8645 28.271C22.7784 28.271 23.5219 27.5275 23.5219 26.6137C23.5219 25.6998 22.7784 24.9563 21.8645 24.9563C20.9507 24.9563 20.2072 25.6998 20.2072 26.6137C20.2072 27.5275 20.9507 28.271 21.8645 28.271ZM21.8645 26.2312C22.0755 26.2312 22.247 26.4027 22.247 26.6137C22.247 26.8246 22.0755 26.9961 21.8645 26.9961C21.6536 26.9961 21.4821 26.8246 21.4821 26.6137C21.4821 26.4027 21.6536 26.2312 21.8645 26.2312Z" fill="white"/>
<path d="M3.8247 27.251H17.6574C18.0094 27.251 18.2948 26.9656 18.2948 26.6135C18.2948 26.2615 18.0094 25.9761 17.6574 25.9761H3.8247C3.47263 25.9761 3.18725 26.2615 3.18725 26.6135C3.18725 26.9656 3.47263 27.251 3.8247 27.251Z" fill="white"/>
<path d="M31.3626 11.4423H29.004V11.2095C29.004 10.8574 28.7186 10.572 28.3665 10.572C28.0145 10.572 27.7291 10.8574 27.7291 11.2095V11.4423H4.14343V11.2095C4.14343 10.8574 3.85804 10.572 3.50598 10.572C3.15391 10.572 2.86853 10.8574 2.86853 11.2095V11.4423H0.63745C0.285386 11.4423 0 11.7277 0 12.0797V19.8566C0 20.2087 0.285386 20.4941 0.63745 20.4941H2.86853V22.0877H0.63745C0.285386 22.0877 0 22.3731 0 22.7251V30.502C0 30.8541 0.285386 31.1395 0.63745 31.1395H31.3626C31.7146 31.1395 32 30.8541 32 30.502V22.7251C32 22.3731 31.7146 22.0877 31.3626 22.0877H29.004V20.4941H31.3626C31.7146 20.4941 32 20.2087 32 19.8566V12.0797C32 11.7277 31.7146 11.4423 31.3626 11.4423ZM30.7251 23.3626V29.8646H1.2749V23.3626H30.7251ZM4.14343 22.0877V20.4941H27.7291V22.0877H4.14343ZM30.7251 19.2192H1.2749V12.7172H30.7251V19.2192Z" fill="white"/>
<path d="M27.4741 18.1992C28.7043 18.1992 29.7052 17.1984 29.7052 15.9681C29.7052 14.7379 28.7043 13.7371 27.4741 13.7371C26.2439 13.7371 25.243 14.7379 25.243 15.9681C25.243 17.1984 26.2439 18.1992 27.4741 18.1992ZM27.4741 15.012C28.0013 15.012 28.4303 15.4409 28.4303 15.9681C28.4303 16.4954 28.0013 16.9243 27.4741 16.9243C26.9469 16.9243 26.5179 16.4954 26.5179 15.9681C26.5179 15.4409 26.9469 15.012 27.4741 15.012Z" fill="white"/>
<path d="M21.8645 17.6255C22.7784 17.6255 23.5219 16.882 23.5219 15.9682C23.5219 15.0543 22.7784 14.3108 21.8645 14.3108C20.9507 14.3108 20.2072 15.0543 20.2072 15.9682C20.2072 16.882 20.9507 17.6255 21.8645 17.6255ZM21.8645 15.5857C22.0755 15.5857 22.247 15.7572 22.247 15.9682C22.247 16.1791 22.0755 16.3506 21.8645 16.3506C21.6536 16.3506 21.4821 16.1791 21.4821 15.9682C21.4821 15.7572 21.6536 15.5857 21.8645 15.5857Z" fill="white"/>
<path d="M3.8247 16.6057H17.6574C18.0094 16.6057 18.2948 16.3203 18.2948 15.9683C18.2948 15.6162 18.0094 15.3308 17.6574 15.3308H3.8247C3.47263 15.3308 3.18725 15.6162 3.18725 15.9683C3.18725 16.3203 3.47263 16.6057 3.8247 16.6057Z" fill="white"/>
<path d="M31.3626 0.860596H0.63745C0.285386 0.860596 0 1.14598 0 1.49805V9.27494C0 9.627 0.285386 9.91239 0.63745 9.91239H31.3626C31.7146 9.91239 32 9.627 32 9.27494V1.49805C32 1.14598 31.7146 0.860596 31.3626 0.860596ZM30.7251 8.63749H1.2749V2.1355H30.7251V8.63749Z" fill="white"/>
<path d="M27.4741 7.61767C28.7043 7.61767 29.7052 6.61681 29.7052 5.38659C29.7052 4.15638 28.7043 3.15552 27.4741 3.15552C26.2439 3.15552 25.243 4.15638 25.243 5.38659C25.243 6.61681 26.2439 7.61767 27.4741 7.61767ZM27.4741 4.43042C28.0013 4.43042 28.4303 4.85936 28.4303 5.38659C28.4303 5.91383 28.0013 6.34277 27.4741 6.34277C26.9469 6.34277 26.5179 5.91383 26.5179 5.38659C26.5179 4.85936 26.9469 4.43042 27.4741 4.43042Z" fill="white"/>
<path d="M21.8645 7.04375C22.7784 7.04375 23.5219 6.30022 23.5219 5.38637C23.5219 4.47253 22.7784 3.729 21.8645 3.729C20.9507 3.729 20.2072 4.47253 20.2072 5.38637C20.2072 6.30022 20.9507 7.04375 21.8645 7.04375ZM21.8645 5.0039C22.0755 5.0039 22.247 5.17544 22.247 5.38637C22.247 5.59731 22.0755 5.76884 21.8645 5.76884C21.6536 5.76884 21.4821 5.59731 21.4821 5.38637C21.4821 5.17544 21.6536 5.0039 21.8645 5.0039Z" fill="white"/>
<path d="M3.8247 6.02392H13.3865C13.7385 6.02392 14.0239 5.73854 14.0239 5.38647C14.0239 5.03441 13.7385 4.74902 13.3865 4.74902H3.8247C3.47263 4.74902 3.18725 5.03441 3.18725 5.38647C3.18725 5.73854 3.47263 6.02392 3.8247 6.02392Z" fill="white"/>
<path d="M15.745 6.02392H17.6574C18.0094 6.02392 18.2948 5.73854 18.2948 5.38647C18.2948 5.03441 18.0094 4.74902 17.6574 4.74902H15.745C15.393 4.74902 15.1076 5.03441 15.1076 5.38647C15.1076 5.73854 15.393 6.02392 15.745 6.02392Z" fill="white"/>
</svg>
