<svg width="348" height="301" viewBox="0 0 348 301" fill="none" xmlns="http://www.w3.org/2000/svg">
<g filter="url(#filter0_d_1_275)">
<path d="M292.568 254.121L260.664 250.516L259.503 261.215L291.407 264.82L292.568 254.121Z" fill="#999999"/>
<path d="M316.647 181.032L40.144 149.785L32.0174 224.677L308.52 255.924L316.647 181.032Z" fill="#2D2D2D"/>
<path d="M324.773 106.14L48.2705 74.8926L40.1439 149.785L316.647 181.032L324.773 106.14Z" fill="#727272"/>
<path d="M332.895 31.2904L56.3971 0L48.282 74.8935L324.78 106.184L332.895 31.2904Z" fill="#2D2D2D"/>
</g>
<g filter="url(#filter1_d_1_275)">
<path d="M58.1609 240.472L26.2567 236.866L25.0958 247.565L56.9999 251.171L58.1609 240.472Z" fill="#999999"/>
<path d="M270.856 264.508L238.951 260.903L237.79 271.601L269.695 275.207L270.856 264.508Z" fill="#999999"/>
<path d="M294.934 191.418L18.4313 160.171L10.3047 235.063L286.808 266.311L294.934 191.418Z" fill="#2D2D2D"/>
<path d="M55.1654 218.473C63.9755 219.469 71.8972 213.091 72.8589 204.228C73.8207 195.365 67.4584 187.372 58.6483 186.377C49.8382 185.381 41.9165 191.759 40.9548 200.622C39.993 209.486 46.3553 217.478 55.1654 218.473Z" fill="white"/>
<path d="M266.598 204.465C263.653 204.131 261.014 206.252 260.694 209.21L257.223 241.302C256.903 244.26 259.025 246.921 261.97 247.255C264.915 247.589 267.554 245.468 267.874 242.51L271.345 210.418C271.665 207.46 269.543 204.799 266.598 204.465Z" fill="#727272"/>
<path d="M245.329 202.061C242.384 201.727 239.745 203.848 239.425 206.806L235.954 238.899C235.634 241.856 237.756 244.517 240.701 244.851C243.646 245.185 246.285 243.064 246.604 240.106L250.075 208.014C250.395 205.056 248.273 202.395 245.329 202.061Z" fill="#727272"/>
<path d="M224.059 199.658C221.114 199.324 218.475 201.445 218.155 204.403L214.684 236.495C214.365 239.453 216.486 242.114 219.431 242.448C222.376 242.781 225.015 240.66 225.335 237.703L228.806 205.61C229.126 202.652 227.004 199.992 224.059 199.658Z" fill="#727272"/>
<path d="M202.79 197.254C199.845 196.92 197.206 199.041 196.886 201.999L193.415 234.091C193.095 237.049 195.217 239.71 198.162 240.044C201.107 240.378 203.746 238.257 204.066 235.299L207.536 203.207C207.856 200.249 205.735 197.588 202.79 197.254Z" fill="#727272"/>
<path d="M181.52 194.85C178.575 194.516 175.936 196.637 175.616 199.595L172.145 231.688C171.826 234.645 173.947 237.306 176.892 237.64C179.837 237.974 182.476 235.853 182.796 232.895L186.267 200.803C186.587 197.845 184.465 195.184 181.52 194.85Z" fill="#727272"/>
<path d="M160.251 192.447C157.306 192.113 154.667 194.234 154.347 197.192L150.876 229.284C150.556 232.242 152.678 234.903 155.623 235.236C158.568 235.57 161.207 233.449 161.527 230.492L164.998 198.399C165.317 195.441 163.196 192.781 160.251 192.447Z" fill="#727272"/>
<path d="M303.061 116.526L26.5579 85.2791L18.4313 160.171L294.934 191.418L303.061 116.526Z" fill="#727272"/>
<path d="M63.2921 143.581C72.1022 144.576 80.0238 138.198 80.9856 129.335C81.9473 120.472 75.585 112.48 66.7749 111.484C57.9648 110.489 50.0431 116.866 49.0814 125.73C48.1196 134.593 54.482 142.585 63.2921 143.581Z" fill="white"/>
<path d="M274.725 129.573C271.78 129.239 269.141 131.36 268.821 134.318L265.35 166.41C265.03 169.368 267.152 172.029 270.097 172.363C273.042 172.696 275.681 170.575 276.001 167.618L279.472 135.525C279.791 132.567 277.67 129.907 274.725 129.573Z" fill="#2D2D2D"/>
<path d="M253.455 127.169C250.51 126.835 247.871 128.956 247.551 131.914L244.081 164.006C243.761 166.964 245.882 169.625 248.827 169.959C251.772 170.293 254.411 168.172 254.731 165.214L258.202 133.122C258.522 130.164 256.4 127.503 253.455 127.169Z" fill="#2D2D2D"/>
<path d="M232.186 124.766C229.241 124.432 226.602 126.553 226.282 129.511L222.811 161.603C222.491 164.561 224.613 167.222 227.558 167.556C230.503 167.89 233.142 165.769 233.462 162.811L236.933 130.718C237.252 127.761 235.131 125.1 232.186 124.766Z" fill="#2D2D2D"/>
<path d="M210.916 122.362C207.971 122.028 205.332 124.149 205.012 127.107L201.542 159.2C201.222 162.157 203.343 164.818 206.288 165.152C209.233 165.486 211.872 163.365 212.192 160.407L215.663 128.315C215.983 125.357 213.861 122.696 210.916 122.362Z" fill="#2D2D2D"/>
<path d="M189.647 119.958C186.702 119.624 184.063 121.745 183.743 124.703L180.272 156.796C179.952 159.753 182.074 162.414 185.019 162.748C187.964 163.082 190.603 160.961 190.923 158.003L194.394 125.911C194.714 122.953 192.592 120.292 189.647 119.958Z" fill="#2D2D2D"/>
<path d="M168.377 117.555C165.432 117.221 162.793 119.342 162.474 122.3L159.003 154.392C158.683 157.35 160.805 160.011 163.749 160.345C166.694 160.679 169.333 158.558 169.653 155.6L173.124 123.507C173.444 120.55 171.322 117.889 168.377 117.555Z" fill="#2D2D2D"/>
<path d="M311.187 41.6337L34.6845 10.3867L26.558 85.279L303.061 116.526L311.187 41.6337Z" fill="#2D2D2D"/>
<path d="M71.4187 68.6885C80.2288 69.6841 88.1504 63.3061 89.1122 54.4428C90.0739 45.5796 83.7116 37.5874 74.9015 36.5918C66.0914 35.5962 58.1697 41.9741 57.208 50.8374C56.2462 59.7007 62.6086 67.6929 71.4187 68.6885Z" fill="white"/>
<path d="M282.851 54.6809C279.906 54.347 277.267 56.468 276.947 59.4259L273.477 91.5182C273.157 94.4761 275.278 97.1368 278.223 97.4707C281.168 97.8046 283.807 95.6836 284.127 92.7258L287.598 60.6335C287.918 57.6756 285.796 55.0148 282.851 54.6809Z" fill="#727272"/>
<path d="M261.582 52.2771C258.637 51.9432 255.998 54.0642 255.678 57.0221L252.207 89.1144C251.887 92.0722 254.009 94.733 256.954 95.0669C259.899 95.4008 262.538 93.2798 262.858 90.322L266.329 58.2297C266.649 55.2718 264.527 52.611 261.582 52.2771Z" fill="#727272"/>
<path d="M240.312 49.8733C237.368 49.5394 234.729 51.6604 234.409 54.6183L230.938 86.7106C230.618 89.6684 232.74 92.3292 235.685 92.6631C238.629 92.997 241.268 90.876 241.588 87.9182L245.059 55.8258C245.379 52.868 243.257 50.2072 240.312 49.8733Z" fill="#727272"/>
<path d="M219.043 47.47C216.098 47.1361 213.459 49.2571 213.139 52.2149L209.668 84.3073C209.348 87.2651 211.47 89.9259 214.415 90.2598C217.36 90.5937 219.999 88.4727 220.319 85.5149L223.79 53.4225C224.11 50.4647 221.988 47.8039 219.043 47.47Z" fill="#727272"/>
<path d="M197.773 45.0662C194.829 44.7323 192.19 46.8533 191.87 49.8111L188.399 81.9035C188.079 84.8613 190.201 87.5221 193.146 87.856C196.09 88.1899 198.729 86.0689 199.049 83.1111L202.52 51.0187C202.84 48.0609 200.718 45.4001 197.773 45.0662Z" fill="#727272"/>
<path d="M176.504 42.6626C173.559 42.3287 170.92 44.4497 170.6 47.4076L167.129 79.4999C166.809 82.4578 168.931 85.1185 171.876 85.4524C174.821 85.7863 177.46 83.6653 177.78 80.7075L181.251 48.6151C181.571 45.6573 179.449 42.9965 176.504 42.6626Z" fill="#727272"/>
<path d="M92.9675 217.33C98.8409 217.994 104.122 213.742 104.763 207.833C105.404 201.924 101.163 196.596 95.2894 195.932C89.416 195.269 84.1349 199.521 83.4937 205.429C82.8525 211.338 87.0941 216.666 92.9675 217.33Z" fill="#0078C2"/>
<path d="M101.094 142.438C106.968 143.101 112.249 138.849 112.89 132.941C113.531 127.032 109.289 121.704 103.416 121.04C97.5426 120.376 92.2615 124.628 91.6203 130.537C90.9792 136.446 95.2207 141.774 101.094 142.438Z" fill="#EF852F"/>
<path d="M109.221 67.5454C115.094 68.2091 120.375 63.9572 121.016 58.0483C121.658 52.1395 117.416 46.8114 111.543 46.1476C105.669 45.4839 100.388 49.7359 99.7469 55.6447C99.1058 61.5535 103.347 66.8817 109.221 67.5454Z" fill="#EF3421"/>
</g>
<defs>
<filter id="filter0_d_1_275" x="27.0174" y="0" width="320.878" height="284.82" filterUnits="userSpaceOnUse" color-interpolation-filters="sRGB">
<feFlood flood-opacity="0" result="BackgroundImageFix"/>
<feColorMatrix in="SourceAlpha" type="matrix" values="0 0 0 0 0 0 0 0 0 0 0 0 0 0 0 0 0 0 127 0" result="hardAlpha"/>
<feOffset dx="5" dy="10"/>
<feGaussianBlur stdDeviation="5"/>
<feComposite in2="hardAlpha" operator="out"/>
<feColorMatrix type="matrix" values="0 0 0 0 0 0 0 0 0 0 0 0 0 0 0 0 0 0 0.08 0"/>
<feBlend mode="normal" in2="BackgroundImageFix" result="effect1_dropShadow_1_275"/>
<feBlend mode="normal" in="SourceGraphic" in2="effect1_dropShadow_1_275" result="shape"/>
</filter>
<filter id="filter1_d_1_275" x="0.304688" y="5.38672" width="330.883" height="294.82" filterUnits="userSpaceOnUse" color-interpolation-filters="sRGB">
<feFlood flood-opacity="0" result="BackgroundImageFix"/>
<feColorMatrix in="SourceAlpha" type="matrix" values="0 0 0 0 0 0 0 0 0 0 0 0 0 0 0 0 0 0 127 0" result="hardAlpha"/>
<feOffset dx="5" dy="10"/>
<feGaussianBlur stdDeviation="7.5"/>
<feComposite in2="hardAlpha" operator="out"/>
<feColorMatrix type="matrix" values="0 0 0 0 0 0 0 0 0 0 0 0 0 0 0 0 0 0 0.3 0"/>
<feBlend mode="normal" in2="BackgroundImageFix" result="effect1_dropShadow_1_275"/>
<feBlend mode="normal" in="SourceGraphic" in2="effect1_dropShadow_1_275" result="shape"/>
</filter>
</defs>
</svg>
