<svg width="534" height="422" viewBox="0 0 534 422" fill="none" xmlns="http://www.w3.org/2000/svg">
<path d="M92.9256 199.205L69.294 172.229C75.138 154.318 85.2622 138.106 98.7874 125C94.7423 158.249 125.337 185.509 132.369 218.256C134.484 228.487 134.271 239.062 131.748 249.199C129.224 259.336 124.453 268.775 117.789 276.816L111.323 301.424C97.6978 291.501 86.3838 278.74 78.1606 264.02C69.9375 249.3 65.0006 232.97 63.6903 216.156C63.0486 206.716 63.5972 197.233 65.3231 187.931C78.5472 194.227 92.9256 199.205 92.9256 199.205Z" fill="#EAEAEA"/>
<path d="M66.1274 270.475L32.2873 258.642C28.5618 240.173 29.3972 221.073 34.721 203C47.5587 233.933 87.5986 242.581 109.83 267.617C116.704 275.479 121.723 284.789 124.513 294.856C127.304 304.922 127.795 315.489 125.951 325.771L132.431 350.376C115.69 348.454 99.564 342.923 85.1645 334.163C70.7651 325.404 58.4343 313.624 49.0216 299.636C43.8188 291.736 39.6306 283.212 36.556 274.265C51.1636 273.228 66.1274 270.475 66.1274 270.475Z" fill="#DFDFDF"/>
<path d="M319.014 320.22H148.151C143.131 320.22 139.049 321.232 139.049 322.482V389.368H328.14V322.482C328.14 321.232 324.058 320.22 319.014 320.22Z" fill="#F2F2F2"/>
<path d="M191.253 385.296L189.656 398.315L239.069 410.674L241.426 391.46L191.253 385.296Z" fill="#D6A7AE"/>
<path d="M200.683 382.142L199.373 403.094L190.469 402L174.399 420.098C173.605 420.992 172.547 421.608 171.378 421.858C170.21 422.107 168.992 421.976 167.903 421.484C166.814 420.991 165.911 420.163 165.326 419.121C164.74 418.079 164.503 416.876 164.648 415.689L167.685 390.927L177.016 387.741L168.413 384.993L169.558 375.657L200.683 382.142Z" fill="#2D2D2D"/>
<path d="M335.606 391.705L348.323 394.877L366.599 347.297L347.83 342.615L335.606 391.705Z" fill="#D6A7AE"/>
<path d="M368.064 412.688L352.075 394.519L354.246 385.805L351.983 385.382H351.969L337.841 382.743L333.625 381.952L323.403 412.081L332.525 414.36L336.297 406.147L337.876 413.69L338.32 415.8L362.509 421.833C363.668 422.122 364.889 422.032 365.993 421.578C367.098 421.123 368.028 420.327 368.649 419.306C369.269 418.285 369.547 417.092 369.442 415.901C369.337 414.71 368.854 413.585 368.064 412.688Z" fill="#2D2D2D"/>
<path d="M228.905 386.758L233.515 386.031C228.566 391.189 223.814 394.597 219.302 395.655L221.488 387.922L228.905 386.758Z" fill="#2D2D2D"/>
<path d="M363.588 363.536C359.224 373.302 356.079 379.553 356.079 379.553L354.521 378.735L350.418 376.583L340.647 371.453L338.969 370.571L339.448 361.243L341.578 319.994L342.48 302.608L305.235 322.309L261.165 345.621C259.361 348.768 257.567 351.831 255.786 354.808L225.845 334.254L256.23 289.88L273.94 281.596L270.119 280.855C271.096 279.442 272.2 278.122 273.418 276.911L274.758 276.156C274.758 276.156 359.026 229.7 383.271 253.52C385.362 255.651 386.931 258.237 387.854 261.077C396.166 284.969 375.403 337.119 363.588 363.536Z" fill="#2D2D2D"/>
<path d="M345.046 407.234C343.231 409.95 340.766 412.169 337.876 413.69C335.428 415.03 332.836 416.088 330.149 416.844C294.42 427.294 216.229 406.528 216.229 406.528L219.302 395.655L221.488 387.922L228.904 386.758L233.515 386.031L288.66 377.373L273.467 366.944L255.786 354.808L225.845 334.254L189.96 318.103C148.365 284.94 183.192 247.756 183.192 247.756L206.471 231.245L214.029 225.882L260.46 249.661L273.94 281.596L278.085 291.411L305.235 322.309L339.448 361.243L339.716 361.547C340.706 362.298 341.637 363.124 342.501 364.016C342.818 364.327 343.15 364.673 343.488 365.046C346.563 368.376 348.922 372.303 350.418 376.583C351.39 379.405 351.918 382.362 351.983 385.346C351.987 385.352 351.989 385.358 351.989 385.364C351.989 385.37 351.987 385.376 351.983 385.382C352.138 391.598 350.355 398.929 345.046 407.234Z" fill="#2D2D2D"/>
<path d="M167.277 263.45C165.426 262.891 164.483 262.21 164.311 261.307C164.059 259.983 165.546 258.802 167.269 257.434C168.471 256.481 171.64 254.822 170.482 254.312C152.915 246.571 195.623 136.668 208.016 124.18C210.534 121.642 210.234 116.491 213.59 111.908C222.756 99.3916 230.799 97.1239 246.82 92.6072C248.121 92.2404 249.476 91.8563 250.885 91.4549C252.709 90.9342 250.786 96.1188 251.737 92.6428C252.793 88.7796 253.886 84.7843 256.509 82.8738L256.68 82.7492L256.891 82.7628C261.745 83.0842 277.597 85.7472 285.727 91.4921L285.839 91.5724L285.904 91.6933C287.403 94.4911 286.343 98.7129 285.318 102.795C284.475 106.147 286.501 100.844 287.307 102.567C293.468 115.734 304.062 118.715 304.17 118.745L304.696 118.888L304.591 119.423C307.36 133.794 288.365 178.319 284.259 208.301C280.087 238.761 303.87 273.068 268.92 267.301C269 267.565 281.819 293.904 281.61 294.113C278.433 297.298 174.256 265.559 167.277 263.45Z" fill="#E6E6E6"/>
<path d="M398.516 101.857C398.769 103.297 398.703 104.775 398.323 106.186C397.943 107.598 397.259 108.909 396.318 110.027C395.377 111.146 394.202 112.044 392.877 112.659C391.551 113.273 390.107 113.59 388.647 113.586L376.912 147.128L365.73 132.437L378.588 102.837C378.758 100.382 379.821 98.0738 381.578 96.3506C383.334 94.6274 385.661 93.6089 388.117 93.488C390.573 93.3671 392.989 94.1523 394.905 95.6947C396.822 97.2371 398.107 99.4296 398.516 101.857Z" fill="#D6A7AE"/>
<path d="M346.875 195.328L325.605 190.725C287.24 178.567 274.085 163.562 269.796 153.113C265.22 141.964 269.39 133.804 269.57 133.464L269.68 133.316L283.439 119.915C285.187 118.212 287.276 116.901 289.569 116.069C291.861 115.236 294.304 114.9 296.736 115.084C299.168 115.268 301.533 115.967 303.675 117.135C305.816 118.303 307.685 119.914 309.157 121.859L337.099 158.784L350.037 141.24L356.313 136.215L359.698 126.717L372.682 112.582L387.713 119.543L382.054 153.724L374.481 158.359L374.124 163.391L374 163.538L346.875 195.328Z" fill="#E6E6E6"/>
<path d="M240.307 302.445C240.202 302.445 240.097 302.443 239.991 302.439C238.756 302.394 237.549 302.051 236.474 301.439C235.399 300.827 234.488 299.965 233.818 298.925C228.798 291.416 222.637 284.737 215.559 279.13C211.274 275.702 206.796 272.515 202.466 269.432C191.295 261.482 180.775 253.995 174.935 243.649C162.202 221.09 177.197 189.668 198.618 175.577C222.645 159.773 254.248 157.293 284.821 156.969C287.998 156.935 291.177 156.918 294.358 156.918C349.444 156.94 404.413 161.97 458.589 171.948C476.604 175.274 495.461 179.349 510.614 189.239C525.677 199.069 534.833 214.55 533.94 228.68C532.636 249.306 510.789 264.718 490.895 268.748C471.933 272.585 452.235 269.992 431.381 267.246C426.777 266.64 422.017 266.013 417.31 265.468C366.151 259.55 270.045 277.791 265.979 278.571L261.945 279.344L246.294 299.502C245.59 300.421 244.683 301.165 243.645 301.675C242.606 302.186 241.464 302.449 240.307 302.445Z" fill="#CE3727"/>
<path d="M468.124 201.822H251.892C250.646 201.821 249.45 201.324 248.569 200.441C247.688 199.558 247.193 198.361 247.193 197.114C247.193 195.866 247.688 194.669 248.569 193.786C249.45 192.903 250.646 192.406 251.892 192.405H468.124C469.371 192.406 470.566 192.903 471.447 193.786C472.328 194.669 472.823 195.866 472.823 197.114C472.823 198.361 472.328 199.558 471.447 200.441C470.566 201.324 469.371 201.821 468.124 201.822Z" fill="white"/>
<path d="M468.124 230.725H251.892C251.274 230.726 250.662 230.605 250.091 230.369C249.519 230.133 249 229.787 248.562 229.35C248.125 228.913 247.777 228.394 247.54 227.823C247.303 227.252 247.18 226.64 247.18 226.021C247.179 225.402 247.3 224.79 247.536 224.218C247.772 223.646 248.119 223.127 248.555 222.689C248.992 222.251 249.511 221.904 250.082 221.667C250.653 221.43 251.265 221.308 251.883 221.307H468.124C469.371 221.309 470.566 221.806 471.447 222.689C472.328 223.571 472.823 224.768 472.823 226.016C472.823 227.264 472.328 228.461 471.447 229.344C470.566 230.226 469.371 230.723 468.124 230.725Z" fill="white"/>
<path d="M277.091 259.627H251.892C250.646 259.625 249.45 259.128 248.569 258.245C247.688 257.362 247.193 256.166 247.193 254.918C247.193 253.67 247.688 252.473 248.569 251.59C249.45 250.707 250.646 250.211 251.892 250.209H277.091C278.338 250.211 279.533 250.707 280.414 251.59C281.295 252.473 281.79 253.67 281.79 254.918C281.79 256.166 281.295 257.362 280.414 258.245C279.533 259.128 278.338 259.625 277.091 259.627Z" fill="white"/>
<path d="M398.912 103.17C416.699 103.17 431.118 88.7382 431.118 70.9363C431.118 53.1344 416.699 38.7031 398.912 38.7031C381.125 38.7031 366.706 53.1344 366.706 70.9363C366.706 88.7382 381.125 103.17 398.912 103.17Z" fill="white"/>
<path d="M398.912 103.563C392.465 103.563 386.162 101.65 380.801 98.0646C375.44 94.4795 371.262 89.384 368.795 83.4222C366.327 77.4605 365.682 70.9003 366.939 64.5714C368.197 58.2424 371.302 52.4289 375.861 47.8659C380.42 43.303 386.229 40.1956 392.552 38.9367C398.876 37.6777 405.431 38.3238 411.387 40.7932C417.344 43.2626 422.435 47.4445 426.018 52.8099C429.6 58.1753 431.512 64.4833 431.512 70.9363C431.502 79.5864 428.064 87.8795 421.953 93.9961C415.841 100.113 407.555 103.553 398.912 103.563Z" fill="#D85B4D"/>
<path d="M396.501 83.8186C396.432 83.8186 396.364 83.8163 396.295 83.813C395.688 83.7836 395.095 83.6234 394.557 83.3431C394.018 83.0629 393.546 82.6694 393.173 82.1895L387.791 75.2642C387.451 74.827 387.2 74.3272 387.054 73.7932C386.907 73.2591 386.866 72.7014 386.935 72.1517C387.004 71.6021 387.18 71.0714 387.453 70.5899C387.727 70.1084 388.092 69.6856 388.529 69.3456L388.723 69.1947C389.16 68.8543 389.659 68.6035 390.193 68.4564C390.727 68.3094 391.284 68.2691 391.834 68.3377C392.383 68.4064 392.913 68.5828 393.394 68.8568C393.876 69.1307 394.298 69.4969 394.638 69.9344C394.91 70.2837 395.254 70.5702 395.646 70.7743C396.039 70.9783 396.471 71.095 396.913 71.1166C397.355 71.1381 397.796 71.0639 398.207 70.899C398.617 70.7341 398.988 70.4825 399.292 70.1612L410.22 58.6146C410.989 57.8037 412.049 57.3312 413.165 57.3008C414.282 57.2705 415.365 57.6847 416.178 58.4525L416.357 58.6235C416.759 59.0044 417.082 59.4607 417.307 59.9665C417.533 60.4723 417.656 61.0176 417.671 61.5713C417.686 62.1249 417.592 62.6761 417.394 63.1934C417.196 63.7106 416.898 64.1837 416.518 64.5857L399.559 82.5012C399.165 82.9174 398.691 83.2488 398.166 83.4753C397.64 83.7018 397.073 83.8186 396.501 83.8186Z" fill="white"/>
<path d="M233.284 237.951C231.843 237.712 230.471 237.16 229.266 236.334C228.061 235.508 227.052 234.427 226.31 233.168C225.567 231.909 225.11 230.502 224.969 229.047C224.829 227.591 225.009 226.123 225.497 224.745L197.764 202.551L215.318 196.859L238.962 218.807C241.221 219.781 243.044 221.55 244.087 223.78C245.129 226.009 245.319 228.544 244.619 230.903C243.919 233.263 242.378 235.284 240.289 236.583C238.2 237.882 235.708 238.369 233.284 237.951Z" fill="#D6A7AE"/>
<path d="M162.276 158.216L173.662 139.656C197.835 107.456 216.339 100.005 227.61 99.4165C239.637 98.7887 245.948 105.43 246.209 105.714L246.312 105.865L254.387 123.299C255.413 125.514 255.957 127.921 255.982 130.362C256.008 132.802 255.515 135.221 254.536 137.456C253.556 139.692 252.114 141.693 250.303 143.329C248.492 144.964 246.355 146.195 244.033 146.941L199.965 161.093L212.218 179.123L214.876 186.715L222.708 193.058L231.733 210.001L220.19 221.89L189.841 205.221L187.981 196.534L183.356 194.53L183.258 194.364L162.276 158.216Z" fill="#E6E6E6"/>
<path d="M319.071 84.6896L319.099 84.6921C320.623 84.8238 322.136 84.3445 323.306 83.3596C324.476 82.3748 325.207 80.9651 325.339 79.4406L328.127 47.3649C328.632 41.6187 327.978 35.8295 326.202 30.3415C322.723 19.6306 315.248 10.6766 305.336 5.34554C300.217 2.60023 294.597 0.920541 288.812 0.407713C265.148 -1.69031 256.538 3.29675 242.168 39.4934C227.799 75.69 239.376 71.618 239.376 71.618C239.308 72.391 239.396 73.1698 239.635 73.908C240.104 75.3482 241.112 76.5512 242.446 77.2658C243.131 77.6315 243.883 77.8558 244.656 77.9253C272.662 84.8525 300.923 92.1523 319.076 84.69L319.071 84.6896Z" fill="#2D2D2D"/>
<path d="M266.673 30.93C263.198 36.1505 261.347 42.2845 261.353 48.5575C261.359 54.8305 263.222 60.9611 266.707 66.1748C270.192 71.3886 275.143 75.4518 280.934 77.8511C286.725 80.2505 293.097 80.8785 299.244 79.6557C303.314 78.8596 307.185 77.2631 310.634 74.9588C314.082 72.6545 317.04 69.6882 319.335 66.2318C322.803 61.0131 324.649 54.8836 324.641 48.6162C324.633 42.3488 322.771 36.224 319.29 31.0141C315.809 25.8043 310.865 21.7426 305.081 19.3411C299.296 16.9397 292.931 16.3061 286.788 17.5202C282.715 18.3118 278.84 19.9049 275.387 22.207C271.934 24.5092 268.972 27.4745 266.673 30.9312L266.673 30.93Z" fill="#D6A7AE"/>
<path d="M338.065 50.8604C338.464 46.3158 337.946 41.7373 336.542 37.3969C336.153 26.7592 333.005 17.1425 320.041 17.633C316.019 15.4775 311.604 14.1537 307.06 13.7404L300.648 13.1497C300.576 13.143 300.504 13.1366 300.432 13.1303C291.461 12.3548 282.55 15.1777 275.658 20.978C268.767 26.7784 264.46 35.0811 263.685 44.0596L263.629 44.702L277.194 45.9385L282.946 33.4038L282.744 46.4469L289.751 47.0882L292.651 40.7642L292.551 47.3405C303.007 56.4349 318.774 56.8106 338.003 51.5035L338.065 50.8604Z" fill="#2D2D2D"/>
<path d="M294.904 81.5668C295.026 82.6223 294.85 83.6909 294.396 84.6512C294.167 85.1429 293.87 85.6002 293.514 86.0096C293.21 86.3583 292.865 86.6697 292.488 86.9374C291.37 87.7275 290.008 88.0929 288.645 87.9683C288.56 87.9601 288.475 87.9503 288.391 87.939C288.306 87.9276 288.222 87.9142 288.137 87.8989C288.052 87.8843 287.968 87.8673 287.884 87.848C287.8 87.8287 287.716 87.8077 287.631 87.7852L282.891 86.4897L277.491 71.7278L276.361 84.7201L254.807 78.8681L259.6 23.7339L296.293 27.1067L295.294 28.0825C291.974 31.3598 289.622 35.4903 288.497 40.0193C287.38 44.6086 287.058 49.3555 287.543 54.0538C287.999 58.8049 288.91 63.5011 290.262 68.0779C291.44 72.1308 292.851 76.1123 294.486 80.0028C294.698 80.5021 294.838 81.0285 294.904 81.5668Z" fill="#2D2D2D"/>
</svg>
