<svg width="7" height="8" viewBox="0 0 7 8" fill="none" xmlns="http://www.w3.org/2000/svg">
<g clip-path="url(#clip0_190_108)">
<path d="M4.12431 4L6.95415 1.17031C7.01506 1.10933 7.01506 1.01051 6.95415 0.949529L6.55056 0.54572C6.52129 0.516518 6.48147 0.5 6.4401 0.5C6.39865 0.5 6.35891 0.516518 6.32963 0.54572L3.49987 3.37548L0.670109 0.54572C0.611484 0.487095 0.50773 0.487169 0.449253 0.54572L0.0457383 0.949529C-0.0152461 1.01051 -0.0152461 1.10933 0.0457383 1.17031L2.8755 4L0.0457383 6.82969C-0.0152461 6.89067 -0.0152461 6.98949 0.0457383 7.05047L0.449326 7.45428C0.478602 7.48348 0.518348 7.5 0.559791 7.5C0.601234 7.5 0.640907 7.48348 0.670183 7.45428L3.49994 4.62452L6.32971 7.45428C6.35898 7.48348 6.3988 7.5 6.44017 7.5C6.48154 7.5 6.52136 7.48348 6.55064 7.45428L6.95422 7.05047C7.01513 6.98949 7.01513 6.89067 6.95422 6.82969L4.12431 4Z" fill="#727272"/>
</g>
<defs>
<clipPath id="clip0_190_108">
<rect width="7" height="7" fill="white" transform="translate(0 0.5)"/>
</clipPath>
</defs>
</svg>
